<svg width="16" height="16" xmlns="http://www.w3.org/2000/svg">
 <!-- Created with Method Draw - http://github.com/duopixel/Method-Draw/ -->

 <g>
  <title>Layer 1</title>
  <!-- Created with SVG Editor - http://github.com/mzalive/SVG Editor/ -->
  <g stroke="null" id="svg_44">
   <g stroke="null" transform="matrix(0.02098567810669621,0,0,0.018666097122067495,-152.57819228834464,-121.6371701928503) " id="svg_42">
    <title stroke="null" transform="translate(-9.094947017729282e-13,-6.522496700286865) translate(-5.331325054168701,-9.094947017729282e-13) translate(9.094947017729282e-13,-3.8518614768981934) translate(9.094947017729282e-13,3.8518614768981934) translate(0,3.8518614768981934) translate(0,3.8518614768981934) translate(0,3.8518614768981934) translate(0,3.8518614768981934) translate(0,3.8518614768981934) translate(0,3.8518614768981934) translate(0,3.8518614768981934) translate(0,3.8518614768981934) translate(0,3.8518614768981934) translate(0,3.8518614768981934) translate(3.6824262142181396,4.261115074157715) translate(-42.665184020996094,-32.91331100463867) translate(-24.96178436279297,-61.80516815185547) translate(-2801.753173828125,-2557.750244140625) translate(10136.486328125,0) translate(0,9180.4423828125) ">background</title>
    <rect stroke="null" x="7264.45729" y="6563.23089" width="762" height="762" id="svg_40" fill="none"/>
   </g>
   <g stroke="null" transform="matrix(0.02098567810669621,0,0,0.018666097122067495,-152.57819228834464,-121.6371701928503) " id="svg_43">
    <title stroke="null" transform="translate(-9.094947017729282e-13,-6.522496700286865) translate(-5.331325054168701,-9.094947017729282e-13) translate(9.094947017729282e-13,-3.8518614768981934) translate(9.094947017729282e-13,3.8518614768981934) translate(0,3.8518614768981934) translate(0,3.8518614768981934) translate(0,3.8518614768981934) translate(0,3.8518614768981934) translate(0,3.8518614768981934) translate(0,3.8518614768981934) translate(0,3.8518614768981934) translate(0,3.8518614768981934) translate(0,3.8518614768981934) translate(0,3.8518614768981934) translate(3.6824262142181396,4.261115074157715) translate(-42.665184020996094,-32.91331100463867) translate(-24.96178436279297,-61.80516815185547) translate(-2801.753173828125,-2557.750244140625) translate(10136.486328125,0) translate(0,9180.4423828125) ">Layer 1</title>
    <g stroke="null" id="svg_37">
     <line stroke="#ff7500" fill="none" stroke-width="82" x1="7762.80143" y1="6741.4995" x2="7995.20046" y2="6973.39094" id="svg_39" stroke-linejoin="null" stroke-linecap="null"/>
     <line stroke="#ff7500" fill="none" stroke-width="82" x1="7995.20043" y1="6915.07079" x2="7763.78996" y2="7146.96223" id="svg_38" stroke-linejoin="null" stroke-linecap="null"/>
    </g>
    <g stroke="null" id="svg_34">
     <line stroke="#00aa13" fill="none" stroke-width="82" x1="7296.04558" y1="6915.42802" x2="7528.44462" y2="7147.31946" id="svg_36" stroke-linejoin="null" stroke-linecap="null"/>
     <line stroke="#00aa13" fill="none" stroke-width="82" x1="7527.95034" y1="6741.14232" x2="7296.53988" y2="6973.03377" id="svg_35" stroke-linejoin="null" stroke-linecap="null"/>
    </g>
    <path stroke="null" d="m7758.25228,6877.08816l22.86336,-34.27499l-33.16631,-32.81882l-34.63848,22.72043c-11.08814,-6.6025 -23.25567,-11.65116 -36.10997,-14.85556l-8.34044,-40.2955l-46.90413,0l-8.34044,40.39269c-12.8544,3.10721 -24.9236,8.15587 -36.01174,14.75837l-34.63848,-22.72043l-33.16631,32.81882l22.86336,34.27499c-6.57419,10.97197 -11.77512,23.01201 -14.91522,35.73164l-40.72175,8.25364l0,46.41213l40.72155,8.25364c3.14011,12.71972 8.34104,24.75967 14.91523,35.73164l-22.86337,34.27499l33.16631,32.81882l34.63848,-22.72043c11.08815,6.50531 23.15745,11.65175 36.01174,14.75837l8.34045,40.29549l46.90412,0l8.34045,-40.29549c12.8544,-3.10662 25.02182,-8.15587 36.10996,-14.75837l34.63848,22.72043l33.16631,-32.81882l-22.86336,-34.27499c6.57419,-10.97198 11.77512,-23.01202 14.91522,-35.73164l40.72156,-8.25364l0,-46.41213l-40.72156,-8.25364c-3.1399,-12.71963 -8.34083,-24.75957 -14.91502,-35.73164zm-112.84395,129.23625c-34.54026,0 -62.70209,-27.76968 -62.70209,-62.04457c0,-34.27557 28.16193,-62.04515 62.70209,-62.04515c34.63848,0 62.8003,27.76968 62.8003,62.04515c0,34.27499 -28.16182,62.04457 -62.8003,62.04457z" id="svg_33"/>
   </g>
  </g>
 </g>
</svg>