<svg xmlns="http://www.w3.org/2000/svg" width="16" height="16" viewBox="0 0 16 16"><g fill="none" fill-rule="evenodd"><rect width="16" height="16"/><polygon fill="#00AA13" fill-rule="nonzero" points=".882 8.882 3.528 11.528 4.409 10.646 1.764 8 4.409 5.354 3.528 4.472 .882 7.118 0 8"/><polygon fill="#FF7500" fill-rule="nonzero" points="14.236 8 11.591 10.646 12.473 11.528 15.118 8.882 16 8 15.118 7.118 12.473 4.472 11.591 5.354"/><path fill="#000" d="M9.16688967,9.0710156 C8.57496348,9.7141755 7.57198467,9.75966911 6.92512981,9.16531348 C6.28158929,8.57132983 6.23865183,7.57043317 6.83270069,6.92749647 C7.42362141,6.28162109 8.42749398,6.23899175 9.07196549,6.83107828 C9.71975134,7.42416916 9.76026821,8.42740932 9.16688967,9.0710156 Z M11.5047281,7.51173414 C11.4864062,7.37703882 11.4591839,7.24494739 11.4254819,7.11631541 L10.7165856,7.075546 L10.4099533,6.44250406 L10.8170957,5.86139105 C10.651267,5.64247862 10.4606366,5.44510404 10.2506043,5.27164802 L9.65301767,5.65583283 L9.03189549,5.32450691 L9.01912225,4.61427835 C8.76812618,4.53880285 8.50603266,4.48992418 8.23753389,4.47244094 L7.97652032,5.13356766 L7.27808838,5.22481527 L6.85314533,4.65460138 C6.59056769,4.74462145 6.34307216,4.86335866 6.11441995,5.00772555 L6.29242606,5.69533751 L5.78149638,6.18010672 L5.10302495,5.96978711 C4.94687858,6.19234499 4.81564562,6.43320446 4.71401828,6.6886457 L5.26151743,7.13986199 L5.13456704,7.83141697 L4.46194226,8.06022417 C4.46443732,8.20020165 4.47430586,8.34252263 4.49422914,8.48610836 C4.51314695,8.61700944 4.53880515,8.74463706 4.57027276,8.86984679 L5.27961596,8.91262492 L5.58420006,9.54659682 L5.17381776,10.1267799 C5.34013059,10.3458039 5.53020239,10.5456336 5.74042091,10.7196476 L6.33942266,10.3372855 L6.95961384,10.6704341 L6.96951962,11.3811091 C7.22852224,11.4593372 7.49836164,11.5102618 7.77501591,11.5275591 L8.03401853,10.865242 L8.73211532,10.7710185 L9.15810108,11.340228 C9.42041805,11.2490176 9.66735498,11.1290157 9.89582099,10.984128 L9.71580393,10.2971112 L10.2245737,9.8101845 L10.903492,10.018607 C11.0595639,9.79467278 11.19035,9.55344132 11.2909718,9.29837206 L10.7407914,8.84942488 L10.8650978,8.15619597 L11.5380577,7.92623562 C11.5345572,7.78875043 11.524428,7.65022368 11.5047281,7.51173414 L11.5047281,7.51173414 Z"/></g></svg>