<svg id="svg" version="1.1" xmlns="http://www.w3.org/2000/svg" xmlns:xlink="http://www.w3.org/1999/xlink" width="16"
     height="16" viewBox="0, 0, 400,400">
    <g id="svgg">
        <path id="path0"
              d="M130.463 102.417 C 130.005 102.906,129.630 103.609,129.630 103.979 C 129.630 104.349,129.296 104.892,128.889 105.185 C 128.481 105.479,128.148 105.949,128.148 106.229 C 128.148 106.510,127.648 107.207,127.037 107.778 C 126.426 108.349,125.926 109.082,125.926 109.408 C 125.926 109.734,125.759 110.000,125.556 110.000 C 125.352 110.000,125.185 110.250,125.185 110.556 C 125.185 110.861,124.935 111.111,124.630 111.111 C 124.324 111.111,124.074 111.378,124.074 111.703 C 124.074 112.029,123.574 112.762,122.963 113.333 C 122.352 113.904,121.852 114.601,121.852 114.882 C 121.852 115.162,121.519 115.632,121.111 115.926 C 120.704 116.220,120.370 116.803,120.370 117.222 C 120.370 117.642,120.037 118.225,119.630 118.519 C 119.222 118.812,118.889 119.278,118.889 119.553 C 118.889 120.066,118.019 121.111,117.593 121.111 C 117.166 121.111,116.296 122.157,116.296 122.670 C 116.296 122.945,115.963 123.410,115.556 123.704 C 115.148 123.997,114.815 124.547,114.815 124.926 C 114.815 125.304,114.148 126.254,113.333 127.037 C 112.519 127.820,111.852 128.652,111.852 128.886 C 111.852 129.423,110.923 130.370,110.397 130.370 C 110.179 130.370,110.000 130.704,110.000 131.111 C 110.000 131.519,109.833 131.852,109.630 131.852 C 109.426 131.852,109.259 132.102,109.259 132.407 C 109.259 132.713,109.093 132.963,108.889 132.963 C 108.685 132.963,108.519 133.260,108.519 133.622 C 108.519 133.984,108.185 134.521,107.778 134.815 C 107.370 135.108,107.037 135.578,107.037 135.859 C 107.037 136.140,106.537 136.837,105.926 137.407 C 105.315 137.978,104.815 138.724,104.815 139.064 C 104.815 139.760,103.963 140.741,103.360 140.741 C 103.142 140.741,102.963 141.007,102.963 141.333 C 102.963 141.659,102.463 142.392,101.852 142.963 C 101.241 143.534,100.741 144.231,100.741 144.511 C 100.741 144.792,100.407 145.262,100.000 145.556 C 99.593 145.849,99.259 146.303,99.259 146.563 C 99.259 146.824,99.093 147.037,98.889 147.037 C 98.685 147.037,98.519 147.334,98.519 147.696 C 98.519 148.058,98.185 148.595,97.778 148.889 C 97.370 149.183,97.037 149.719,97.037 150.082 C 97.037 150.444,96.787 150.741,96.481 150.741 C 96.176 150.741,95.926 151.037,95.926 151.400 C 95.926 151.762,95.593 152.299,95.185 152.593 C 94.778 152.886,94.444 153.470,94.444 153.889 C 94.444 154.308,94.111 154.892,93.704 155.185 C 93.296 155.479,92.963 156.016,92.963 156.378 C 92.963 156.740,92.796 157.037,92.593 157.037 C 92.389 157.037,92.222 157.334,92.222 157.696 C 92.222 158.058,91.889 158.595,91.481 158.889 C 91.074 159.183,90.741 159.803,90.741 160.267 C 90.741 160.731,90.574 161.111,90.370 161.111 C 90.167 161.111,90.000 161.444,90.000 161.852 C 90.000 162.263,89.753 162.593,89.444 162.593 C 89.136 162.593,88.889 162.922,88.889 163.333 C 88.889 163.741,88.722 164.074,88.519 164.074 C 88.315 164.074,88.148 164.371,88.148 164.733 C 88.148 165.095,87.815 165.632,87.407 165.926 C 87.000 166.220,86.667 166.840,86.667 167.304 C 86.667 167.768,86.500 168.148,86.296 168.148 C 86.093 168.148,85.926 168.481,85.926 168.889 C 85.926 169.296,85.759 169.630,85.556 169.630 C 85.352 169.630,85.185 169.963,85.185 170.370 C 85.185 170.778,85.019 171.111,84.815 171.111 C 84.611 171.111,84.444 171.444,84.444 171.852 C 84.444 172.259,84.278 172.593,84.074 172.593 C 83.870 172.593,83.704 172.926,83.704 173.333 C 83.704 173.741,83.537 174.074,83.333 174.074 C 83.130 174.074,82.963 174.491,82.963 175.000 C 82.963 175.576,82.753 175.926,82.407 175.926 C 82.099 175.926,81.852 176.255,81.852 176.667 C 81.852 177.074,81.685 177.407,81.481 177.407 C 81.278 177.407,81.111 177.741,81.111 178.148 C 81.111 178.556,80.944 178.889,80.741 178.889 C 80.537 178.889,80.370 179.389,80.370 180.000 C 80.370 180.611,80.204 181.111,80.000 181.111 C 79.796 181.111,79.630 181.528,79.630 182.037 C 79.630 182.546,79.463 182.963,79.259 182.963 C 79.056 182.963,78.889 183.296,78.889 183.704 C 78.889 184.111,78.722 184.444,78.519 184.444 C 78.315 184.444,78.148 184.778,78.148 185.185 C 78.148 185.593,77.981 185.926,77.778 185.926 C 77.574 185.926,77.407 186.426,77.407 187.037 C 77.407 187.648,77.241 188.148,77.037 188.148 C 76.833 188.148,76.667 188.565,76.667 189.074 C 76.667 189.583,76.500 190.000,76.296 190.000 C 76.093 190.000,75.926 190.500,75.926 191.111 C 75.926 191.722,75.759 192.222,75.556 192.222 C 75.352 192.222,75.185 192.722,75.185 193.333 C 75.185 194.074,75.000 194.444,74.630 194.444 C 74.242 194.444,74.074 194.835,74.074 195.741 C 74.074 196.454,73.907 197.037,73.704 197.037 C 73.500 197.037,73.333 197.537,73.333 198.148 C 73.333 198.759,73.167 199.259,72.963 199.259 C 72.759 199.259,72.593 199.759,72.593 200.370 C 72.593 200.981,72.426 201.481,72.222 201.481 C 72.019 201.481,71.852 202.231,71.852 203.148 C 71.852 204.065,71.685 204.815,71.481 204.815 C 71.278 204.815,71.111 205.481,71.111 206.296 C 71.111 207.111,70.944 207.778,70.741 207.778 C 70.537 207.778,70.370 208.694,70.370 209.815 C 70.370 210.935,70.204 211.852,70.000 211.852 C 69.788 211.852,69.630 212.963,69.630 214.444 C 69.630 215.926,69.471 217.037,69.259 217.037 C 69.029 217.037,68.889 219.136,68.889 222.593 C 68.889 226.049,68.749 228.148,68.519 228.148 C 68.315 228.148,68.148 228.815,68.148 229.630 C 68.148 230.444,68.315 231.111,68.519 231.111 C 68.748 231.111,68.889 233.086,68.889 236.296 C 68.889 239.506,69.030 241.481,69.259 241.481 C 69.465 241.481,69.630 242.469,69.630 243.704 C 69.630 244.938,69.794 245.926,70.000 245.926 C 70.204 245.926,70.370 246.676,70.370 247.593 C 70.370 248.509,70.537 249.259,70.741 249.259 C 70.944 249.259,71.111 249.926,71.111 250.741 C 71.111 251.556,71.278 252.222,71.481 252.222 C 71.685 252.222,71.852 252.806,71.852 253.519 C 71.852 254.231,72.019 254.815,72.222 254.815 C 72.426 254.815,72.593 255.148,72.593 255.556 C 72.593 255.963,72.759 256.296,72.963 256.296 C 73.167 256.296,73.333 256.796,73.333 257.407 C 73.333 258.019,73.500 258.519,73.704 258.519 C 73.907 258.519,74.074 258.852,74.074 259.259 C 74.074 259.671,74.321 260.000,74.630 260.000 C 74.975 260.000,75.185 260.350,75.185 260.926 C 75.185 261.435,75.352 261.852,75.556 261.852 C 75.759 261.852,75.926 262.185,75.926 262.593 C 75.926 263.000,76.093 263.333,76.296 263.333 C 76.500 263.333,76.667 263.630,76.667 263.992 C 76.667 264.355,77.000 264.892,77.407 265.185 C 77.815 265.479,78.148 266.016,78.148 266.378 C 78.148 266.740,78.315 267.037,78.519 267.037 C 78.722 267.037,78.889 267.387,78.889 267.814 C 78.889 268.242,79.389 269.059,80.000 269.630 C 80.611 270.200,81.111 270.863,81.111 271.101 C 81.111 271.556,82.006 272.593,82.398 272.593 C 82.872 272.593,84.444 274.435,84.444 274.990 C 84.444 275.573,88.989 280.370,89.541 280.370 C 89.704 280.370,90.077 280.704,90.370 281.111 C 90.664 281.519,91.201 281.852,91.563 281.852 C 91.926 281.852,92.222 282.024,92.222 282.235 C 92.222 282.832,94.724 285.185,95.358 285.185 C 95.670 285.185,95.926 285.352,95.926 285.556 C 95.926 285.759,96.176 285.926,96.481 285.926 C 96.787 285.926,97.037 286.093,97.037 286.296 C 97.037 286.500,97.334 286.667,97.696 286.667 C 98.058 286.667,98.595 287.000,98.889 287.407 C 99.183 287.815,99.719 288.148,100.082 288.148 C 100.444 288.148,100.741 288.315,100.741 288.519 C 100.741 288.722,101.074 288.889,101.481 288.889 C 101.893 288.889,102.222 289.136,102.222 289.444 C 102.222 289.776,102.563 290.000,103.066 290.000 C 103.531 290.000,104.151 290.333,104.444 290.741 C 104.758 291.176,105.403 291.481,106.008 291.481 C 106.574 291.481,107.037 291.648,107.037 291.852 C 107.037 292.056,107.370 292.222,107.778 292.222 C 108.185 292.222,108.519 292.389,108.519 292.593 C 108.519 292.796,108.852 292.963,109.259 292.963 C 109.667 292.963,110.000 293.130,110.000 293.333 C 110.000 293.537,110.583 293.704,111.296 293.704 C 112.009 293.704,112.593 293.870,112.593 294.074 C 112.593 294.278,113.093 294.444,113.704 294.444 C 114.315 294.444,114.815 294.611,114.815 294.815 C 114.815 295.019,115.315 295.185,115.926 295.185 C 116.537 295.185,117.037 295.352,117.037 295.556 C 117.037 295.759,117.787 295.926,118.704 295.926 C 119.938 295.926,120.370 296.070,120.370 296.481 C 120.370 296.918,120.885 297.037,122.778 297.037 C 124.136 297.037,125.185 297.198,125.185 297.407 C 125.185 297.633,126.852 297.778,129.444 297.778 C 132.037 297.778,133.704 297.923,133.704 298.148 C 133.704 298.378,135.741 298.519,139.074 298.519 C 142.407 298.519,144.444 298.378,144.444 298.148 C 144.444 297.925,145.988 297.778,148.333 297.778 C 150.679 297.778,152.222 297.631,152.222 297.407 C 152.222 297.198,153.272 297.037,154.630 297.037 C 156.523 297.037,157.037 296.918,157.037 296.481 C 157.037 296.055,157.510 295.926,159.074 295.926 C 160.194 295.926,161.111 295.759,161.111 295.556 C 161.111 295.352,161.611 295.185,162.222 295.185 C 162.833 295.185,163.333 295.019,163.333 294.815 C 163.333 294.611,164.000 294.444,164.815 294.444 C 165.630 294.444,166.296 294.278,166.296 294.074 C 166.296 293.870,166.713 293.704,167.222 293.704 C 167.731 293.704,168.148 293.537,168.148 293.333 C 168.148 293.130,168.648 292.963,169.259 292.963 C 169.870 292.963,170.370 292.796,170.370 292.593 C 170.370 292.389,170.704 292.222,171.111 292.222 C 171.519 292.222,171.852 292.056,171.852 291.852 C 171.852 291.648,172.352 291.481,172.963 291.481 C 173.574 291.481,174.074 291.315,174.074 291.111 C 174.074 290.907,174.491 290.741,175.000 290.741 C 175.509 290.741,175.926 290.574,175.926 290.370 C 175.926 290.167,176.259 290.000,176.667 290.000 C 177.078 290.000,177.407 289.753,177.407 289.444 C 177.407 289.139,177.704 288.889,178.066 288.889 C 178.429 288.889,178.966 288.556,179.259 288.148 C 179.553 287.741,180.090 287.407,180.452 287.407 C 180.815 287.407,181.111 287.241,181.111 287.037 C 181.111 286.833,181.491 286.667,181.955 286.667 C 182.420 286.667,183.040 286.333,183.333 285.926 C 183.627 285.519,184.097 285.185,184.378 285.185 C 184.658 285.185,185.355 284.685,185.926 284.074 C 186.497 283.463,187.230 282.963,187.556 282.963 C 187.882 282.963,188.148 282.784,188.148 282.566 C 188.148 282.129,189.062 281.111,189.455 281.111 C 189.591 281.111,190.170 280.611,190.741 280.000 C 191.312 279.389,191.973 278.889,192.210 278.889 C 192.447 278.889,193.452 278.056,194.444 277.037 C 195.437 276.019,196.426 275.185,196.643 275.185 C 196.860 275.185,197.037 274.841,197.037 274.420 C 197.037 273.990,197.847 272.867,198.889 271.852 C 199.907 270.860,200.741 269.824,200.741 269.550 C 200.741 269.276,201.074 268.812,201.481 268.519 C 201.889 268.225,202.222 267.771,202.222 267.511 C 202.222 267.250,202.389 267.037,202.593 267.037 C 202.796 267.037,202.963 266.704,202.963 266.296 C 202.963 265.889,203.142 265.556,203.360 265.556 C 203.950 265.556,204.815 264.581,204.815 263.915 C 204.815 263.595,204.981 263.333,205.185 263.333 C 205.389 263.333,205.556 263.000,205.556 262.593 C 205.556 262.185,205.722 261.852,205.926 261.852 C 206.130 261.852,206.296 261.435,206.296 260.926 C 206.296 260.417,206.463 260.000,206.667 260.000 C 206.870 260.000,207.037 259.667,207.037 259.259 C 207.037 258.852,207.204 258.519,207.407 258.519 C 207.611 258.519,207.778 258.185,207.778 257.778 C 207.778 257.370,207.944 257.037,208.148 257.037 C 208.352 257.037,208.519 256.704,208.519 256.296 C 208.519 255.889,208.685 255.556,208.889 255.556 C 209.093 255.556,209.259 254.972,209.259 254.259 C 209.259 253.546,209.426 252.963,209.630 252.963 C 209.833 252.963,210.000 252.630,210.000 252.222 C 210.000 251.811,210.247 251.481,210.556 251.481 C 210.926 251.481,211.111 251.111,211.111 250.370 L 211.111 249.259 241.852 249.259 L 272.593 249.259 272.593 271.852 L 272.593 294.444 293.704 294.444 L 314.815 294.444 314.815 275.401 C 314.815 260.529,314.916 256.311,315.278 256.142 C 315.648 255.969,315.648 255.883,315.278 255.710 C 314.961 255.562,314.815 254.508,314.815 252.377 L 314.815 249.259 323.889 249.259 L 332.963 249.259 332.963 231.296 L 332.963 213.333 323.889 213.333 L 314.815 213.333 314.815 159.846 C 314.815 117.418,314.911 106.313,315.278 106.142 C 315.648 105.969,315.648 105.883,315.278 105.710 C 314.991 105.576,314.815 104.730,314.815 103.488 L 314.815 101.481 295.000 101.481 C 282.037 101.481,275.185 101.610,275.185 101.852 C 275.185 102.056,275.007 102.222,274.788 102.222 C 274.161 102.222,273.333 103.214,273.333 103.966 C 273.333 104.343,273.000 104.892,272.593 105.185 C 272.185 105.479,271.852 105.945,271.852 106.222 C 271.852 106.498,271.185 107.365,270.370 108.148 C 269.556 108.931,268.889 109.847,268.889 110.183 C 268.889 110.777,268.061 111.852,267.602 111.852 C 267.204 111.852,265.556 113.652,265.556 114.086 C 265.556 114.315,264.889 115.143,264.074 115.926 C 263.259 116.709,262.593 117.620,262.593 117.951 C 262.593 118.523,261.030 120.370,260.546 120.370 C 260.154 120.370,259.259 121.407,259.259 121.862 C 259.259 122.100,258.759 122.762,258.148 123.333 C 257.537 123.904,257.037 124.488,257.037 124.630 C 257.037 124.772,256.537 125.355,255.926 125.926 C 255.315 126.497,254.815 127.159,254.815 127.397 C 254.815 127.940,253.889 128.889,253.360 128.889 C 253.142 128.889,252.963 129.155,252.963 129.481 C 252.963 129.807,252.463 130.540,251.852 131.111 C 251.241 131.682,250.741 132.332,250.741 132.556 C 250.741 132.780,250.574 132.963,250.370 132.963 C 250.167 132.963,250.000 133.296,250.000 133.704 C 250.000 134.198,249.753 134.444,249.259 134.444 C 248.796 134.444,248.519 134.691,248.519 135.103 C 248.519 135.466,248.185 136.003,247.778 136.296 C 247.370 136.590,247.037 137.127,247.037 137.489 C 247.037 137.852,246.858 138.148,246.640 138.148 C 246.167 138.148,245.185 139.075,245.185 139.521 C 245.185 139.695,244.852 140.077,244.444 140.370 C 244.037 140.664,243.704 141.131,243.704 141.407 C 243.704 141.684,243.037 142.550,242.222 143.333 C 241.407 144.116,240.741 145.020,240.741 145.341 C 240.741 145.663,240.574 145.926,240.370 145.926 C 240.167 145.926,240.000 146.176,240.000 146.481 C 240.000 146.787,239.826 147.037,239.613 147.037 C 239.095 147.037,237.407 148.747,237.407 149.271 C 237.407 149.500,236.741 150.328,235.926 151.111 C 235.111 151.894,234.444 152.805,234.444 153.136 C 234.444 153.699,232.885 155.556,232.412 155.556 C 231.982 155.556,229.630 158.137,229.630 158.610 C 229.630 158.877,229.296 159.336,228.889 159.630 C 228.481 159.923,228.148 160.473,228.148 160.852 C 228.148 161.230,227.481 162.180,226.667 162.963 C 225.852 163.746,225.185 164.649,225.185 164.971 C 225.185 165.348,224.856 165.556,224.259 165.556 C 223.580 165.556,223.333 165.753,223.333 166.296 C 223.333 166.704,223.167 167.037,222.963 167.037 C 222.759 167.037,222.593 167.287,222.593 167.593 C 222.593 167.898,222.426 168.148,222.222 168.148 C 222.019 168.148,221.852 168.411,221.852 168.733 C 221.852 169.054,221.185 169.958,220.370 170.741 C 219.556 171.524,218.889 172.356,218.889 172.590 C 218.889 173.126,217.960 174.074,217.434 174.074 C 217.216 174.074,217.037 174.287,217.037 174.548 C 217.037 174.808,216.704 175.262,216.296 175.556 C 215.889 175.849,215.556 176.316,215.556 176.592 C 215.556 176.869,214.889 177.736,214.074 178.519 C 213.259 179.301,212.593 180.168,212.593 180.445 C 212.593 180.721,212.259 181.188,211.852 181.481 C 211.444 181.775,211.111 182.229,211.111 182.489 C 211.111 182.750,210.933 182.963,210.714 182.963 C 210.192 182.963,209.259 183.909,209.259 184.439 C 209.259 184.668,208.259 185.837,207.037 187.037 C 205.815 188.237,204.815 189.489,204.815 189.821 C 204.815 190.487,203.962 191.481,203.391 191.481 C 203.189 191.481,202.957 191.684,202.875 191.931 C 202.680 192.515,200.000 189.854,200.000 189.077 C 200.000 188.547,196.958 185.185,196.479 185.185 C 196.210 185.185,193.704 182.681,193.704 182.412 C 193.704 181.881,189.567 178.148,188.979 178.148 C 188.612 178.148,188.071 177.815,187.778 177.407 C 187.484 177.000,187.023 176.667,186.753 176.667 C 186.172 176.667,184.444 175.017,184.444 174.461 C 184.444 174.248,184.111 174.074,183.704 174.074 C 183.296 174.074,182.963 173.907,182.963 173.704 C 182.963 173.500,182.546 173.333,182.037 173.333 C 181.528 173.333,181.111 173.167,181.111 172.963 C 181.111 172.759,180.815 172.593,180.452 172.593 C 180.090 172.593,179.553 172.259,179.259 171.852 C 178.946 171.417,178.300 171.111,177.696 171.111 C 177.130 171.111,176.667 170.944,176.667 170.741 C 176.667 170.537,176.333 170.370,175.926 170.370 C 175.519 170.370,175.185 170.204,175.185 170.000 C 175.185 169.796,174.769 169.630,174.259 169.630 C 173.750 169.630,173.333 169.463,173.333 169.259 C 173.333 169.056,172.833 168.889,172.222 168.889 C 171.611 168.889,171.111 168.722,171.111 168.519 C 171.111 168.315,170.444 168.148,169.630 168.148 C 168.560 168.148,168.148 167.994,168.148 167.593 C 168.148 167.181,167.716 167.037,166.481 167.037 C 165.565 167.037,164.815 166.870,164.815 166.667 C 164.815 166.458,163.765 166.296,162.407 166.296 C 161.049 166.296,160.000 166.135,160.000 165.926 C 160.000 165.339,143.816 165.430,143.578 166.019 C 143.436 166.368,143.285 166.345,142.963 165.926 C 142.641 165.506,142.490 165.484,142.348 165.833 C 142.231 166.124,141.412 166.296,140.154 166.296 C 139.051 166.296,138.148 166.463,138.148 166.667 C 138.148 166.870,137.481 167.037,136.667 167.037 C 134.825 167.037,134.703 166.303,136.296 164.815 C 136.907 164.244,137.407 163.586,137.407 163.353 C 137.407 162.823,139.091 161.111,139.613 161.111 C 139.826 161.111,140.000 160.731,140.000 160.267 C 140.000 159.803,140.333 159.183,140.741 158.889 C 141.148 158.595,141.481 158.125,141.481 157.845 C 141.481 157.564,141.981 156.867,142.593 156.296 C 143.204 155.725,143.704 154.992,143.704 154.666 C 143.704 154.341,143.870 154.074,144.074 154.074 C 144.278 154.074,144.444 153.861,144.444 153.600 C 144.444 153.340,144.778 152.886,145.185 152.593 C 145.593 152.299,145.926 151.762,145.926 151.400 C 145.926 151.037,146.104 150.741,146.323 150.741 C 146.852 150.741,147.778 149.792,147.778 149.249 C 147.778 149.011,148.278 148.349,148.889 147.778 C 149.500 147.207,150.000 146.457,150.000 146.111 C 150.000 145.765,150.500 145.015,151.111 144.444 C 151.722 143.874,152.222 143.211,152.222 142.973 C 152.222 142.430,153.148 141.481,153.677 141.481 C 153.896 141.481,154.074 141.148,154.074 140.741 C 154.074 140.333,154.241 140.000,154.444 140.000 C 154.648 140.000,154.815 139.787,154.815 139.526 C 154.815 139.266,155.148 138.812,155.556 138.519 C 155.963 138.225,156.296 137.758,156.296 137.482 C 156.296 137.205,156.963 136.338,157.778 135.556 C 158.593 134.773,159.259 133.869,159.259 133.548 C 159.259 133.226,159.426 132.963,159.630 132.963 C 159.833 132.963,160.000 132.713,160.000 132.407 C 160.000 132.102,160.250 131.852,160.556 131.852 C 160.861 131.852,161.111 131.555,161.111 131.193 C 161.111 130.830,161.444 130.294,161.852 130.000 C 162.259 129.706,162.593 129.236,162.593 128.956 C 162.593 128.675,163.093 127.978,163.704 127.407 C 164.315 126.837,164.815 126.103,164.815 125.777 C 164.815 125.452,164.981 125.185,165.185 125.185 C 165.389 125.185,165.556 124.935,165.556 124.630 C 165.556 124.324,165.722 124.074,165.926 124.074 C 166.130 124.074,166.296 123.812,166.296 123.492 C 166.296 122.914,167.136 121.852,167.593 121.852 C 167.993 121.852,168.889 120.821,168.889 120.360 C 168.889 120.122,169.389 119.460,170.000 118.889 C 170.611 118.318,171.111 117.538,171.111 117.155 C 171.111 116.773,171.444 116.220,171.852 115.926 C 172.259 115.632,172.593 115.171,172.593 114.901 C 172.593 114.320,174.242 112.593,174.798 112.593 C 175.011 112.593,175.185 112.259,175.185 111.852 C 175.185 111.444,175.352 111.111,175.556 111.111 C 175.759 111.111,175.926 110.898,175.926 110.637 C 175.926 110.377,176.259 109.923,176.667 109.630 C 177.074 109.336,177.407 108.836,177.407 108.519 C 177.407 108.201,177.741 107.701,178.148 107.407 C 178.556 107.114,178.889 106.644,178.889 106.363 C 178.889 106.082,179.389 105.386,180.000 104.815 C 180.611 104.244,181.111 103.427,181.111 103.000 C 181.111 102.572,181.278 102.222,181.481 102.222 C 181.685 102.222,181.852 102.056,181.852 101.852 C 181.852 101.608,173.194 101.489,156.574 101.504 L 131.296 101.527 130.463 102.417 M272.593 151.111 C 272.593 151.315,272.426 151.481,272.222 151.481 C 271.978 151.481,271.852 161.914,271.852 182.037 C 271.852 202.160,271.978 212.593,272.222 212.593 C 272.426 212.593,272.593 212.759,272.593 212.963 C 272.593 213.206,264.012 213.333,247.593 213.333 C 220.600 213.333,220.748 213.345,223.333 211.481 C 223.741 211.188,224.074 210.734,224.074 210.474 C 224.074 210.213,224.253 210.000,224.471 210.000 C 224.997 210.000,225.926 209.052,225.926 208.516 C 225.926 208.282,226.593 207.450,227.407 206.667 C 228.222 205.884,228.889 204.980,228.889 204.659 C 228.889 204.337,229.056 204.074,229.259 204.074 C 229.463 204.074,229.630 203.861,229.630 203.600 C 229.630 203.340,229.963 202.886,230.370 202.593 C 230.778 202.299,231.111 201.834,231.111 201.558 C 231.111 201.051,231.979 200.000,232.398 200.000 C 232.869 200.000,234.444 198.160,234.444 197.609 C 234.444 197.295,234.611 197.037,234.815 197.037 C 235.019 197.037,235.185 196.854,235.185 196.630 C 235.185 196.406,235.685 195.756,236.296 195.185 C 236.907 194.614,237.407 193.957,237.407 193.723 C 237.407 193.284,239.053 191.481,239.454 191.481 C 239.915 191.481,240.741 190.406,240.741 189.805 C 240.741 189.464,241.241 188.719,241.852 188.148 C 242.463 187.577,242.963 186.914,242.963 186.674 C 242.963 186.434,243.630 185.598,244.444 184.815 C 245.259 184.032,245.926 183.045,245.926 182.622 C 245.926 182.198,246.098 181.852,246.309 181.852 C 246.823 181.852,249.259 179.391,249.259 178.872 C 249.259 178.646,249.926 177.820,250.741 177.037 C 251.556 176.254,252.222 175.339,252.222 175.003 C 252.222 174.402,253.052 173.333,253.519 173.333 C 253.915 173.333,254.815 172.304,254.815 171.849 C 254.815 171.615,255.481 170.783,256.296 170.000 C 257.153 169.177,257.789 168.213,257.804 167.714 C 257.828 166.902,257.848 166.895,258.148 167.593 C 258.450 168.294,258.468 168.288,258.492 167.483 C 258.519 166.615,260.025 164.815,260.724 164.815 C 260.937 164.815,261.111 164.552,261.111 164.230 C 261.111 163.909,261.778 163.005,262.593 162.222 C 263.407 161.439,264.074 160.523,264.074 160.185 C 264.074 159.848,264.741 158.931,265.556 158.148 C 266.370 157.365,267.037 156.462,267.037 156.140 C 267.037 155.819,267.211 155.556,267.424 155.556 C 268.025 155.556,269.630 153.806,269.630 153.152 C 269.630 152.355,271.146 150.791,271.944 150.763 C 272.301 150.751,272.593 150.907,272.593 151.111 M147.037 198.889 C 147.037 199.093,147.704 199.259,148.519 199.259 C 149.333 199.259,150.000 199.426,150.000 199.630 C 150.000 199.833,150.333 200.000,150.741 200.000 C 151.148 200.000,151.481 200.167,151.481 200.370 C 151.481 200.574,151.815 200.741,152.222 200.741 C 152.630 200.741,152.963 200.907,152.963 201.111 C 152.963 201.315,153.343 201.481,153.807 201.481 C 154.271 201.481,154.892 201.815,155.185 202.222 C 155.479 202.630,156.016 202.963,156.378 202.963 C 156.740 202.963,157.037 203.213,157.037 203.519 C 157.037 203.824,157.304 204.074,157.629 204.074 C 157.955 204.074,158.688 204.574,159.259 205.185 C 159.830 205.796,160.403 206.296,160.531 206.296 C 161.017 206.296,163.333 208.888,163.333 209.432 C 163.333 209.744,163.500 210.000,163.704 210.000 C 163.907 210.000,164.074 210.250,164.074 210.556 C 164.074 210.861,164.241 211.111,164.444 211.111 C 164.648 211.111,164.815 211.408,164.815 211.770 C 164.815 212.133,165.148 212.669,165.556 212.963 C 165.963 213.257,166.296 213.793,166.296 214.156 C 166.296 214.518,166.463 214.815,166.667 214.815 C 166.870 214.815,167.037 215.315,167.037 215.926 C 167.037 216.667,167.222 217.037,167.593 217.037 C 167.981 217.037,168.148 217.428,168.148 218.333 C 168.148 219.046,168.315 219.630,168.519 219.630 C 168.722 219.630,168.889 220.296,168.889 221.111 C 168.889 221.926,169.056 222.593,169.259 222.593 C 169.492 222.593,169.630 224.938,169.630 228.889 C 169.630 232.840,169.492 235.185,169.259 235.185 C 169.056 235.185,168.889 235.852,168.889 236.667 C 168.889 237.481,168.722 238.148,168.519 238.148 C 168.315 238.148,168.148 238.731,168.148 239.444 C 168.148 240.350,167.981 240.741,167.593 240.741 C 167.284 240.741,167.037 241.070,167.037 241.481 C 167.037 241.889,166.870 242.222,166.667 242.222 C 166.463 242.222,166.296 242.556,166.296 242.963 C 166.296 243.370,166.130 243.704,165.926 243.704 C 165.722 243.704,165.556 244.037,165.556 244.444 C 165.556 244.852,165.389 245.185,165.185 245.185 C 164.981 245.185,164.815 245.565,164.815 246.029 C 164.815 246.494,164.481 247.114,164.074 247.407 C 163.667 247.701,163.333 248.160,163.333 248.427 C 163.333 248.900,160.981 251.481,160.551 251.481 C 160.178 251.481,158.519 253.282,158.519 253.687 C 158.519 253.900,158.222 254.074,157.860 254.074 C 157.497 254.074,156.960 254.407,156.667 254.815 C 156.373 255.222,155.873 255.556,155.556 255.556 C 155.238 255.556,154.738 255.889,154.444 256.296 C 154.151 256.704,153.531 257.037,153.066 257.037 C 152.602 257.037,152.222 257.204,152.222 257.407 C 152.222 257.611,151.722 257.778,151.111 257.778 C 150.500 257.778,150.000 257.944,150.000 258.148 C 150.000 258.352,149.500 258.519,148.889 258.519 C 148.278 258.519,147.778 258.685,147.778 258.889 C 147.778 259.103,146.605 259.259,145.000 259.259 C 143.395 259.259,142.222 259.416,142.222 259.630 C 142.222 259.833,141.306 260.000,140.185 260.000 C 139.065 260.000,138.148 259.833,138.148 259.630 C 138.148 259.418,137.037 259.259,135.556 259.259 C 134.074 259.259,132.963 259.101,132.963 258.889 C 132.963 258.685,132.380 258.519,131.667 258.519 C 130.954 258.519,130.370 258.352,130.370 258.148 C 130.370 257.944,129.870 257.778,129.259 257.778 C 128.648 257.778,128.148 257.611,128.148 257.407 C 128.148 257.204,127.815 257.037,127.407 257.037 C 127.000 257.037,126.667 256.870,126.667 256.667 C 126.667 256.463,126.333 256.296,125.926 256.296 C 125.519 256.296,125.185 256.130,125.185 255.926 C 125.185 255.722,124.805 255.556,124.341 255.556 C 123.877 255.556,123.257 255.222,122.963 254.815 C 122.669 254.407,122.133 254.074,121.770 254.074 C 121.408 254.074,121.111 253.903,121.111 253.694 C 121.111 253.301,117.961 250.000,117.586 250.000 C 117.127 250.000,115.556 248.149,115.556 247.609 C 115.556 247.295,115.389 247.037,115.185 247.037 C 114.981 247.037,114.815 246.787,114.815 246.481 C 114.815 246.176,114.648 245.926,114.444 245.926 C 114.241 245.926,114.074 245.629,114.074 245.267 C 114.074 244.905,113.741 244.368,113.333 244.074 C 112.926 243.780,112.593 243.244,112.593 242.881 C 112.593 242.519,112.426 242.222,112.222 242.222 C 112.019 242.222,111.852 241.722,111.852 241.111 C 111.852 240.500,111.685 240.000,111.481 240.000 C 111.278 240.000,111.111 239.417,111.111 238.704 C 111.111 237.798,110.944 237.407,110.556 237.407 C 110.136 237.407,110.000 236.955,110.000 235.556 C 110.000 234.537,109.833 233.704,109.630 233.704 C 109.061 233.704,109.150 227.520,109.722 227.253 C 110.093 227.080,110.093 226.994,109.722 226.821 C 109.173 226.565,109.095 225.185,109.630 225.185 C 109.833 225.185,110.000 224.269,110.000 223.148 C 110.000 221.584,110.129 221.111,110.556 221.111 C 110.926 221.111,111.111 220.741,111.111 220.000 C 111.111 219.389,111.278 218.889,111.481 218.889 C 111.685 218.889,111.852 218.306,111.852 217.593 C 111.852 216.880,112.019 216.296,112.222 216.296 C 112.426 216.296,112.593 215.963,112.593 215.556 C 112.593 215.148,112.759 214.815,112.963 214.815 C 113.167 214.815,113.333 214.548,113.333 214.223 C 113.333 213.897,113.833 213.163,114.444 212.593 C 115.056 212.022,115.556 211.281,115.556 210.946 C 115.556 210.372,117.114 208.519,117.596 208.519 C 117.719 208.519,118.800 207.519,120.000 206.296 C 121.200 205.074,122.440 204.074,122.757 204.074 C 123.074 204.074,123.333 203.896,123.333 203.677 C 123.333 203.024,124.339 202.222,125.159 202.222 C 125.581 202.222,125.926 202.056,125.926 201.852 C 125.926 201.648,126.259 201.481,126.667 201.481 C 127.074 201.481,127.407 201.315,127.407 201.111 C 127.407 200.907,127.741 200.741,128.148 200.741 C 128.556 200.741,128.889 200.574,128.889 200.370 C 128.889 200.167,129.389 200.000,130.000 200.000 C 130.611 200.000,131.111 199.833,131.111 199.630 C 131.111 199.426,131.861 199.259,132.778 199.259 C 133.694 199.259,134.444 199.093,134.444 198.889 C 134.444 198.656,136.790 198.519,140.741 198.519 C 144.691 198.519,147.037 198.656,147.037 198.889 "
              stroke="none" fill="#fbfbfb" fill-rule="evenodd"></path>
        <path id="path1"
              d="M185.864 1.094 C 185.796 1.288,183.866 1.474,181.574 1.507 C 179.282 1.540,177.407 1.715,177.407 1.895 C 177.407 2.075,175.991 2.222,174.259 2.222 C 172.407 2.222,171.111 2.375,171.111 2.593 C 171.111 2.802,170.062 2.963,168.704 2.963 C 166.811 2.963,166.296 3.082,166.296 3.519 C 166.296 3.951,165.802 4.074,164.074 4.074 C 162.840 4.074,161.852 4.239,161.852 4.444 C 161.852 4.648,161.102 4.815,160.185 4.815 C 159.269 4.815,158.519 4.981,158.519 5.185 C 158.519 5.389,157.685 5.556,156.667 5.556 C 155.648 5.556,154.815 5.722,154.815 5.926 C 154.815 6.130,154.065 6.296,153.148 6.296 C 152.231 6.296,151.481 6.463,151.481 6.667 C 151.481 6.870,150.815 7.037,150.000 7.037 C 149.185 7.037,148.519 7.204,148.519 7.407 C 148.519 7.611,147.769 7.778,146.852 7.778 C 145.935 7.778,145.185 7.944,145.185 8.148 C 145.185 8.352,144.685 8.519,144.074 8.519 C 143.463 8.519,142.963 8.685,142.963 8.889 C 142.963 9.093,142.463 9.259,141.852 9.259 C 141.241 9.259,140.741 9.426,140.741 9.630 C 140.741 9.833,139.991 10.000,139.074 10.000 C 137.840 10.000,137.407 10.144,137.407 10.556 C 137.407 10.864,137.078 11.111,136.667 11.111 C 136.259 11.111,135.926 11.278,135.926 11.481 C 135.926 11.685,135.426 11.852,134.815 11.852 C 134.204 11.852,133.704 12.019,133.704 12.222 C 133.704 12.426,133.120 12.593,132.407 12.593 C 131.694 12.593,131.111 12.759,131.111 12.963 C 131.111 13.167,130.611 13.333,130.000 13.333 C 129.389 13.333,128.889 13.500,128.889 13.704 C 128.889 13.907,128.556 14.074,128.148 14.074 C 127.741 14.074,127.407 14.241,127.407 14.444 C 127.407 14.648,126.907 14.815,126.296 14.815 C 125.685 14.815,125.185 14.981,125.185 15.185 C 125.185 15.389,124.769 15.556,124.259 15.556 C 123.750 15.556,123.333 15.722,123.333 15.926 C 123.333 16.130,122.833 16.296,122.222 16.296 C 121.611 16.296,121.111 16.463,121.111 16.667 C 121.111 16.870,120.778 17.037,120.370 17.037 C 119.959 17.037,119.630 17.284,119.630 17.593 C 119.630 17.901,119.300 18.148,118.889 18.148 C 118.481 18.148,118.148 18.315,118.148 18.519 C 118.148 18.722,117.731 18.889,117.222 18.889 C 116.713 18.889,116.296 19.056,116.296 19.259 C 116.296 19.463,115.963 19.630,115.556 19.630 C 115.148 19.630,114.815 19.796,114.815 20.000 C 114.815 20.204,114.315 20.370,113.704 20.370 C 113.093 20.370,112.593 20.537,112.593 20.741 C 112.593 20.944,112.259 21.111,111.852 21.111 C 111.444 21.111,111.111 21.278,111.111 21.481 C 111.111 21.685,110.694 21.852,110.185 21.852 C 109.676 21.852,109.259 22.019,109.259 22.222 C 109.259 22.426,108.963 22.593,108.600 22.593 C 108.238 22.593,107.701 22.926,107.407 23.333 C 107.114 23.741,106.577 24.074,106.215 24.074 C 105.852 24.074,105.556 24.324,105.556 24.630 C 105.556 24.938,105.226 25.185,104.815 25.185 C 104.407 25.185,104.074 25.352,104.074 25.556 C 104.074 25.759,103.657 25.926,103.148 25.926 C 102.639 25.926,102.222 26.093,102.222 26.296 C 102.222 26.500,101.926 26.667,101.563 26.667 C 101.201 26.667,100.664 27.000,100.370 27.407 C 100.077 27.815,99.540 28.148,99.177 28.148 C 98.815 28.148,98.519 28.315,98.519 28.519 C 98.519 28.722,98.185 28.889,97.778 28.889 C 97.370 28.889,97.037 29.056,97.037 29.259 C 97.037 29.463,96.787 29.630,96.481 29.630 C 96.176 29.630,95.926 29.796,95.926 30.000 C 95.926 30.204,95.593 30.370,95.185 30.370 C 94.778 30.370,94.444 30.537,94.444 30.741 C 94.444 30.944,94.183 31.111,93.862 31.111 C 93.285 31.111,92.222 31.951,92.222 32.407 C 92.222 32.864,91.160 33.704,90.582 33.704 C 90.262 33.704,90.000 33.870,90.000 34.074 C 90.000 34.278,89.750 34.444,89.444 34.444 C 89.139 34.444,88.886 34.653,88.883 34.907 C 88.879 35.271,88.815 35.273,88.589 34.916 C 88.376 34.581,88.160 34.655,87.772 35.193 C 87.481 35.596,87.014 35.926,86.734 35.926 C 86.453 35.926,85.756 36.426,85.185 37.037 C 84.614 37.648,83.881 38.148,83.555 38.148 C 83.229 38.148,82.963 38.315,82.963 38.519 C 82.963 38.722,82.713 38.889,82.407 38.889 C 82.102 38.889,81.852 39.139,81.852 39.444 C 81.852 39.750,81.589 40.000,81.267 40.000 C 80.946 40.000,80.042 40.667,79.259 41.481 C 78.476 42.296,77.640 42.963,77.400 42.963 C 77.160 42.963,76.497 43.463,75.926 44.074 C 75.355 44.685,74.776 45.185,74.640 45.185 C 74.247 45.185,73.333 46.203,73.333 46.640 C 73.333 46.858,73.070 47.037,72.749 47.037 C 72.427 47.037,71.524 47.704,70.741 48.519 C 69.958 49.333,69.054 50.000,68.733 50.000 C 68.227 50.000,68.010 50.374,68.079 51.127 C 68.089 51.237,67.778 51.352,67.388 51.381 C 66.738 51.430,64.815 53.021,64.815 53.510 C 64.815 53.781,60.822 57.778,60.551 57.778 C 60.283 57.778,57.778 60.283,57.778 60.551 C 57.778 60.842,53.771 64.815,53.477 64.815 C 53.025 64.815,51.866 66.390,52.072 66.724 C 52.185 66.906,52.140 67.032,51.972 67.002 C 51.193 66.867,50.741 67.084,50.741 67.593 C 50.741 67.898,50.574 68.148,50.370 68.148 C 50.167 68.148,50.000 68.411,50.000 68.733 C 50.000 69.054,49.333 69.958,48.519 70.741 C 47.704 71.524,47.037 72.427,47.037 72.749 C 47.037 73.070,46.858 73.333,46.640 73.333 C 46.203 73.333,45.185 74.247,45.185 74.640 C 45.185 74.776,44.685 75.355,44.074 75.926 C 43.463 76.497,42.963 77.160,42.963 77.400 C 42.963 77.640,42.296 78.476,41.481 79.259 C 40.667 80.042,40.000 80.946,40.000 81.267 C 40.000 81.589,39.750 81.852,39.444 81.852 C 39.139 81.852,38.889 82.102,38.889 82.407 C 38.889 82.713,38.722 82.963,38.519 82.963 C 38.315 82.963,38.148 83.229,38.148 83.555 C 38.148 83.881,37.648 84.614,37.037 85.185 C 36.426 85.756,35.926 86.413,35.926 86.646 C 35.926 86.878,35.593 87.426,35.185 87.863 C 34.778 88.300,34.444 88.923,34.444 89.247 C 34.444 89.571,34.111 90.077,33.704 90.370 C 33.296 90.664,32.963 91.201,32.963 91.563 C 32.963 91.926,32.784 92.222,32.566 92.222 C 31.976 92.222,31.111 93.197,31.111 93.862 C 31.111 94.183,30.944 94.444,30.741 94.444 C 30.537 94.444,30.370 94.778,30.370 95.185 C 30.370 95.593,30.204 95.926,30.000 95.926 C 29.796 95.926,29.630 96.176,29.630 96.481 C 29.630 96.787,29.463 97.037,29.259 97.037 C 29.056 97.037,28.889 97.370,28.889 97.778 C 28.889 98.185,28.722 98.519,28.519 98.519 C 28.315 98.519,28.148 98.815,28.148 99.177 C 28.148 99.540,27.815 100.077,27.407 100.370 C 27.000 100.664,26.667 101.201,26.667 101.563 C 26.667 101.926,26.500 102.222,26.296 102.222 C 26.093 102.222,25.926 102.639,25.926 103.148 C 25.926 103.657,25.759 104.074,25.556 104.074 C 25.352 104.074,25.185 104.407,25.185 104.815 C 25.185 105.226,24.938 105.556,24.630 105.556 C 24.321 105.556,24.074 105.885,24.074 106.296 C 24.074 106.704,23.907 107.037,23.704 107.037 C 23.500 107.037,23.333 107.334,23.333 107.696 C 23.333 108.058,23.000 108.595,22.593 108.889 C 22.185 109.183,21.852 109.803,21.852 110.267 C 21.852 110.731,21.685 111.111,21.481 111.111 C 21.278 111.111,21.111 111.574,21.111 112.140 C 21.111 112.745,20.805 113.390,20.370 113.704 C 19.935 114.017,19.630 114.662,19.630 115.267 C 19.630 115.833,19.463 116.296,19.259 116.296 C 19.056 116.296,18.889 116.713,18.889 117.222 C 18.889 117.731,18.722 118.148,18.519 118.148 C 18.315 118.148,18.148 118.481,18.148 118.889 C 18.148 119.300,17.901 119.630,17.593 119.630 C 17.284 119.630,17.037 119.959,17.037 120.370 C 17.037 120.778,16.870 121.111,16.667 121.111 C 16.463 121.111,16.296 121.611,16.296 122.222 C 16.296 122.833,16.130 123.333,15.926 123.333 C 15.722 123.333,15.556 123.750,15.556 124.259 C 15.556 124.769,15.389 125.185,15.185 125.185 C 14.981 125.185,14.815 125.685,14.815 126.296 C 14.815 126.907,14.648 127.407,14.444 127.407 C 14.241 127.407,14.074 127.741,14.074 128.148 C 14.074 128.556,13.907 128.889,13.704 128.889 C 13.500 128.889,13.333 129.389,13.333 130.000 C 13.333 130.611,13.167 131.111,12.963 131.111 C 12.759 131.111,12.593 131.694,12.593 132.407 C 12.593 133.120,12.426 133.704,12.222 133.704 C 12.019 133.704,11.852 134.037,11.852 134.444 C 11.852 134.852,11.685 135.185,11.481 135.185 C 11.278 135.185,11.111 135.685,11.111 136.296 C 11.111 137.037,10.926 137.407,10.556 137.407 C 10.144 137.407,10.000 137.840,10.000 139.074 C 10.000 139.991,9.833 140.741,9.630 140.741 C 9.426 140.741,9.259 141.407,9.259 142.222 C 9.259 143.037,9.093 143.704,8.889 143.704 C 8.685 143.704,8.519 144.037,8.519 144.444 C 8.519 144.852,8.352 145.185,8.148 145.185 C 7.944 145.185,7.778 145.935,7.778 146.852 C 7.778 147.769,7.611 148.519,7.407 148.519 C 7.204 148.519,7.037 149.185,7.037 150.000 C 7.037 150.815,6.870 151.481,6.667 151.481 C 6.463 151.481,6.296 152.231,6.296 153.148 C 6.296 154.065,6.130 154.815,5.926 154.815 C 5.722 154.815,5.556 155.648,5.556 156.667 C 5.556 157.685,5.389 158.519,5.185 158.519 C 4.981 158.519,4.815 159.435,4.815 160.556 C 4.815 161.676,4.648 162.593,4.444 162.593 C 4.241 162.593,4.074 163.426,4.074 164.444 C 4.074 165.844,3.938 166.296,3.519 166.296 C 3.082 166.296,2.963 166.811,2.963 168.704 C 2.963 170.062,2.802 171.111,2.593 171.111 C 2.375 171.111,2.222 172.407,2.222 174.259 C 2.222 176.111,2.070 177.407,1.852 177.407 C 1.626 177.407,1.481 179.074,1.481 181.667 C 1.481 184.259,1.337 185.926,1.111 185.926 C 0.871 185.926,0.741 190.864,0.741 200.000 C 0.741 209.136,0.871 214.074,1.111 214.074 C 1.337 214.074,1.481 215.741,1.481 218.333 C 1.481 220.926,1.626 222.593,1.852 222.593 C 2.070 222.593,2.222 223.889,2.222 225.741 C 2.222 227.593,2.375 228.889,2.593 228.889 C 2.802 228.889,2.963 229.938,2.963 231.296 C 2.963 233.189,3.082 233.704,3.519 233.704 C 3.951 233.704,4.074 234.198,4.074 235.926 C 4.074 237.160,4.239 238.148,4.444 238.148 C 4.648 238.148,4.815 239.065,4.815 240.185 C 4.815 241.306,4.981 242.222,5.185 242.222 C 5.389 242.222,5.556 242.889,5.556 243.704 C 5.556 244.519,5.722 245.185,5.926 245.185 C 6.130 245.185,6.296 245.935,6.296 246.852 C 6.296 247.769,6.463 248.519,6.667 248.519 C 6.870 248.519,7.037 249.185,7.037 250.000 C 7.037 250.815,7.204 251.481,7.407 251.481 C 7.611 251.481,7.778 252.231,7.778 253.148 C 7.778 254.065,7.944 254.815,8.148 254.815 C 8.352 254.815,8.519 255.315,8.519 255.926 C 8.519 256.537,8.685 257.037,8.889 257.037 C 9.093 257.037,9.259 257.537,9.259 258.148 C 9.259 258.759,9.426 259.259,9.630 259.259 C 9.833 259.259,10.000 259.843,10.000 260.556 C 10.000 261.461,10.168 261.852,10.556 261.852 C 10.926 261.852,11.111 262.222,11.111 262.963 C 11.111 263.574,11.278 264.074,11.481 264.074 C 11.685 264.074,11.852 264.574,11.852 265.185 C 11.852 265.796,12.019 266.296,12.222 266.296 C 12.426 266.296,12.593 266.880,12.593 267.593 C 12.593 268.306,12.759 268.889,12.963 268.889 C 13.167 268.889,13.333 269.389,13.333 270.000 C 13.333 270.611,13.500 271.111,13.704 271.111 C 13.907 271.111,14.074 271.444,14.074 271.852 C 14.074 272.259,14.241 272.593,14.444 272.593 C 14.648 272.593,14.815 273.176,14.815 273.889 C 14.815 274.602,14.981 275.185,15.185 275.185 C 15.389 275.185,15.556 275.519,15.556 275.926 C 15.556 276.333,15.722 276.667,15.926 276.667 C 16.130 276.667,16.296 277.167,16.296 277.778 C 16.296 278.389,16.463 278.889,16.667 278.889 C 16.870 278.889,17.037 279.222,17.037 279.630 C 17.037 280.041,17.284 280.370,17.593 280.370 C 17.901 280.370,18.148 280.700,18.148 281.111 C 18.148 281.519,18.315 281.852,18.519 281.852 C 18.722 281.852,18.889 282.269,18.889 282.778 C 18.889 283.287,19.056 283.704,19.259 283.704 C 19.463 283.704,19.630 284.037,19.630 284.444 C 19.630 284.852,19.796 285.185,20.000 285.185 C 20.204 285.185,20.370 285.685,20.370 286.296 C 20.370 286.907,20.537 287.407,20.741 287.407 C 20.944 287.407,21.111 287.741,21.111 288.148 C 21.111 288.556,21.278 288.889,21.481 288.889 C 21.685 288.889,21.852 289.306,21.852 289.815 C 21.852 290.324,22.019 290.741,22.222 290.741 C 22.426 290.741,22.593 291.037,22.593 291.400 C 22.593 291.762,22.926 292.299,23.333 292.593 C 23.741 292.886,24.074 293.423,24.074 293.785 C 24.074 294.148,24.324 294.444,24.630 294.444 C 24.938 294.444,25.185 294.774,25.185 295.185 C 25.185 295.593,25.352 295.926,25.556 295.926 C 25.759 295.926,25.926 296.343,25.926 296.852 C 25.926 297.361,26.093 297.778,26.296 297.778 C 26.500 297.778,26.667 298.074,26.667 298.437 C 26.667 298.799,27.000 299.336,27.407 299.630 C 27.815 299.923,28.148 300.460,28.148 300.823 C 28.148 301.185,28.315 301.481,28.519 301.481 C 28.722 301.481,28.889 301.815,28.889 302.222 C 28.889 302.630,29.056 302.963,29.259 302.963 C 29.463 302.963,29.630 303.213,29.630 303.519 C 29.630 303.824,29.796 304.074,30.000 304.074 C 30.204 304.074,30.370 304.407,30.370 304.815 C 30.370 305.222,30.537 305.556,30.741 305.556 C 30.944 305.556,31.111 305.817,31.111 306.138 C 31.111 306.803,31.976 307.778,32.566 307.778 C 32.784 307.778,32.963 308.074,32.963 308.437 C 32.963 308.799,33.296 309.336,33.704 309.630 C 34.111 309.923,34.444 310.377,34.444 310.637 C 34.444 310.898,34.611 311.111,34.815 311.111 C 35.019 311.111,35.185 311.444,35.185 311.852 C 35.185 312.259,35.352 312.593,35.556 312.593 C 35.759 312.593,35.926 312.859,35.926 313.185 C 35.926 313.510,36.426 314.244,37.037 314.815 C 37.648 315.386,38.148 316.119,38.148 316.445 C 38.148 316.771,38.315 317.037,38.519 317.037 C 38.722 317.037,38.889 317.287,38.889 317.593 C 38.889 317.898,39.139 318.148,39.444 318.148 C 39.750 318.148,40.000 318.415,40.000 318.740 C 40.000 319.066,40.500 319.800,41.111 320.370 C 41.722 320.941,42.222 321.608,42.222 321.852 C 42.222 322.096,42.722 322.762,43.333 323.333 C 43.944 323.904,44.444 324.479,44.444 324.610 C 44.444 325.001,46.231 326.667,46.650 326.667 C 46.863 326.667,47.037 326.930,47.037 327.251 C 47.037 327.573,47.704 328.476,48.519 329.259 C 49.333 330.042,50.000 330.946,50.000 331.267 C 50.000 331.589,50.167 331.852,50.370 331.852 C 50.574 331.852,50.741 332.024,50.741 332.235 C 50.741 332.627,53.145 335.185,53.514 335.185 C 53.783 335.185,57.778 339.180,57.778 339.449 C 57.778 339.717,60.283 342.222,60.551 342.222 C 60.822 342.222,64.815 346.219,64.815 346.490 C 64.815 346.956,66.672 348.519,67.226 348.519 C 67.552 348.519,68.800 349.519,70.000 350.741 C 71.200 351.963,72.440 352.963,72.757 352.963 C 73.074 352.963,73.333 353.142,73.333 353.360 C 73.333 353.793,74.246 354.815,74.632 354.815 C 74.765 354.815,75.513 355.481,76.296 356.296 C 77.079 357.111,77.916 357.778,78.156 357.778 C 78.395 357.778,79.059 358.278,79.630 358.889 C 80.200 359.500,80.934 360.000,81.260 360.000 C 81.585 360.000,81.852 360.250,81.852 360.556 C 81.852 360.861,82.102 361.111,82.407 361.111 C 82.713 361.111,82.963 361.278,82.963 361.481 C 82.963 361.685,83.229 361.852,83.555 361.852 C 83.881 361.852,84.614 362.352,85.185 362.963 C 85.756 363.574,86.453 364.074,86.734 364.074 C 87.014 364.074,87.484 364.407,87.778 364.815 C 88.071 365.222,88.692 365.556,89.156 365.556 C 89.620 365.556,90.000 365.722,90.000 365.926 C 90.000 366.130,90.262 366.296,90.582 366.296 C 91.160 366.296,92.222 367.136,92.222 367.593 C 92.222 368.049,93.285 368.889,93.862 368.889 C 94.183 368.889,94.444 369.056,94.444 369.259 C 94.444 369.463,94.778 369.630,95.185 369.630 C 95.593 369.630,95.926 369.796,95.926 370.000 C 95.926 370.204,96.176 370.370,96.481 370.370 C 96.787 370.370,97.037 370.537,97.037 370.741 C 97.037 370.944,97.370 371.111,97.778 371.111 C 98.185 371.111,98.519 371.278,98.519 371.481 C 98.519 371.685,98.815 371.852,99.177 371.852 C 99.540 371.852,100.077 372.185,100.370 372.593 C 100.664 373.000,101.201 373.333,101.563 373.333 C 101.926 373.333,102.222 373.500,102.222 373.704 C 102.222 373.907,102.639 374.074,103.148 374.074 C 103.724 374.074,104.074 374.284,104.074 374.630 C 104.074 374.938,104.403 375.185,104.815 375.185 C 105.222 375.185,105.556 375.352,105.556 375.556 C 105.556 375.759,105.889 375.926,106.296 375.926 C 106.704 375.926,107.037 376.093,107.037 376.296 C 107.037 376.500,107.334 376.667,107.696 376.667 C 108.058 376.667,108.595 377.000,108.889 377.407 C 109.183 377.815,109.803 378.148,110.267 378.148 C 110.731 378.148,111.111 378.315,111.111 378.519 C 111.111 378.722,111.574 378.889,112.140 378.889 C 112.745 378.889,113.390 379.195,113.704 379.630 C 114.017 380.065,114.662 380.370,115.267 380.370 C 115.833 380.370,116.296 380.537,116.296 380.741 C 116.296 380.944,116.713 381.111,117.222 381.111 C 117.731 381.111,118.148 381.278,118.148 381.481 C 118.148 381.685,118.481 381.852,118.889 381.852 C 119.300 381.852,119.630 382.099,119.630 382.407 C 119.630 382.716,119.959 382.963,120.370 382.963 C 120.778 382.963,121.111 383.130,121.111 383.333 C 121.111 383.537,121.611 383.704,122.222 383.704 C 122.833 383.704,123.333 383.870,123.333 384.074 C 123.333 384.278,123.750 384.444,124.259 384.444 C 124.769 384.444,125.185 384.611,125.185 384.815 C 125.185 385.019,125.685 385.185,126.296 385.185 C 126.907 385.185,127.407 385.352,127.407 385.556 C 127.407 385.759,127.741 385.926,128.148 385.926 C 128.556 385.926,128.889 386.093,128.889 386.296 C 128.889 386.500,129.389 386.667,130.000 386.667 C 130.611 386.667,131.111 386.833,131.111 387.037 C 131.111 387.241,131.694 387.407,132.407 387.407 C 133.120 387.407,133.704 387.574,133.704 387.778 C 133.704 387.981,134.037 388.148,134.444 388.148 C 134.852 388.148,135.185 388.315,135.185 388.519 C 135.185 388.722,135.852 388.889,136.667 388.889 C 137.737 388.889,138.148 389.043,138.148 389.444 C 138.148 389.832,138.539 390.000,139.444 390.000 C 140.157 390.000,140.741 390.167,140.741 390.370 C 140.741 390.574,141.241 390.741,141.852 390.741 C 142.463 390.741,142.963 390.907,142.963 391.111 C 142.963 391.315,143.463 391.481,144.074 391.481 C 144.685 391.481,145.185 391.648,145.185 391.852 C 145.185 392.056,145.935 392.222,146.852 392.222 C 147.769 392.222,148.519 392.389,148.519 392.593 C 148.519 392.796,149.185 392.963,150.000 392.963 C 150.815 392.963,151.481 393.130,151.481 393.333 C 151.481 393.537,152.231 393.704,153.148 393.704 C 154.065 393.704,154.815 393.870,154.815 394.074 C 154.815 394.278,155.481 394.444,156.296 394.444 C 157.111 394.444,157.778 394.611,157.778 394.815 C 157.778 395.024,158.827 395.185,160.185 395.185 C 161.543 395.185,162.593 395.347,162.593 395.556 C 162.593 395.759,163.426 395.926,164.444 395.926 C 165.844 395.926,166.296 396.062,166.296 396.481 C 166.296 396.926,166.852 397.037,169.074 397.037 C 170.679 397.037,171.852 397.193,171.852 397.407 C 171.852 397.621,173.025 397.778,174.630 397.778 C 176.235 397.778,177.407 397.934,177.407 398.148 C 177.407 398.374,179.074 398.519,181.667 398.519 C 184.259 398.519,185.926 398.663,185.926 398.889 C 185.926 399.129,190.864 399.259,200.000 399.259 C 209.136 399.259,214.074 399.129,214.074 398.889 C 214.074 398.662,215.864 398.519,218.704 398.519 C 221.543 398.519,223.333 398.375,223.333 398.148 C 223.333 397.934,224.506 397.778,226.111 397.778 C 227.716 397.778,228.889 397.621,228.889 397.407 C 228.889 397.198,229.938 397.037,231.296 397.037 C 233.189 397.037,233.704 396.918,233.704 396.481 C 233.704 396.049,234.198 395.926,235.926 395.926 C 237.160 395.926,238.148 395.761,238.148 395.556 C 238.148 395.352,239.065 395.185,240.185 395.185 C 241.306 395.185,242.222 395.019,242.222 394.815 C 242.222 394.611,242.889 394.444,243.704 394.444 C 244.519 394.444,245.185 394.278,245.185 394.074 C 245.185 393.870,245.935 393.704,246.852 393.704 C 247.769 393.704,248.519 393.537,248.519 393.333 C 248.519 393.130,249.185 392.963,250.000 392.963 C 250.815 392.963,251.481 392.796,251.481 392.593 C 251.481 392.389,252.231 392.222,253.148 392.222 C 254.065 392.222,254.815 392.056,254.815 391.852 C 254.815 391.648,255.315 391.481,255.926 391.481 C 256.537 391.481,257.037 391.315,257.037 391.111 C 257.037 390.907,257.537 390.741,258.148 390.741 C 258.759 390.741,259.259 390.574,259.259 390.370 C 259.259 390.167,260.009 390.000,260.926 390.000 C 262.160 390.000,262.593 389.856,262.593 389.444 C 262.593 389.074,262.963 388.889,263.704 388.889 C 264.315 388.889,264.815 388.722,264.815 388.519 C 264.815 388.315,265.315 388.148,265.926 388.148 C 266.537 388.148,267.037 387.981,267.037 387.778 C 267.037 387.574,267.454 387.407,267.963 387.407 C 268.472 387.407,268.889 387.241,268.889 387.037 C 268.889 386.833,269.389 386.667,270.000 386.667 C 270.611 386.667,271.111 386.500,271.111 386.296 C 271.111 386.093,271.444 385.926,271.852 385.926 C 272.259 385.926,272.593 385.759,272.593 385.556 C 272.593 385.352,273.176 385.185,273.889 385.185 C 274.602 385.185,275.185 385.019,275.185 384.815 C 275.185 384.611,275.519 384.444,275.926 384.444 C 276.333 384.444,276.667 384.278,276.667 384.074 C 276.667 383.870,277.167 383.704,277.778 383.704 C 278.389 383.704,278.889 383.537,278.889 383.333 C 278.889 383.130,279.222 382.963,279.630 382.963 C 280.041 382.963,280.370 382.716,280.370 382.407 C 280.370 382.099,280.700 381.852,281.111 381.852 C 281.519 381.852,281.852 381.685,281.852 381.481 C 281.852 381.278,282.435 381.111,283.148 381.111 C 283.861 381.111,284.444 380.944,284.444 380.741 C 284.444 380.537,284.778 380.370,285.185 380.370 C 285.593 380.370,285.926 380.204,285.926 380.000 C 285.926 379.796,286.259 379.630,286.667 379.630 C 287.074 379.630,287.407 379.463,287.407 379.259 C 287.407 379.056,287.741 378.889,288.148 378.889 C 288.556 378.889,288.889 378.722,288.889 378.519 C 288.889 378.315,289.306 378.148,289.815 378.148 C 290.324 378.148,290.741 377.981,290.741 377.778 C 290.741 377.574,291.037 377.407,291.400 377.407 C 291.762 377.407,292.299 377.074,292.593 376.667 C 292.886 376.259,293.423 375.926,293.785 375.926 C 294.148 375.926,294.444 375.759,294.444 375.556 C 294.444 375.352,294.778 375.185,295.185 375.185 C 295.597 375.185,295.926 374.938,295.926 374.630 C 295.926 374.284,296.276 374.074,296.852 374.074 C 297.361 374.074,297.778 373.907,297.778 373.704 C 297.778 373.500,298.074 373.333,298.437 373.333 C 298.799 373.333,299.336 373.000,299.630 372.593 C 299.923 372.185,300.460 371.852,300.823 371.852 C 301.185 371.852,301.481 371.685,301.481 371.481 C 301.481 371.278,301.815 371.111,302.222 371.111 C 302.630 371.111,302.963 370.944,302.963 370.741 C 302.963 370.537,303.213 370.370,303.519 370.370 C 303.824 370.370,304.074 370.204,304.074 370.000 C 304.074 369.796,304.407 369.630,304.815 369.630 C 305.222 369.630,305.556 369.463,305.556 369.259 C 305.556 369.056,305.817 368.889,306.138 368.889 C 306.803 368.889,307.778 368.024,307.778 367.434 C 307.778 367.216,308.074 367.037,308.437 367.037 C 308.799 367.037,309.336 366.704,309.630 366.296 C 309.923 365.889,310.507 365.556,310.926 365.556 C 311.345 365.556,311.929 365.222,312.222 364.815 C 312.516 364.407,312.986 364.074,313.266 364.074 C 313.547 364.074,314.244 363.574,314.815 362.963 C 315.386 362.352,316.119 361.852,316.445 361.852 C 316.771 361.852,317.037 361.685,317.037 361.481 C 317.037 361.278,317.287 361.111,317.593 361.111 C 317.898 361.111,318.148 360.933,318.148 360.714 C 318.148 360.156,319.109 359.259,319.707 359.259 C 319.982 359.259,320.447 358.926,320.741 358.519 C 321.034 358.111,321.504 357.778,321.785 357.778 C 322.066 357.778,322.762 357.278,323.333 356.667 C 323.904 356.056,324.554 355.556,324.778 355.556 C 325.002 355.556,325.185 355.389,325.185 355.185 C 325.185 354.981,325.447 354.815,325.767 354.815 C 326.335 354.815,327.407 353.978,327.407 353.535 C 327.407 353.052,330.757 350.000,331.287 350.000 C 331.597 350.000,331.852 349.833,331.852 349.630 C 331.852 349.426,332.024 349.259,332.235 349.259 C 332.627 349.259,335.185 346.855,335.185 346.486 C 335.185 346.217,339.180 342.222,339.449 342.222 C 339.717 342.222,342.222 339.717,342.222 339.449 C 342.222 339.178,346.219 335.185,346.490 335.185 C 347.023 335.185,348.519 333.286,348.519 332.609 C 348.519 332.168,348.761 331.852,349.101 331.852 C 349.772 331.852,350.741 330.985,350.741 330.384 C 350.741 329.961,353.136 327.407,353.533 327.407 C 353.977 327.407,354.815 326.336,354.815 325.767 C 354.815 325.447,354.981 325.185,355.185 325.185 C 355.389 325.185,355.556 325.002,355.556 324.778 C 355.556 324.554,356.056 323.904,356.667 323.333 C 357.278 322.762,357.778 322.096,357.778 321.852 C 357.778 321.608,358.278 320.941,358.889 320.370 C 359.500 319.800,360.000 319.066,360.000 318.740 C 360.000 318.415,360.250 318.148,360.556 318.148 C 360.861 318.148,361.111 317.898,361.111 317.593 C 361.111 317.287,361.278 317.037,361.481 317.037 C 361.685 317.037,361.852 316.771,361.852 316.445 C 361.852 316.119,362.352 315.386,362.963 314.815 C 363.574 314.244,364.074 313.547,364.074 313.266 C 364.074 312.986,364.407 312.516,364.815 312.222 C 365.222 311.929,365.556 311.345,365.556 310.926 C 365.556 310.507,365.889 309.923,366.296 309.630 C 366.704 309.336,367.037 308.799,367.037 308.437 C 367.037 308.074,367.216 307.778,367.434 307.778 C 367.992 307.778,368.889 306.817,368.889 306.219 C 368.889 305.944,369.222 305.479,369.630 305.185 C 370.037 304.892,370.370 304.271,370.370 303.807 C 370.370 303.343,370.537 302.963,370.741 302.963 C 370.944 302.963,371.111 302.630,371.111 302.222 C 371.111 301.815,371.278 301.481,371.481 301.481 C 371.685 301.481,371.852 301.148,371.852 300.741 C 371.852 300.333,372.019 300.000,372.222 300.000 C 372.426 300.000,372.593 299.703,372.593 299.341 C 372.593 298.979,372.926 298.442,373.333 298.148 C 373.741 297.855,374.074 297.234,374.074 296.770 C 374.074 296.267,374.298 295.926,374.630 295.926 C 374.938 295.926,375.185 295.597,375.185 295.185 C 375.185 294.778,375.352 294.444,375.556 294.444 C 375.759 294.444,375.926 294.148,375.926 293.785 C 375.926 293.423,376.259 292.886,376.667 292.593 C 377.074 292.299,377.407 291.762,377.407 291.400 C 377.407 291.037,377.574 290.741,377.778 290.741 C 377.981 290.741,378.148 290.324,378.148 289.815 C 378.148 289.306,378.315 288.889,378.519 288.889 C 378.722 288.889,378.889 288.426,378.889 287.860 C 378.889 287.255,379.195 286.610,379.630 286.296 C 380.037 286.003,380.370 285.466,380.370 285.103 C 380.370 284.741,380.537 284.444,380.741 284.444 C 380.944 284.444,381.111 283.861,381.111 283.148 C 381.111 282.435,381.278 281.852,381.481 281.852 C 381.685 281.852,381.852 281.519,381.852 281.111 C 381.852 280.700,382.099 280.370,382.407 280.370 C 382.716 280.370,382.963 280.041,382.963 279.630 C 382.963 279.222,383.130 278.889,383.333 278.889 C 383.537 278.889,383.704 278.389,383.704 277.778 C 383.704 277.167,383.870 276.667,384.074 276.667 C 384.278 276.667,384.444 276.333,384.444 275.926 C 384.444 275.519,384.611 275.185,384.815 275.185 C 385.019 275.185,385.185 274.769,385.185 274.259 C 385.185 273.750,385.352 273.333,385.556 273.333 C 385.759 273.333,385.926 272.833,385.926 272.222 C 385.926 271.611,386.093 271.111,386.296 271.111 C 386.500 271.111,386.667 270.611,386.667 270.000 C 386.667 269.389,386.833 268.889,387.037 268.889 C 387.241 268.889,387.407 268.306,387.407 267.593 C 387.407 266.880,387.574 266.296,387.778 266.296 C 387.981 266.296,388.148 265.963,388.148 265.556 C 388.148 265.148,388.315 264.815,388.519 264.815 C 388.722 264.815,388.889 264.315,388.889 263.704 C 388.889 262.963,389.074 262.593,389.444 262.593 C 389.856 262.593,390.000 262.160,390.000 260.926 C 390.000 260.009,390.167 259.259,390.370 259.259 C 390.574 259.259,390.741 258.759,390.741 258.148 C 390.741 257.537,390.907 257.037,391.111 257.037 C 391.315 257.037,391.481 256.537,391.481 255.926 C 391.481 255.315,391.648 254.815,391.852 254.815 C 392.056 254.815,392.222 253.898,392.222 252.778 C 392.222 251.657,392.389 250.741,392.593 250.741 C 392.796 250.741,392.963 250.407,392.963 250.000 C 392.963 249.593,393.130 249.259,393.333 249.259 C 393.537 249.259,393.704 248.343,393.704 247.222 C 393.704 246.102,393.870 245.185,394.074 245.185 C 394.278 245.185,394.444 244.519,394.444 243.704 C 394.444 242.889,394.611 242.222,394.815 242.222 C 395.019 242.222,395.185 241.306,395.185 240.185 C 395.185 239.065,395.352 238.148,395.556 238.148 C 395.761 238.148,395.926 237.160,395.926 235.926 C 395.926 234.198,396.049 233.704,396.481 233.704 C 396.918 233.704,397.037 233.189,397.037 231.296 C 397.037 229.938,397.198 228.889,397.407 228.889 C 397.628 228.889,397.778 227.469,397.778 225.370 C 397.778 223.272,397.927 221.852,398.148 221.852 C 398.369 221.852,398.519 220.432,398.519 218.333 C 398.519 216.235,398.668 214.815,398.889 214.815 C 399.429 214.815,399.343 211.953,398.796 211.698 C 398.426 211.525,398.426 211.438,398.796 211.265 C 399.152 211.099,399.259 208.403,399.259 199.630 C 399.259 190.856,399.152 188.160,398.796 187.994 C 398.426 187.821,398.426 187.735,398.796 187.562 C 399.345 187.305,399.424 185.926,398.889 185.926 C 398.663 185.926,398.519 184.259,398.519 181.667 C 398.519 179.074,398.374 177.407,398.148 177.407 C 397.930 177.407,397.778 176.111,397.778 174.259 C 397.778 172.407,397.625 171.111,397.407 171.111 C 397.198 171.111,397.037 170.062,397.037 168.704 C 397.037 166.811,396.918 166.296,396.481 166.296 C 396.062 166.296,395.926 165.844,395.926 164.444 C 395.926 163.426,395.759 162.593,395.556 162.593 C 395.347 162.593,395.185 161.543,395.185 160.185 C 395.185 158.827,395.024 157.778,394.815 157.778 C 394.611 157.778,394.444 157.111,394.444 156.296 C 394.444 155.481,394.278 154.815,394.074 154.815 C 393.870 154.815,393.704 154.065,393.704 153.148 C 393.704 152.231,393.537 151.481,393.333 151.481 C 393.130 151.481,392.963 150.815,392.963 150.000 C 392.963 149.185,392.796 148.519,392.593 148.519 C 392.389 148.519,392.222 147.935,392.222 147.222 C 392.222 146.509,392.056 145.926,391.852 145.926 C 391.648 145.926,391.481 145.259,391.481 144.444 C 391.481 143.630,391.315 142.963,391.111 142.963 C 390.907 142.963,390.741 142.463,390.741 141.852 C 390.741 141.241,390.574 140.741,390.370 140.741 C 390.167 140.741,390.000 139.991,390.000 139.074 C 390.000 137.840,389.856 137.407,389.444 137.407 C 389.074 137.407,388.889 137.037,388.889 136.296 C 388.889 135.685,388.722 135.185,388.519 135.185 C 388.315 135.185,388.148 134.852,388.148 134.444 C 388.148 134.037,387.981 133.704,387.778 133.704 C 387.574 133.704,387.407 133.120,387.407 132.407 C 387.407 131.694,387.241 131.111,387.037 131.111 C 386.833 131.111,386.667 130.611,386.667 130.000 C 386.667 129.389,386.500 128.889,386.296 128.889 C 386.093 128.889,385.926 128.556,385.926 128.148 C 385.926 127.741,385.759 127.407,385.556 127.407 C 385.352 127.407,385.185 126.907,385.185 126.296 C 385.185 125.685,385.019 125.185,384.815 125.185 C 384.611 125.185,384.444 124.769,384.444 124.259 C 384.444 123.750,384.278 123.333,384.074 123.333 C 383.870 123.333,383.704 122.833,383.704 122.222 C 383.704 121.611,383.537 121.111,383.333 121.111 C 383.130 121.111,382.963 120.778,382.963 120.370 C 382.963 119.959,382.716 119.630,382.407 119.630 C 382.099 119.630,381.852 119.300,381.852 118.889 C 381.852 118.481,381.685 118.148,381.481 118.148 C 381.278 118.148,381.111 117.731,381.111 117.222 C 381.111 116.713,380.944 116.296,380.741 116.296 C 380.537 116.296,380.370 115.963,380.370 115.556 C 380.370 115.148,380.204 114.815,380.000 114.815 C 379.796 114.815,379.630 114.481,379.630 114.074 C 379.630 113.667,379.463 113.333,379.259 113.333 C 379.056 113.333,378.889 112.833,378.889 112.222 C 378.889 111.611,378.722 111.111,378.519 111.111 C 378.315 111.111,378.148 110.731,378.148 110.267 C 378.148 109.803,377.815 109.183,377.407 108.889 C 377.000 108.595,376.667 108.058,376.667 107.696 C 376.667 107.334,376.500 107.037,376.296 107.037 C 376.093 107.037,375.926 106.704,375.926 106.296 C 375.926 105.889,375.759 105.556,375.556 105.556 C 375.352 105.556,375.185 105.222,375.185 104.815 C 375.185 104.403,374.938 104.074,374.630 104.074 C 374.298 104.074,374.074 103.733,374.074 103.230 C 374.074 102.766,373.741 102.145,373.333 101.852 C 372.926 101.558,372.593 101.021,372.593 100.659 C 372.593 100.297,372.426 100.000,372.222 100.000 C 372.019 100.000,371.852 99.667,371.852 99.259 C 371.852 98.852,371.685 98.519,371.481 98.519 C 371.278 98.519,371.111 98.185,371.111 97.778 C 371.111 97.370,370.944 97.037,370.741 97.037 C 370.537 97.037,370.370 96.787,370.370 96.481 C 370.370 96.176,370.204 95.926,370.000 95.926 C 369.796 95.926,369.630 95.593,369.630 95.185 C 369.630 94.778,369.463 94.444,369.259 94.444 C 369.056 94.444,368.889 94.183,368.889 93.862 C 368.889 93.197,368.024 92.222,367.434 92.222 C 367.216 92.222,367.037 91.926,367.037 91.563 C 367.037 91.201,366.704 90.664,366.296 90.370 C 365.889 90.077,365.556 89.493,365.556 89.074 C 365.556 88.655,365.222 88.071,364.815 87.778 C 364.407 87.484,364.074 87.014,364.074 86.734 C 364.074 86.453,363.574 85.756,362.963 85.185 C 362.352 84.614,361.852 83.881,361.852 83.555 C 361.852 83.229,361.685 82.963,361.481 82.963 C 361.278 82.963,361.111 82.713,361.111 82.407 C 361.111 82.102,360.861 81.852,360.556 81.852 C 360.250 81.852,360.000 81.585,360.000 81.260 C 360.000 80.934,359.500 80.200,358.889 79.630 C 358.278 79.059,357.778 78.395,357.778 78.156 C 357.778 77.916,357.111 77.079,356.296 76.296 C 355.481 75.513,354.815 74.598,354.815 74.262 C 354.815 73.673,353.988 72.593,353.538 72.593 C 353.156 72.593,348.519 67.808,348.519 67.414 C 348.519 67.207,348.352 67.037,348.148 67.037 C 347.944 67.037,347.778 66.775,347.778 66.455 C 347.778 65.889,346.941 64.815,346.500 64.815 C 346.222 64.815,342.222 60.828,342.222 60.551 C 342.222 60.283,339.717 57.778,339.449 57.778 C 339.172 57.778,335.185 53.778,335.185 53.500 C 335.185 53.059,334.111 52.222,333.545 52.222 C 333.210 52.222,332.963 51.908,332.963 51.481 C 332.963 51.070,332.716 50.741,332.407 50.741 C 332.102 50.741,331.852 50.574,331.852 50.370 C 331.852 50.167,331.597 50.000,331.287 50.000 C 330.658 50.000,327.407 46.905,327.407 46.306 C 327.407 46.097,327.111 45.926,326.748 45.926 C 326.386 45.926,325.849 45.593,325.556 45.185 C 325.262 44.778,324.875 44.444,324.696 44.444 C 324.518 44.444,323.904 43.944,323.333 43.333 C 322.762 42.722,322.066 42.222,321.785 42.222 C 321.504 42.222,321.034 41.889,320.741 41.481 C 320.447 41.074,319.982 40.741,319.707 40.741 C 319.109 40.741,318.148 39.844,318.148 39.286 C 318.148 39.067,317.898 38.889,317.593 38.889 C 317.287 38.889,317.037 38.712,317.037 38.497 C 317.037 38.281,316.880 38.202,316.688 38.320 C 316.496 38.439,315.751 37.949,315.033 37.231 C 314.316 36.513,313.510 35.926,313.242 35.926 C 312.975 35.926,312.516 35.593,312.222 35.185 C 311.929 34.778,311.345 34.444,310.926 34.444 C 310.507 34.444,309.923 34.111,309.630 33.704 C 309.336 33.296,308.799 32.963,308.437 32.963 C 308.074 32.963,307.778 32.784,307.778 32.566 C 307.778 31.976,306.803 31.111,306.138 31.111 C 305.817 31.111,305.556 30.944,305.556 30.741 C 305.556 30.537,305.222 30.370,304.815 30.370 C 304.407 30.370,304.074 30.204,304.074 30.000 C 304.074 29.796,303.824 29.630,303.519 29.630 C 303.213 29.630,302.963 29.463,302.963 29.259 C 302.963 29.056,302.630 28.889,302.222 28.889 C 301.815 28.889,301.481 28.722,301.481 28.519 C 301.481 28.315,301.185 28.148,300.823 28.148 C 300.460 28.148,299.923 27.815,299.630 27.407 C 299.336 27.000,298.799 26.667,298.437 26.667 C 298.074 26.667,297.778 26.500,297.778 26.296 C 297.778 26.093,297.361 25.926,296.852 25.926 C 296.343 25.926,295.926 25.759,295.926 25.556 C 295.926 25.352,295.593 25.185,295.185 25.185 C 294.774 25.185,294.444 24.938,294.444 24.630 C 294.444 24.324,294.148 24.074,293.785 24.074 C 293.423 24.074,292.886 23.741,292.593 23.333 C 292.299 22.926,291.762 22.593,291.400 22.593 C 291.037 22.593,290.741 22.426,290.741 22.222 C 290.741 22.019,290.324 21.852,289.815 21.852 C 289.306 21.852,288.889 21.685,288.889 21.481 C 288.889 21.278,288.389 21.111,287.778 21.111 C 287.167 21.111,286.667 20.944,286.667 20.741 C 286.667 20.537,286.333 20.370,285.926 20.370 C 285.519 20.370,285.185 20.204,285.185 20.000 C 285.185 19.796,284.852 19.630,284.444 19.630 C 284.037 19.630,283.704 19.463,283.704 19.259 C 283.704 19.056,283.287 18.889,282.778 18.889 C 282.269 18.889,281.852 18.722,281.852 18.519 C 281.852 18.315,281.519 18.148,281.111 18.148 C 280.700 18.148,280.370 17.901,280.370 17.593 C 280.370 17.284,280.041 17.037,279.630 17.037 C 279.222 17.037,278.889 16.870,278.889 16.667 C 278.889 16.463,278.389 16.296,277.778 16.296 C 277.167 16.296,276.667 16.130,276.667 15.926 C 276.667 15.722,276.333 15.556,275.926 15.556 C 275.519 15.556,275.185 15.389,275.185 15.185 C 275.185 14.981,274.602 14.815,273.889 14.815 C 273.176 14.815,272.593 14.648,272.593 14.444 C 272.593 14.241,272.259 14.074,271.852 14.074 C 271.444 14.074,271.111 13.907,271.111 13.704 C 271.111 13.500,270.611 13.333,270.000 13.333 C 269.389 13.333,268.889 13.167,268.889 12.963 C 268.889 12.759,268.306 12.593,267.593 12.593 C 266.880 12.593,266.296 12.426,266.296 12.222 C 266.296 12.019,265.963 11.852,265.556 11.852 C 265.148 11.852,264.815 11.685,264.815 11.481 C 264.815 11.278,264.315 11.111,263.704 11.111 C 262.963 11.111,262.593 10.926,262.593 10.556 C 262.593 10.144,262.160 10.000,260.926 10.000 C 260.009 10.000,259.259 9.833,259.259 9.630 C 259.259 9.426,258.759 9.259,258.148 9.259 C 257.537 9.259,257.037 9.093,257.037 8.889 C 257.037 8.685,256.537 8.519,255.926 8.519 C 255.315 8.519,254.815 8.352,254.815 8.148 C 254.815 7.944,254.065 7.778,253.148 7.778 C 252.231 7.778,251.481 7.611,251.481 7.407 C 251.481 7.204,250.815 7.037,250.000 7.037 C 249.185 7.037,248.519 6.870,248.519 6.667 C 248.519 6.463,247.769 6.296,246.852 6.296 C 245.935 6.296,245.185 6.130,245.185 5.926 C 245.185 5.722,244.519 5.556,243.704 5.556 C 242.889 5.556,242.222 5.389,242.222 5.185 C 242.222 4.981,241.306 4.815,240.185 4.815 C 239.065 4.815,238.148 4.648,238.148 4.444 C 238.148 4.239,237.160 4.074,235.926 4.074 C 234.198 4.074,233.704 3.951,233.704 3.519 C 233.704 3.082,233.189 2.963,231.296 2.963 C 229.938 2.963,228.889 2.802,228.889 2.593 C 228.889 2.375,227.593 2.222,225.741 2.222 C 223.889 2.222,222.593 2.070,222.593 1.852 C 222.593 1.626,220.926 1.481,218.333 1.481 C 215.741 1.481,214.074 1.337,214.074 1.111 C 214.074 0.618,186.037 0.601,185.864 1.094 M181.852 101.852 C 181.852 102.056,181.685 102.222,181.481 102.222 C 181.278 102.222,181.111 102.572,181.111 103.000 C 181.111 103.427,180.611 104.244,180.000 104.815 C 179.389 105.386,178.889 106.082,178.889 106.363 C 178.889 106.644,178.556 107.114,178.148 107.407 C 177.741 107.701,177.407 108.201,177.407 108.519 C 177.407 108.836,177.074 109.336,176.667 109.630 C 176.259 109.923,175.926 110.377,175.926 110.637 C 175.926 110.898,175.759 111.111,175.556 111.111 C 175.352 111.111,175.185 111.444,175.185 111.852 C 175.185 112.259,175.011 112.593,174.798 112.593 C 174.242 112.593,172.593 114.320,172.593 114.901 C 172.593 115.171,172.259 115.632,171.852 115.926 C 171.444 116.220,171.111 116.773,171.111 117.155 C 171.111 117.538,170.611 118.318,170.000 118.889 C 169.389 119.460,168.889 120.122,168.889 120.360 C 168.889 120.821,167.993 121.852,167.593 121.852 C 167.136 121.852,166.296 122.914,166.296 123.492 C 166.296 123.812,166.130 124.074,165.926 124.074 C 165.722 124.074,165.556 124.324,165.556 124.630 C 165.556 124.935,165.389 125.185,165.185 125.185 C 164.981 125.185,164.815 125.452,164.815 125.777 C 164.815 126.103,164.315 126.837,163.704 127.407 C 163.093 127.978,162.593 128.675,162.593 128.956 C 162.593 129.236,162.259 129.706,161.852 130.000 C 161.444 130.294,161.111 130.830,161.111 131.193 C 161.111 131.555,160.861 131.852,160.556 131.852 C 160.250 131.852,160.000 132.102,160.000 132.407 C 160.000 132.713,159.833 132.963,159.630 132.963 C 159.426 132.963,159.259 133.226,159.259 133.548 C 159.259 133.869,158.593 134.773,157.778 135.556 C 156.963 136.338,156.296 137.205,156.296 137.482 C 156.296 137.758,155.963 138.225,155.556 138.519 C 155.148 138.812,154.815 139.266,154.815 139.526 C 154.815 139.787,154.648 140.000,154.444 140.000 C 154.241 140.000,154.074 140.333,154.074 140.741 C 154.074 141.148,153.896 141.481,153.677 141.481 C 153.148 141.481,152.222 142.430,152.222 142.973 C 152.222 143.211,151.722 143.874,151.111 144.444 C 150.500 145.015,150.000 145.765,150.000 146.111 C 150.000 146.457,149.500 147.207,148.889 147.778 C 148.278 148.349,147.778 149.011,147.778 149.249 C 147.778 149.792,146.852 150.741,146.323 150.741 C 146.104 150.741,145.926 151.037,145.926 151.400 C 145.926 151.762,145.593 152.299,145.185 152.593 C 144.778 152.886,144.444 153.340,144.444 153.600 C 144.444 153.861,144.278 154.074,144.074 154.074 C 143.870 154.074,143.704 154.341,143.704 154.666 C 143.704 154.992,143.204 155.725,142.593 156.296 C 141.981 156.867,141.481 157.564,141.481 157.845 C 141.481 158.125,141.148 158.595,140.741 158.889 C 140.333 159.183,140.000 159.803,140.000 160.267 C 140.000 160.731,139.826 161.111,139.613 161.111 C 139.091 161.111,137.407 162.823,137.407 163.353 C 137.407 163.586,136.907 164.244,136.296 164.815 C 134.703 166.303,134.825 167.037,136.667 167.037 C 137.481 167.037,138.148 166.870,138.148 166.667 C 138.148 166.463,139.051 166.296,140.154 166.296 C 141.412 166.296,142.231 166.124,142.348 165.833 C 142.490 165.484,142.641 165.506,142.963 165.926 C 143.285 166.345,143.436 166.368,143.578 166.019 C 143.816 165.430,160.000 165.339,160.000 165.926 C 160.000 166.135,161.049 166.296,162.407 166.296 C 163.765 166.296,164.815 166.458,164.815 166.667 C 164.815 166.870,165.565 167.037,166.481 167.037 C 167.716 167.037,168.148 167.181,168.148 167.593 C 168.148 167.994,168.560 168.148,169.630 168.148 C 170.444 168.148,171.111 168.315,171.111 168.519 C 171.111 168.722,171.611 168.889,172.222 168.889 C 172.833 168.889,173.333 169.056,173.333 169.259 C 173.333 169.463,173.750 169.630,174.259 169.630 C 174.769 169.630,175.185 169.796,175.185 170.000 C 175.185 170.204,175.519 170.370,175.926 170.370 C 176.333 170.370,176.667 170.537,176.667 170.741 C 176.667 170.944,177.130 171.111,177.696 171.111 C 178.300 171.111,178.946 171.417,179.259 171.852 C 179.553 172.259,180.090 172.593,180.452 172.593 C 180.815 172.593,181.111 172.759,181.111 172.963 C 181.111 173.167,181.528 173.333,182.037 173.333 C 182.546 173.333,182.963 173.500,182.963 173.704 C 182.963 173.907,183.296 174.074,183.704 174.074 C 184.111 174.074,184.444 174.248,184.444 174.461 C 184.444 175.017,186.172 176.667,186.753 176.667 C 187.023 176.667,187.484 177.000,187.778 177.407 C 188.071 177.815,188.612 178.148,188.979 178.148 C 189.567 178.148,193.704 181.881,193.704 182.412 C 193.704 182.681,196.210 185.185,196.479 185.185 C 196.958 185.185,200.000 188.547,200.000 189.077 C 200.000 189.854,202.680 192.515,202.875 191.931 C 202.957 191.684,203.189 191.481,203.391 191.481 C 203.962 191.481,204.815 190.487,204.815 189.821 C 204.815 189.489,205.815 188.237,207.037 187.037 C 208.259 185.837,209.259 184.668,209.259 184.439 C 209.259 183.909,210.192 182.963,210.714 182.963 C 210.933 182.963,211.111 182.750,211.111 182.489 C 211.111 182.229,211.444 181.775,211.852 181.481 C 212.259 181.188,212.593 180.721,212.593 180.445 C 212.593 180.168,213.259 179.301,214.074 178.519 C 214.889 177.736,215.556 176.869,215.556 176.592 C 215.556 176.316,215.889 175.849,216.296 175.556 C 216.704 175.262,217.037 174.808,217.037 174.548 C 217.037 174.287,217.216 174.074,217.434 174.074 C 217.960 174.074,218.889 173.126,218.889 172.590 C 218.889 172.356,219.556 171.524,220.370 170.741 C 221.185 169.958,221.852 169.054,221.852 168.733 C 221.852 168.411,222.019 168.148,222.222 168.148 C 222.426 168.148,222.593 167.898,222.593 167.593 C 222.593 167.287,222.759 167.037,222.963 167.037 C 223.167 167.037,223.333 166.704,223.333 166.296 C 223.333 165.753,223.580 165.556,224.259 165.556 C 224.856 165.556,225.185 165.348,225.185 164.971 C 225.185 164.649,225.852 163.746,226.667 162.963 C 227.481 162.180,228.148 161.230,228.148 160.852 C 228.148 160.473,228.481 159.923,228.889 159.630 C 229.296 159.336,229.630 158.877,229.630 158.610 C 229.630 158.137,231.982 155.556,232.412 155.556 C 232.885 155.556,234.444 153.699,234.444 153.136 C 234.444 152.805,235.111 151.894,235.926 151.111 C 236.741 150.328,237.407 149.500,237.407 149.271 C 237.407 148.747,239.095 147.037,239.613 147.037 C 239.826 147.037,240.000 146.787,240.000 146.481 C 240.000 146.176,240.167 145.926,240.370 145.926 C 240.574 145.926,240.741 145.663,240.741 145.341 C 240.741 145.020,241.407 144.116,242.222 143.333 C 243.037 142.550,243.704 141.684,243.704 141.407 C 243.704 141.131,244.037 140.664,244.444 140.370 C 244.852 140.077,245.185 139.695,245.185 139.521 C 245.185 139.075,246.167 138.148,246.640 138.148 C 246.858 138.148,247.037 137.852,247.037 137.489 C 247.037 137.127,247.370 136.590,247.778 136.296 C 248.185 136.003,248.519 135.466,248.519 135.103 C 248.519 134.691,248.796 134.444,249.259 134.444 C 249.753 134.444,250.000 134.198,250.000 133.704 C 250.000 133.296,250.167 132.963,250.370 132.963 C 250.574 132.963,250.741 132.780,250.741 132.556 C 250.741 132.332,251.241 131.682,251.852 131.111 C 252.463 130.540,252.963 129.807,252.963 129.481 C 252.963 129.155,253.142 128.889,253.360 128.889 C 253.889 128.889,254.815 127.940,254.815 127.397 C 254.815 127.159,255.315 126.497,255.926 125.926 C 256.537 125.355,257.037 124.772,257.037 124.630 C 257.037 124.488,257.537 123.904,258.148 123.333 C 258.759 122.762,259.259 122.100,259.259 121.862 C 259.259 121.407,260.154 120.370,260.546 120.370 C 261.030 120.370,262.593 118.523,262.593 117.951 C 262.593 117.620,263.259 116.709,264.074 115.926 C 264.889 115.143,265.556 114.315,265.556 114.086 C 265.556 113.652,267.204 111.852,267.602 111.852 C 268.061 111.852,268.889 110.777,268.889 110.183 C 268.889 109.847,269.556 108.931,270.370 108.148 C 271.185 107.365,271.852 106.498,271.852 106.222 C 271.852 105.945,272.185 105.479,272.593 105.185 C 273.000 104.892,273.333 104.343,273.333 103.966 C 273.333 103.214,274.161 102.222,274.788 102.222 C 275.007 102.222,275.185 102.056,275.185 101.852 C 275.185 101.610,282.037 101.481,295.000 101.481 L 314.815 101.481 314.815 103.488 C 314.815 104.730,314.991 105.576,315.278 105.710 C 315.648 105.883,315.648 105.969,315.278 106.142 C 314.911 106.313,314.815 117.418,314.815 159.846 L 314.815 213.333 323.889 213.333 L 332.963 213.333 332.963 231.296 L 332.963 249.259 323.889 249.259 L 314.815 249.259 314.815 252.377 C 314.815 254.508,314.961 255.562,315.278 255.710 C 315.648 255.883,315.648 255.969,315.278 256.142 C 314.916 256.311,314.815 260.529,314.815 275.401 L 314.815 294.444 293.704 294.444 L 272.593 294.444 272.593 271.852 L 272.593 249.259 241.852 249.259 L 211.111 249.259 211.111 250.370 C 211.111 251.111,210.926 251.481,210.556 251.481 C 210.247 251.481,210.000 251.811,210.000 252.222 C 210.000 252.630,209.833 252.963,209.630 252.963 C 209.426 252.963,209.259 253.546,209.259 254.259 C 209.259 254.972,209.093 255.556,208.889 255.556 C 208.685 255.556,208.519 255.889,208.519 256.296 C 208.519 256.704,208.352 257.037,208.148 257.037 C 207.944 257.037,207.778 257.370,207.778 257.778 C 207.778 258.185,207.611 258.519,207.407 258.519 C 207.204 258.519,207.037 258.852,207.037 259.259 C 207.037 259.667,206.870 260.000,206.667 260.000 C 206.463 260.000,206.296 260.417,206.296 260.926 C 206.296 261.435,206.130 261.852,205.926 261.852 C 205.722 261.852,205.556 262.185,205.556 262.593 C 205.556 263.000,205.389 263.333,205.185 263.333 C 204.981 263.333,204.815 263.595,204.815 263.915 C 204.815 264.581,203.950 265.556,203.360 265.556 C 203.142 265.556,202.963 265.889,202.963 266.296 C 202.963 266.704,202.796 267.037,202.593 267.037 C 202.389 267.037,202.222 267.250,202.222 267.511 C 202.222 267.771,201.889 268.225,201.481 268.519 C 201.074 268.812,200.741 269.276,200.741 269.550 C 200.741 269.824,199.907 270.860,198.889 271.852 C 197.847 272.867,197.037 273.990,197.037 274.420 C 197.037 274.841,196.860 275.185,196.643 275.185 C 196.426 275.185,195.437 276.019,194.444 277.037 C 193.452 278.056,192.447 278.889,192.210 278.889 C 191.973 278.889,191.312 279.389,190.741 280.000 C 190.170 280.611,189.591 281.111,189.455 281.111 C 189.062 281.111,188.148 282.129,188.148 282.566 C 188.148 282.784,187.882 282.963,187.556 282.963 C 187.230 282.963,186.497 283.463,185.926 284.074 C 185.355 284.685,184.658 285.185,184.378 285.185 C 184.097 285.185,183.627 285.519,183.333 285.926 C 183.040 286.333,182.420 286.667,181.955 286.667 C 181.491 286.667,181.111 286.833,181.111 287.037 C 181.111 287.241,180.815 287.407,180.452 287.407 C 180.090 287.407,179.553 287.741,179.259 288.148 C 178.966 288.556,178.429 288.889,178.066 288.889 C 177.704 288.889,177.407 289.139,177.407 289.444 C 177.407 289.753,177.078 290.000,176.667 290.000 C 176.259 290.000,175.926 290.167,175.926 290.370 C 175.926 290.574,175.509 290.741,175.000 290.741 C 174.491 290.741,174.074 290.907,174.074 291.111 C 174.074 291.315,173.574 291.481,172.963 291.481 C 172.352 291.481,171.852 291.648,171.852 291.852 C 171.852 292.056,171.519 292.222,171.111 292.222 C 170.704 292.222,170.370 292.389,170.370 292.593 C 170.370 292.796,169.870 292.963,169.259 292.963 C 168.648 292.963,168.148 293.130,168.148 293.333 C 168.148 293.537,167.731 293.704,167.222 293.704 C 166.713 293.704,166.296 293.870,166.296 294.074 C 166.296 294.278,165.630 294.444,164.815 294.444 C 164.000 294.444,163.333 294.611,163.333 294.815 C 163.333 295.019,162.833 295.185,162.222 295.185 C 161.611 295.185,161.111 295.352,161.111 295.556 C 161.111 295.759,160.194 295.926,159.074 295.926 C 157.510 295.926,157.037 296.055,157.037 296.481 C 157.037 296.918,156.523 297.037,154.630 297.037 C 153.272 297.037,152.222 297.198,152.222 297.407 C 152.222 297.631,150.679 297.778,148.333 297.778 C 145.988 297.778,144.444 297.925,144.444 298.148 C 144.444 298.378,142.407 298.519,139.074 298.519 C 135.741 298.519,133.704 298.378,133.704 298.148 C 133.704 297.923,132.037 297.778,129.444 297.778 C 126.852 297.778,125.185 297.633,125.185 297.407 C 125.185 297.198,124.136 297.037,122.778 297.037 C 120.885 297.037,120.370 296.918,120.370 296.481 C 120.370 296.070,119.938 295.926,118.704 295.926 C 117.787 295.926,117.037 295.759,117.037 295.556 C 117.037 295.352,116.537 295.185,115.926 295.185 C 115.315 295.185,114.815 295.019,114.815 294.815 C 114.815 294.611,114.315 294.444,113.704 294.444 C 113.093 294.444,112.593 294.278,112.593 294.074 C 112.593 293.870,112.009 293.704,111.296 293.704 C 110.583 293.704,110.000 293.537,110.000 293.333 C 110.000 293.130,109.667 292.963,109.259 292.963 C 108.852 292.963,108.519 292.796,108.519 292.593 C 108.519 292.389,108.185 292.222,107.778 292.222 C 107.370 292.222,107.037 292.056,107.037 291.852 C 107.037 291.648,106.574 291.481,106.008 291.481 C 105.403 291.481,104.758 291.176,104.444 290.741 C 104.151 290.333,103.531 290.000,103.066 290.000 C 102.563 290.000,102.222 289.776,102.222 289.444 C 102.222 289.136,101.893 288.889,101.481 288.889 C 101.074 288.889,100.741 288.722,100.741 288.519 C 100.741 288.315,100.444 288.148,100.082 288.148 C 99.719 288.148,99.183 287.815,98.889 287.407 C 98.595 287.000,98.058 286.667,97.696 286.667 C 97.334 286.667,97.037 286.500,97.037 286.296 C 97.037 286.093,96.787 285.926,96.481 285.926 C 96.176 285.926,95.926 285.759,95.926 285.556 C 95.926 285.352,95.670 285.185,95.358 285.185 C 94.724 285.185,92.222 282.832,92.222 282.235 C 92.222 282.024,91.926 281.852,91.563 281.852 C 91.201 281.852,90.664 281.519,90.370 281.111 C 90.077 280.704,89.704 280.370,89.541 280.370 C 88.989 280.370,84.444 275.573,84.444 274.990 C 84.444 274.435,82.872 272.593,82.398 272.593 C 82.006 272.593,81.111 271.556,81.111 271.101 C 81.111 270.863,80.611 270.200,80.000 269.630 C 79.389 269.059,78.889 268.242,78.889 267.814 C 78.889 267.387,78.722 267.037,78.519 267.037 C 78.315 267.037,78.148 266.740,78.148 266.378 C 78.148 266.016,77.815 265.479,77.407 265.185 C 77.000 264.892,76.667 264.355,76.667 263.992 C 76.667 263.630,76.500 263.333,76.296 263.333 C 76.093 263.333,75.926 263.000,75.926 262.593 C 75.926 262.185,75.759 261.852,75.556 261.852 C 75.352 261.852,75.185 261.435,75.185 260.926 C 75.185 260.350,74.975 260.000,74.630 260.000 C 74.321 260.000,74.074 259.671,74.074 259.259 C 74.074 258.852,73.907 258.519,73.704 258.519 C 73.500 258.519,73.333 258.019,73.333 257.407 C 73.333 256.796,73.167 256.296,72.963 256.296 C 72.759 256.296,72.593 255.963,72.593 255.556 C 72.593 255.148,72.426 254.815,72.222 254.815 C 72.019 254.815,71.852 254.231,71.852 253.519 C 71.852 252.806,71.685 252.222,71.481 252.222 C 71.278 252.222,71.111 251.556,71.111 250.741 C 71.111 249.926,70.944 249.259,70.741 249.259 C 70.537 249.259,70.370 248.509,70.370 247.593 C 70.370 246.676,70.204 245.926,70.000 245.926 C 69.794 245.926,69.630 244.938,69.630 243.704 C 69.630 242.469,69.465 241.481,69.259 241.481 C 69.030 241.481,68.889 239.506,68.889 236.296 C 68.889 233.086,68.748 231.111,68.519 231.111 C 68.315 231.111,68.148 230.444,68.148 229.630 C 68.148 228.815,68.315 228.148,68.519 228.148 C 68.749 228.148,68.889 226.049,68.889 222.593 C 68.889 219.136,69.029 217.037,69.259 217.037 C 69.471 217.037,69.630 215.926,69.630 214.444 C 69.630 212.963,69.788 211.852,70.000 211.852 C 70.204 211.852,70.370 210.935,70.370 209.815 C 70.370 208.694,70.537 207.778,70.741 207.778 C 70.944 207.778,71.111 207.111,71.111 206.296 C 71.111 205.481,71.278 204.815,71.481 204.815 C 71.685 204.815,71.852 204.065,71.852 203.148 C 71.852 202.231,72.019 201.481,72.222 201.481 C 72.426 201.481,72.593 200.981,72.593 200.370 C 72.593 199.759,72.759 199.259,72.963 199.259 C 73.167 199.259,73.333 198.759,73.333 198.148 C 73.333 197.537,73.500 197.037,73.704 197.037 C 73.907 197.037,74.074 196.454,74.074 195.741 C 74.074 194.835,74.242 194.444,74.630 194.444 C 75.000 194.444,75.185 194.074,75.185 193.333 C 75.185 192.722,75.352 192.222,75.556 192.222 C 75.759 192.222,75.926 191.722,75.926 191.111 C 75.926 190.500,76.093 190.000,76.296 190.000 C 76.500 190.000,76.667 189.583,76.667 189.074 C 76.667 188.565,76.833 188.148,77.037 188.148 C 77.241 188.148,77.407 187.648,77.407 187.037 C 77.407 186.426,77.574 185.926,77.778 185.926 C 77.981 185.926,78.148 185.593,78.148 185.185 C 78.148 184.778,78.315 184.444,78.519 184.444 C 78.722 184.444,78.889 184.111,78.889 183.704 C 78.889 183.296,79.056 182.963,79.259 182.963 C 79.463 182.963,79.630 182.546,79.630 182.037 C 79.630 181.528,79.796 181.111,80.000 181.111 C 80.204 181.111,80.370 180.611,80.370 180.000 C 80.370 179.389,80.537 178.889,80.741 178.889 C 80.944 178.889,81.111 178.556,81.111 178.148 C 81.111 177.741,81.278 177.407,81.481 177.407 C 81.685 177.407,81.852 177.074,81.852 176.667 C 81.852 176.255,82.099 175.926,82.407 175.926 C 82.753 175.926,82.963 175.576,82.963 175.000 C 82.963 174.491,83.130 174.074,83.333 174.074 C 83.537 174.074,83.704 173.741,83.704 173.333 C 83.704 172.926,83.870 172.593,84.074 172.593 C 84.278 172.593,84.444 172.259,84.444 171.852 C 84.444 171.444,84.611 171.111,84.815 171.111 C 85.019 171.111,85.185 170.778,85.185 170.370 C 85.185 169.963,85.352 169.630,85.556 169.630 C 85.759 169.630,85.926 169.296,85.926 168.889 C 85.926 168.481,86.093 168.148,86.296 168.148 C 86.500 168.148,86.667 167.768,86.667 167.304 C 86.667 166.840,87.000 166.220,87.407 165.926 C 87.815 165.632,88.148 165.095,88.148 164.733 C 88.148 164.371,88.315 164.074,88.519 164.074 C 88.722 164.074,88.889 163.741,88.889 163.333 C 88.889 162.922,89.136 162.593,89.444 162.593 C 89.753 162.593,90.000 162.263,90.000 161.852 C 90.000 161.444,90.167 161.111,90.370 161.111 C 90.574 161.111,90.741 160.731,90.741 160.267 C 90.741 159.803,91.074 159.183,91.481 158.889 C 91.889 158.595,92.222 158.058,92.222 157.696 C 92.222 157.334,92.389 157.037,92.593 157.037 C 92.796 157.037,92.963 156.740,92.963 156.378 C 92.963 156.016,93.296 155.479,93.704 155.185 C 94.111 154.892,94.444 154.308,94.444 153.889 C 94.444 153.470,94.778 152.886,95.185 152.593 C 95.593 152.299,95.926 151.762,95.926 151.400 C 95.926 151.037,96.176 150.741,96.481 150.741 C 96.787 150.741,97.037 150.444,97.037 150.082 C 97.037 149.719,97.370 149.183,97.778 148.889 C 98.185 148.595,98.519 148.058,98.519 147.696 C 98.519 147.334,98.685 147.037,98.889 147.037 C 99.093 147.037,99.259 146.824,99.259 146.563 C 99.259 146.303,99.593 145.849,100.000 145.556 C 100.407 145.262,100.741 144.792,100.741 144.511 C 100.741 144.231,101.241 143.534,101.852 142.963 C 102.463 142.392,102.963 141.659,102.963 141.333 C 102.963 141.007,103.142 140.741,103.360 140.741 C 103.963 140.741,104.815 139.760,104.815 139.064 C 104.815 138.724,105.315 137.978,105.926 137.407 C 106.537 136.837,107.037 136.140,107.037 135.859 C 107.037 135.578,107.370 135.108,107.778 134.815 C 108.185 134.521,108.519 133.984,108.519 133.622 C 108.519 133.260,108.685 132.963,108.889 132.963 C 109.093 132.963,109.259 132.713,109.259 132.407 C 109.259 132.102,109.426 131.852,109.630 131.852 C 109.833 131.852,110.000 131.519,110.000 131.111 C 110.000 130.704,110.179 130.370,110.397 130.370 C 110.923 130.370,111.852 129.423,111.852 128.886 C 111.852 128.652,112.519 127.820,113.333 127.037 C 114.148 126.254,114.815 125.304,114.815 124.926 C 114.815 124.547,115.148 123.997,115.556 123.704 C 115.963 123.410,116.296 122.945,116.296 122.670 C 116.296 122.157,117.166 121.111,117.593 121.111 C 118.019 121.111,118.889 120.066,118.889 119.553 C 118.889 119.278,119.222 118.812,119.630 118.519 C 120.037 118.225,120.370 117.642,120.370 117.222 C 120.370 116.803,120.704 116.220,121.111 115.926 C 121.519 115.632,121.852 115.162,121.852 114.882 C 121.852 114.601,122.352 113.904,122.963 113.333 C 123.574 112.762,124.074 112.029,124.074 111.703 C 124.074 111.378,124.324 111.111,124.630 111.111 C 124.935 111.111,125.185 110.861,125.185 110.556 C 125.185 110.250,125.352 110.000,125.556 110.000 C 125.759 110.000,125.926 109.734,125.926 109.408 C 125.926 109.082,126.426 108.349,127.037 107.778 C 127.648 107.207,128.148 106.510,128.148 106.229 C 128.148 105.949,128.481 105.479,128.889 105.185 C 129.296 104.892,129.630 104.349,129.630 103.979 C 129.630 103.609,130.005 102.906,130.463 102.417 L 131.296 101.527 156.574 101.504 C 173.194 101.489,181.852 101.608,181.852 101.852 M270.463 151.676 C 270.005 152.166,269.630 152.830,269.630 153.152 C 269.630 153.806,268.025 155.556,267.424 155.556 C 267.211 155.556,267.037 155.819,267.037 156.140 C 267.037 156.462,266.370 157.365,265.556 158.148 C 264.741 158.931,264.074 159.848,264.074 160.185 C 264.074 160.523,263.407 161.439,262.593 162.222 C 261.778 163.005,261.111 163.909,261.111 164.230 C 261.111 164.552,260.937 164.815,260.724 164.815 C 260.025 164.815,258.519 166.615,258.492 167.483 C 258.468 168.288,258.450 168.294,258.148 167.593 C 257.848 166.895,257.828 166.902,257.804 167.714 C 257.789 168.213,257.153 169.177,256.296 170.000 C 255.481 170.783,254.815 171.615,254.815 171.849 C 254.815 172.304,253.915 173.333,253.519 173.333 C 253.052 173.333,252.222 174.402,252.222 175.003 C 252.222 175.339,251.556 176.254,250.741 177.037 C 249.926 177.820,249.259 178.646,249.259 178.872 C 249.259 179.391,246.823 181.852,246.309 181.852 C 246.098 181.852,245.926 182.198,245.926 182.622 C 245.926 183.045,245.259 184.032,244.444 184.815 C 243.630 185.598,242.963 186.434,242.963 186.674 C 242.963 186.914,242.463 187.577,241.852 188.148 C 241.241 188.719,240.741 189.464,240.741 189.805 C 240.741 190.406,239.915 191.481,239.454 191.481 C 239.053 191.481,237.407 193.284,237.407 193.723 C 237.407 193.957,236.907 194.614,236.296 195.185 C 235.685 195.756,235.185 196.406,235.185 196.630 C 235.185 196.854,235.019 197.037,234.815 197.037 C 234.611 197.037,234.444 197.295,234.444 197.609 C 234.444 198.160,232.869 200.000,232.398 200.000 C 231.979 200.000,231.111 201.051,231.111 201.558 C 231.111 201.834,230.778 202.299,230.370 202.593 C 229.963 202.886,229.630 203.340,229.630 203.600 C 229.630 203.861,229.463 204.074,229.259 204.074 C 229.056 204.074,228.889 204.337,228.889 204.659 C 228.889 204.980,228.222 205.884,227.407 206.667 C 226.593 207.450,225.926 208.282,225.926 208.516 C 225.926 209.052,224.997 210.000,224.471 210.000 C 224.253 210.000,224.074 210.213,224.074 210.474 C 224.074 210.734,223.741 211.188,223.333 211.481 C 220.748 213.345,220.600 213.333,247.593 213.333 C 264.012 213.333,272.593 213.206,272.593 212.963 C 272.593 212.759,272.426 212.593,272.222 212.593 C 271.978 212.593,271.852 202.160,271.852 182.037 C 271.852 161.914,271.978 151.481,272.222 151.481 C 272.426 151.481,272.593 151.315,272.593 151.111 C 272.593 150.433,271.308 150.774,270.463 151.676 M134.444 198.889 C 134.444 199.093,133.694 199.259,132.778 199.259 C 131.861 199.259,131.111 199.426,131.111 199.630 C 131.111 199.833,130.611 200.000,130.000 200.000 C 129.389 200.000,128.889 200.167,128.889 200.370 C 128.889 200.574,128.556 200.741,128.148 200.741 C 127.741 200.741,127.407 200.907,127.407 201.111 C 127.407 201.315,127.074 201.481,126.667 201.481 C 126.259 201.481,125.926 201.648,125.926 201.852 C 125.926 202.056,125.581 202.222,125.159 202.222 C 124.339 202.222,123.333 203.024,123.333 203.677 C 123.333 203.896,123.074 204.074,122.757 204.074 C 122.440 204.074,121.200 205.074,120.000 206.296 C 118.800 207.519,117.719 208.519,117.596 208.519 C 117.114 208.519,115.556 210.372,115.556 210.946 C 115.556 211.281,115.056 212.022,114.444 212.593 C 113.833 213.163,113.333 213.897,113.333 214.223 C 113.333 214.548,113.167 214.815,112.963 214.815 C 112.759 214.815,112.593 215.148,112.593 215.556 C 112.593 215.963,112.426 216.296,112.222 216.296 C 112.019 216.296,111.852 216.880,111.852 217.593 C 111.852 218.306,111.685 218.889,111.481 218.889 C 111.278 218.889,111.111 219.389,111.111 220.000 C 111.111 220.741,110.926 221.111,110.556 221.111 C 110.129 221.111,110.000 221.584,110.000 223.148 C 110.000 224.269,109.833 225.185,109.630 225.185 C 109.095 225.185,109.173 226.565,109.722 226.821 C 110.093 226.994,110.093 227.080,109.722 227.253 C 109.150 227.520,109.061 233.704,109.630 233.704 C 109.833 233.704,110.000 234.537,110.000 235.556 C 110.000 236.955,110.136 237.407,110.556 237.407 C 110.944 237.407,111.111 237.798,111.111 238.704 C 111.111 239.417,111.278 240.000,111.481 240.000 C 111.685 240.000,111.852 240.500,111.852 241.111 C 111.852 241.722,112.019 242.222,112.222 242.222 C 112.426 242.222,112.593 242.519,112.593 242.881 C 112.593 243.244,112.926 243.780,113.333 244.074 C 113.741 244.368,114.074 244.905,114.074 245.267 C 114.074 245.629,114.241 245.926,114.444 245.926 C 114.648 245.926,114.815 246.176,114.815 246.481 C 114.815 246.787,114.981 247.037,115.185 247.037 C 115.389 247.037,115.556 247.295,115.556 247.609 C 115.556 248.149,117.127 250.000,117.586 250.000 C 117.961 250.000,121.111 253.301,121.111 253.694 C 121.111 253.903,121.408 254.074,121.770 254.074 C 122.133 254.074,122.669 254.407,122.963 254.815 C 123.257 255.222,123.877 255.556,124.341 255.556 C 124.805 255.556,125.185 255.722,125.185 255.926 C 125.185 256.130,125.519 256.296,125.926 256.296 C 126.333 256.296,126.667 256.463,126.667 256.667 C 126.667 256.870,127.000 257.037,127.407 257.037 C 127.815 257.037,128.148 257.204,128.148 257.407 C 128.148 257.611,128.648 257.778,129.259 257.778 C 129.870 257.778,130.370 257.944,130.370 258.148 C 130.370 258.352,130.954 258.519,131.667 258.519 C 132.380 258.519,132.963 258.685,132.963 258.889 C 132.963 259.101,134.074 259.259,135.556 259.259 C 137.037 259.259,138.148 259.418,138.148 259.630 C 138.148 259.833,139.065 260.000,140.185 260.000 C 141.306 260.000,142.222 259.833,142.222 259.630 C 142.222 259.416,143.395 259.259,145.000 259.259 C 146.605 259.259,147.778 259.103,147.778 258.889 C 147.778 258.685,148.278 258.519,148.889 258.519 C 149.500 258.519,150.000 258.352,150.000 258.148 C 150.000 257.944,150.500 257.778,151.111 257.778 C 151.722 257.778,152.222 257.611,152.222 257.407 C 152.222 257.204,152.602 257.037,153.066 257.037 C 153.531 257.037,154.151 256.704,154.444 256.296 C 154.738 255.889,155.238 255.556,155.556 255.556 C 155.873 255.556,156.373 255.222,156.667 254.815 C 156.960 254.407,157.497 254.074,157.860 254.074 C 158.222 254.074,158.519 253.900,158.519 253.687 C 158.519 253.282,160.178 251.481,160.551 251.481 C 160.981 251.481,163.333 248.900,163.333 248.427 C 163.333 248.160,163.667 247.701,164.074 247.407 C 164.481 247.114,164.815 246.494,164.815 246.029 C 164.815 245.565,164.981 245.185,165.185 245.185 C 165.389 245.185,165.556 244.852,165.556 244.444 C 165.556 244.037,165.722 243.704,165.926 243.704 C 166.130 243.704,166.296 243.370,166.296 242.963 C 166.296 242.556,166.463 242.222,166.667 242.222 C 166.870 242.222,167.037 241.889,167.037 241.481 C 167.037 241.070,167.284 240.741,167.593 240.741 C 167.981 240.741,168.148 240.350,168.148 239.444 C 168.148 238.731,168.315 238.148,168.519 238.148 C 168.722 238.148,168.889 237.481,168.889 236.667 C 168.889 235.852,169.056 235.185,169.259 235.185 C 169.492 235.185,169.630 232.840,169.630 228.889 C 169.630 224.938,169.492 222.593,169.259 222.593 C 169.056 222.593,168.889 221.926,168.889 221.111 C 168.889 220.296,168.722 219.630,168.519 219.630 C 168.315 219.630,168.148 219.046,168.148 218.333 C 168.148 217.428,167.981 217.037,167.593 217.037 C 167.222 217.037,167.037 216.667,167.037 215.926 C 167.037 215.315,166.870 214.815,166.667 214.815 C 166.463 214.815,166.296 214.518,166.296 214.156 C 166.296 213.793,165.963 213.257,165.556 212.963 C 165.148 212.669,164.815 212.133,164.815 211.770 C 164.815 211.408,164.648 211.111,164.444 211.111 C 164.241 211.111,164.074 210.861,164.074 210.556 C 164.074 210.250,163.907 210.000,163.704 210.000 C 163.500 210.000,163.333 209.744,163.333 209.432 C 163.333 208.888,161.017 206.296,160.531 206.296 C 160.403 206.296,159.830 205.796,159.259 205.185 C 158.688 204.574,157.955 204.074,157.629 204.074 C 157.304 204.074,157.037 203.824,157.037 203.519 C 157.037 203.213,156.740 202.963,156.378 202.963 C 156.016 202.963,155.479 202.630,155.185 202.222 C 154.892 201.815,154.271 201.481,153.807 201.481 C 153.343 201.481,152.963 201.315,152.963 201.111 C 152.963 200.907,152.630 200.741,152.222 200.741 C 151.815 200.741,151.481 200.574,151.481 200.370 C 151.481 200.167,151.148 200.000,150.741 200.000 C 150.333 200.000,150.000 199.833,150.000 199.630 C 150.000 199.426,149.333 199.259,148.519 199.259 C 147.704 199.259,147.037 199.093,147.037 198.889 C 147.037 198.656,144.691 198.519,140.741 198.519 C 136.790 198.519,134.444 198.656,134.444 198.889 "
              stroke="none" fill="#872010" fill-rule="evenodd"></path>
    </g>
</svg>