<svg width="760" height="760" xmlns="http://www.w3.org/2000/svg">
 <!-- Created with SVG Editor - http://github.com/mzalive/SVG Editor/ -->

 <g>
  <title>background</title>
  <rect fill="none" id="canvas_background" height="762" width="762" y="-1" x="-1"/>
 </g>
 <g>
  <title>Layer 1</title>
  <g id="svg_26">
   <line stroke="#ff7500" stroke-linecap="null" stroke-linejoin="null" id="svg_4" y2="409.160052" x2="729.743176" y1="177.26861" x1="497.344138" stroke-width="82" fill="none"/>
   <line stroke="#ff7500" stroke-linecap="null" stroke-linejoin="null" id="svg_9" y2="582.73134" x2="498.332676" y1="350.839898" x1="729.743145" stroke-width="82" fill="none"/>
  </g>
  <g id="svg_27">
   <line stroke="#00aa13" stroke-linecap="null" stroke-linejoin="null" id="svg_2" y2="583.088566" x2="262.987332" y1="351.197124" x1="30.588293" stroke-width="82" fill="none"/>
   <line stroke="#00aa13" stroke-linecap="null" stroke-linejoin="null" id="svg_7" y2="408.802874" x2="31.082588" y1="176.911431" x1="262.493057" stroke-width="82" fill="none"/>
  </g>
  <path stroke="null" id="svg_35" d="m492.794986,312.85727l22.863361,-34.274988l-33.166308,-32.818822l-34.63848,22.720432c-11.088144,-6.602506 -23.255666,-11.651167 -36.109965,-14.855566l-8.340443,-40.295494l-46.904127,0l-8.340443,40.392688c-12.854398,3.107205 -24.923598,8.155866 -36.011742,14.758372l-34.63848,-22.720432l-33.166308,32.818822l22.863361,34.274988c-6.57419,10.971973 -11.775119,23.012014 -14.915222,35.731638l-40.72175,8.253643l0,46.412126l40.721554,8.253643c3.140104,12.719721 8.341032,24.759665 14.915222,35.731638l-22.863361,34.274988l33.166308,32.818822l34.63848,-22.720432c11.088144,6.505312 23.157443,11.65175 36.011742,14.758372l8.340443,40.295494l46.904127,0l8.340443,-40.295494c12.854398,-3.106622 25.021821,-8.155866 36.109965,-14.758372l34.63848,22.720432l33.166308,-32.818822l-22.863361,-34.274988c6.57419,-10.971973 11.775119,-23.012014 14.915222,-35.731638l40.721554,-8.253643l0,-46.412126l-40.721554,-8.253643c-3.139907,-12.719624 -8.340836,-24.759568 -14.915026,-35.731638zm-112.843948,129.23625c-34.540257,0 -62.702083,-27.769676 -62.702083,-62.044566c0,-34.27557 28.161924,-62.045149 62.702083,-62.045149c34.63848,0 62.800307,27.769676 62.800307,62.045149c0,34.274988 -28.161826,62.044566 -62.800307,62.044566z"/>
 </g>
</svg>