<svg xmlns="http://www.w3.org/2000/svg" width="16" height="16" viewBox="0 0 762 762"><g fill="none" fill-rule="evenodd"><rect width="762" height="762"/><polygon fill="#00AA13" fill-rule="nonzero" points="41.993 422.991 167.998 549 210 507 83.995 381 210 255 167.998 213 41.993 338.991 0 381"/><polygon fill="#FF7500" fill-rule="nonzero" points="678.003 380.996 552 507.008 594.007 549 719.993 423.005 762 380.996 719.993 339.003 594.007 213 552 254.992"/><path fill="#000" d="M436.573121,432.007118 C408.382636,462.637608 360.61577,464.804241 329.809307,436.498054 C299.16069,408.209583 297.115793,360.54188 325.40737,329.922019 C353.54997,299.162204 401.359401,297.131982 432.052356,325.330103 C462.903158,353.576056 464.832774,401.355369 436.573121,432.007118 Z M547.912678,357.746338 C547.040094,351.331474 545.743633,345.04062 544.138576,338.914522 L510.377389,336.972878 L495.774026,306.824256 L515.164184,279.148749 C507.266592,268.723044 498.187819,259.32308 488.18503,251.062237 L459.724966,269.359039 L430.144023,253.579642 L429.535697,219.755006 C417.582009,216.160485 405.099805,213.832639 392.312552,213 L379.88178,244.48616 L346.618959,248.831827 L326.381046,221.675391 C313.875786,225.962597 302.088811,231.617456 291.19925,238.49293 L299.676791,271.240449 L275.343765,294.327583 L243.031563,284.311111 C235.595092,294.91043 229.345123,306.381363 224.505121,318.546752 L250.579767,340.035927 L244.533755,372.971233 L212.5,383.868176 C212.618827,390.534604 213.088817,397.31264 214.037663,404.150911 C214.938623,410.385075 216.160595,416.46334 217.65924,422.426453 L251.44171,424.463762 L265.947528,454.656673 L246.403071,482.287891 C254.323719,492.71891 263.375889,502.235798 273.387546,510.523215 L301.915004,492.31322 L331.451609,508.179424 L331.923372,542.025319 C344.258372,545.750936 357.109473,548.176219 370.285133,549 L382.620133,517.45715 L415.866992,512.969757 L436.154564,540.07836 C448.647409,535.734464 460.407781,530.019371 471.288475,523.119096 L462.715162,490.399922 L486.945323,467.210037 L519.278807,477.136158 C526.711731,466.471291 532.940418,454.982643 537.732534,442.83497 L511.530192,421.45386 L517.450283,388.438833 L549.5,377.486972 C549.333287,370.939239 548.850883,364.341903 547.912678,357.746338 L547.912678,357.746338 Z"/></g></svg>