<svg id="svg" version="1.1" xmlns="http://www.w3.org/2000/svg" xmlns:xlink="http://www.w3.org/1999/xlink" width="16"
     height="16" viewBox="0, 0, 400,400">
    <g id="svgg">
        <path id="path0"
              d="M23.200 64.200 C 23.200 64.530,22.930 64.800,22.600 64.800 C 22.270 64.800,22.000 65.070,22.000 65.400 C 22.000 65.730,21.730 66.000,21.400 66.000 C 21.070 66.000,20.800 66.270,20.800 66.600 C 20.800 66.930,20.530 67.200,20.200 67.200 C 19.870 67.200,19.600 67.470,19.600 67.800 C 19.600 68.130,19.420 68.400,19.200 68.400 C 18.980 68.400,18.800 68.766,18.800 69.213 C 18.800 69.659,18.530 70.129,18.200 70.255 C 17.870 70.382,17.600 70.717,17.600 71.000 C 17.600 71.283,17.330 71.618,17.000 71.745 C 16.670 71.871,16.400 72.411,16.400 72.945 C 16.400 73.478,16.130 74.018,15.800 74.145 C 15.423 74.289,15.200 74.901,15.200 75.787 C 15.200 76.776,15.020 77.200,14.600 77.200 C 14.170 77.200,14.000 77.639,14.000 78.751 C 14.000 79.642,13.745 80.514,13.400 80.800 C 12.981 81.147,12.800 82.069,12.800 83.849 C 12.800 85.283,12.625 86.400,12.400 86.400 C 12.155 86.400,12.000 88.333,12.000 91.400 C 12.000 94.467,12.155 96.400,12.400 96.400 C 12.626 96.400,12.800 97.538,12.800 99.013 C 12.800 100.966,12.951 101.683,13.400 101.855 C 13.791 102.005,14.000 102.628,14.000 103.643 C 14.000 104.760,14.169 105.200,14.600 105.200 C 15.031 105.200,15.200 105.640,15.200 106.757 C 15.200 107.772,15.409 108.395,15.800 108.545 C 16.130 108.671,16.400 109.231,16.400 109.787 C 16.400 110.421,16.625 110.800,17.000 110.800 C 17.330 110.800,17.600 111.051,17.600 111.357 C 17.600 111.664,17.870 112.018,18.200 112.145 C 18.530 112.271,18.800 112.724,18.800 113.151 C 18.800 113.959,22.061 117.600,22.785 117.600 C 23.013 117.600,23.200 117.870,23.200 118.200 C 23.200 118.530,23.470 118.800,23.800 118.800 C 24.130 118.800,24.400 118.994,24.400 119.232 C 24.400 119.794,27.806 123.200,28.368 123.200 C 28.606 123.200,28.800 123.470,28.800 123.800 C 28.800 124.130,29.070 124.400,29.400 124.400 C 29.730 124.400,30.000 124.580,30.000 124.800 C 30.000 125.322,34.678 130.000,35.200 130.000 C 35.420 130.000,35.600 130.270,35.600 130.600 C 35.600 130.930,35.870 131.200,36.200 131.200 C 36.530 131.200,36.800 131.394,36.800 131.632 C 36.800 132.194,40.206 135.600,40.768 135.600 C 41.006 135.600,41.200 135.870,41.200 136.200 C 41.200 136.530,41.470 136.800,41.800 136.800 C 42.130 136.800,42.400 136.999,42.400 137.242 C 42.400 137.781,47.065 142.400,47.610 142.400 C 47.825 142.400,48.000 142.670,48.000 143.000 C 48.000 143.330,48.270 143.600,48.600 143.600 C 48.930 143.600,49.200 143.788,49.200 144.017 C 49.200 144.707,50.513 145.879,52.000 146.517 C 52.885 146.896,60.090 153.826,71.590 165.359 C 81.594 175.391,89.957 183.600,90.175 183.600 C 90.626 183.600,115.464 208.256,116.015 209.250 C 116.274 209.718,115.874 210.901,114.597 213.450 C 113.619 215.403,112.814 217.369,112.809 217.820 C 112.804 218.271,112.575 218.865,112.300 219.140 C 111.591 219.849,111.591 232.951,112.300 233.660 C 112.575 233.935,112.800 234.540,112.800 235.005 C 112.800 235.789,115.795 242.083,116.735 243.274 C 119.132 246.311,124.462 251.200,125.378 251.200 C 125.509 251.200,126.329 251.650,127.200 252.200 C 128.071 252.750,129.108 253.200,129.503 253.200 C 129.898 253.200,130.577 253.447,131.011 253.748 C 131.445 254.049,132.430 254.392,133.200 254.511 C 133.970 254.629,135.320 254.918,136.200 255.153 C 138.495 255.767,142.660 255.697,145.335 255.000 C 146.602 254.670,147.976 254.400,148.387 254.400 C 148.799 254.400,149.645 254.145,150.268 253.834 C 154.997 251.467,156.499 250.800,157.092 250.800 C 157.466 250.800,167.149 260.168,178.611 271.619 C 201.391 294.376,201.046 294.076,202.458 292.371 C 202.976 291.746,203.625 291.226,203.900 291.217 C 204.175 291.208,204.400 291.029,204.400 290.819 C 204.400 290.323,210.323 284.400,210.819 284.400 C 211.029 284.400,211.200 284.234,211.200 284.032 C 211.200 283.830,212.294 282.570,213.632 281.232 C 214.970 279.894,216.230 278.800,216.432 278.800 C 216.634 278.800,216.800 278.530,216.800 278.200 C 216.800 277.870,217.070 277.600,217.400 277.600 C 217.730 277.600,218.000 277.440,218.000 277.245 C 218.000 276.763,221.540 273.200,222.019 273.200 C 222.228 273.200,222.400 272.930,222.400 272.600 C 222.400 272.270,222.670 272.000,223.000 272.000 C 223.330 272.000,223.600 271.838,223.600 271.640 C 223.600 271.168,240.767 254.000,241.238 254.000 C 241.437 254.000,241.600 253.730,241.600 253.400 C 241.600 252.451,243.575 252.481,244.120 253.438 C 244.296 253.747,244.881 254.000,245.420 254.000 C 246.024 254.000,246.400 254.230,246.400 254.600 C 246.400 255.031,246.840 255.200,247.957 255.200 C 248.972 255.200,249.595 255.409,249.745 255.800 C 249.939 256.308,251.302 256.400,258.600 256.400 C 265.898 256.400,267.261 256.308,267.455 255.800 C 267.605 255.409,268.228 255.200,269.243 255.200 C 270.360 255.200,270.800 255.031,270.800 254.600 C 270.800 254.200,271.200 254.000,272.000 254.000 C 272.800 254.000,273.200 253.800,273.200 253.400 C 273.200 253.036,273.572 252.800,274.145 252.800 C 274.665 252.800,275.520 252.374,276.045 251.854 C 276.570 251.334,277.405 250.782,277.900 250.627 C 278.395 250.473,278.800 250.178,278.800 249.973 C 278.800 249.768,279.070 249.600,279.400 249.600 C 279.730 249.600,280.000 249.330,280.000 249.000 C 280.000 248.670,280.270 248.400,280.600 248.400 C 280.930 248.400,281.200 248.130,281.200 247.800 C 281.200 247.470,281.380 247.200,281.600 247.200 C 281.820 247.200,282.000 246.930,282.000 246.600 C 282.000 246.270,282.270 246.000,282.600 246.000 C 282.973 246.000,283.200 245.622,283.200 245.000 C 283.200 244.378,283.427 244.000,283.800 244.000 C 284.130 244.000,284.400 243.749,284.400 243.443 C 284.400 243.136,284.670 242.782,285.000 242.655 C 285.330 242.529,285.600 241.969,285.600 241.413 C 285.600 240.779,285.825 240.400,286.200 240.400 C 286.633 240.400,286.800 239.956,286.800 238.800 C 286.800 237.644,286.967 237.200,287.400 237.200 C 287.843 237.200,288.000 236.737,288.000 235.433 C 288.000 234.376,288.201 233.600,288.500 233.500 C 288.874 233.375,289.000 231.591,289.000 226.400 C 289.000 221.209,288.874 219.425,288.500 219.300 C 288.202 219.201,288.000 218.430,288.000 217.395 C 288.000 216.384,287.749 215.406,287.400 215.057 C 287.070 214.727,286.800 214.079,286.800 213.616 C 286.800 213.153,286.530 212.671,286.200 212.545 C 285.870 212.418,285.600 211.884,285.600 211.357 C 285.600 210.787,285.365 210.400,285.019 210.400 C 284.700 210.400,285.789 209.050,287.439 207.400 C 289.089 205.750,290.610 204.400,290.819 204.400 C 291.029 204.400,291.200 204.234,291.200 204.032 C 291.200 203.552,295.952 198.800,296.432 198.800 C 296.634 198.800,296.800 198.530,296.800 198.200 C 296.800 197.870,297.070 197.600,297.400 197.600 C 297.730 197.600,298.000 197.440,298.000 197.245 C 298.000 196.763,301.540 193.200,302.019 193.200 C 302.228 193.200,302.400 192.930,302.400 192.600 C 302.400 192.270,302.670 192.000,303.000 192.000 C 303.330 192.000,303.600 191.825,303.600 191.612 C 303.600 191.398,304.498 190.349,305.596 189.279 C 306.693 188.210,308.055 186.450,308.622 185.368 C 310.123 182.502,346.282 146.292,347.369 146.567 C 347.953 146.714,350.002 144.891,355.895 138.981 C 360.162 134.701,363.821 131.200,364.027 131.200 C 364.232 131.200,364.400 131.029,364.400 130.819 C 364.400 130.323,370.323 124.400,370.819 124.400 C 371.029 124.400,371.200 124.234,371.200 124.032 C 371.200 123.552,375.952 118.800,376.432 118.800 C 376.634 118.800,376.800 118.530,376.800 118.200 C 376.800 117.870,377.070 117.600,377.400 117.600 C 377.773 117.600,378.000 117.222,378.000 116.600 C 378.000 115.978,378.227 115.600,378.600 115.600 C 378.930 115.600,379.200 115.411,379.200 115.181 C 379.200 114.950,379.650 114.345,380.200 113.835 C 380.750 113.325,381.200 112.518,381.200 112.042 C 381.200 111.565,381.470 111.071,381.800 110.945 C 382.130 110.818,382.400 110.284,382.400 109.757 C 382.400 109.173,382.634 108.800,383.000 108.800 C 383.400 108.800,383.600 108.400,383.600 107.600 C 383.600 106.800,383.800 106.400,384.200 106.400 C 384.631 106.400,384.800 105.960,384.800 104.843 C 384.800 103.828,385.009 103.205,385.400 103.055 C 385.831 102.890,386.000 102.215,386.000 100.655 C 386.000 99.096,386.169 98.421,386.600 98.255 C 387.101 98.063,387.200 96.898,387.200 91.200 C 387.200 85.502,387.101 84.337,386.600 84.145 C 386.169 83.979,386.000 83.306,386.000 81.757 C 386.000 80.106,385.859 79.600,385.400 79.600 C 384.956 79.600,384.800 79.133,384.800 77.800 C 384.800 76.467,384.644 76.000,384.200 76.000 C 383.827 76.000,383.600 75.622,383.600 75.000 C 383.600 74.378,383.373 74.000,383.000 74.000 C 382.605 74.000,382.400 73.605,382.400 72.843 C 382.400 72.183,382.142 71.587,381.800 71.455 C 381.470 71.329,381.200 70.846,381.200 70.382 C 381.200 69.509,379.190 67.200,378.431 67.200 C 378.194 67.200,378.000 66.820,378.000 66.356 C 378.000 65.037,376.397 63.615,374.900 63.607 C 374.008 63.602,373.600 63.788,373.600 64.200 C 373.600 64.530,373.330 64.800,373.000 64.800 C 372.670 64.800,372.400 65.070,372.400 65.400 C 372.400 65.730,372.130 66.000,371.800 66.000 C 371.470 66.000,371.200 66.174,371.200 66.386 C 371.200 66.909,368.931 69.200,368.413 69.200 C 368.186 69.200,368.000 69.470,368.000 69.800 C 368.000 70.130,367.730 70.400,367.400 70.400 C 367.070 70.400,366.800 70.670,366.800 71.000 C 366.800 71.330,366.530 71.600,366.200 71.600 C 365.870 71.600,365.600 71.870,365.600 72.200 C 365.600 72.530,365.330 72.800,365.000 72.800 C 364.670 72.800,364.400 72.986,364.400 73.213 C 364.400 73.731,362.109 76.000,361.586 76.000 C 361.374 76.000,361.200 76.270,361.200 76.600 C 361.200 76.930,360.930 77.200,360.600 77.200 C 360.270 77.200,360.000 77.470,360.000 77.800 C 360.000 78.130,359.730 78.400,359.400 78.400 C 359.070 78.400,358.800 78.566,358.800 78.769 C 358.800 79.250,356.450 81.600,355.969 81.600 C 355.766 81.600,355.600 81.870,355.600 82.200 C 355.600 82.530,355.330 82.800,355.000 82.800 C 354.670 82.800,354.400 83.070,354.400 83.400 C 354.400 83.730,354.130 84.000,353.800 84.000 C 353.470 84.000,353.200 84.270,353.200 84.600 C 353.200 84.930,352.930 85.200,352.600 85.200 C 352.270 85.200,352.000 85.386,352.000 85.613 C 352.000 86.131,349.709 88.400,349.186 88.400 C 348.974 88.400,348.800 88.670,348.800 89.000 C 348.800 89.330,348.530 89.600,348.200 89.600 C 347.870 89.600,347.600 89.870,347.600 90.200 C 347.600 90.530,347.330 90.800,347.000 90.800 C 346.670 90.800,346.400 90.966,346.400 91.169 C 346.400 91.650,344.050 94.000,343.569 94.000 C 343.366 94.000,343.200 94.270,343.200 94.600 C 343.200 94.930,342.930 95.200,342.600 95.200 C 342.270 95.200,342.000 95.470,342.000 95.800 C 342.000 96.130,341.730 96.400,341.400 96.400 C 341.070 96.400,340.800 96.670,340.800 97.000 C 340.800 97.330,340.530 97.600,340.200 97.600 C 339.870 97.600,339.600 97.793,339.600 98.029 C 339.600 98.582,338.582 99.600,338.029 99.600 C 337.793 99.600,337.600 99.870,337.600 100.200 C 337.600 100.530,337.330 100.800,337.000 100.800 C 336.670 100.800,336.400 101.070,336.400 101.400 C 336.400 101.730,336.130 102.000,335.800 102.000 C 335.470 102.000,335.200 102.270,335.200 102.600 C 335.200 102.930,334.930 103.200,334.600 103.200 C 334.270 103.200,334.000 103.366,334.000 103.569 C 334.000 104.050,331.650 106.400,331.169 106.400 C 330.966 106.400,330.800 106.670,330.800 107.000 C 330.800 107.330,330.530 107.600,330.200 107.600 C 329.870 107.600,329.600 107.870,329.600 108.200 C 329.600 108.530,329.330 108.800,329.000 108.800 C 328.670 108.800,328.400 108.974,328.400 109.186 C 328.400 109.709,326.131 112.000,325.613 112.000 C 325.386 112.000,325.200 112.270,325.200 112.600 C 325.200 112.930,324.930 113.200,324.600 113.200 C 324.270 113.200,324.000 113.470,324.000 113.800 C 324.000 114.130,323.730 114.400,323.400 114.400 C 323.070 114.400,322.800 114.670,322.800 115.000 C 322.800 115.330,322.530 115.600,322.200 115.600 C 321.870 115.600,321.600 115.766,321.600 115.969 C 321.600 116.450,319.250 118.800,318.769 118.800 C 318.566 118.800,318.400 119.070,318.400 119.400 C 318.400 119.730,318.130 120.000,317.800 120.000 C 317.470 120.000,317.200 120.270,317.200 120.600 C 317.200 120.930,316.930 121.200,316.600 121.200 C 316.270 121.200,316.000 121.374,316.000 121.586 C 316.000 122.109,313.731 124.400,313.213 124.400 C 312.986 124.400,312.800 124.670,312.800 125.000 C 312.800 125.330,312.530 125.600,312.200 125.600 C 311.870 125.600,311.600 125.870,311.600 126.200 C 311.600 126.530,311.330 126.800,311.000 126.800 C 310.670 126.800,310.400 127.070,310.400 127.400 C 310.400 127.730,310.130 128.000,309.800 128.000 C 309.470 128.000,309.200 128.186,309.200 128.413 C 309.200 128.931,306.909 131.200,306.386 131.200 C 306.174 131.200,306.000 131.470,306.000 131.800 C 306.000 132.130,305.730 132.400,305.400 132.400 C 305.070 132.400,304.800 132.670,304.800 133.000 C 304.800 133.330,304.530 133.600,304.200 133.600 C 303.870 133.600,303.600 133.774,303.600 133.986 C 303.600 134.509,301.331 136.800,300.813 136.800 C 300.586 136.800,300.400 137.070,300.400 137.400 C 300.400 137.730,300.130 138.000,299.800 138.000 C 299.470 138.000,299.200 138.270,299.200 138.600 C 299.200 138.930,298.930 139.200,298.600 139.200 C 298.270 139.200,298.000 139.470,298.000 139.800 C 298.000 140.130,297.730 140.400,297.400 140.400 C 297.070 140.400,296.800 140.586,296.800 140.813 C 296.800 141.331,294.509 143.600,293.986 143.600 C 293.774 143.600,293.600 143.870,293.600 144.200 C 293.600 144.530,293.330 144.800,293.000 144.800 C 292.670 144.800,292.400 145.070,292.400 145.400 C 292.400 145.730,292.130 146.000,291.800 146.000 C 291.470 146.000,291.200 146.174,291.200 146.386 C 291.200 146.909,288.931 149.200,288.413 149.200 C 288.186 149.200,288.000 149.470,288.000 149.800 C 288.000 150.130,287.730 150.400,287.400 150.400 C 287.070 150.400,286.800 150.670,286.800 151.000 C 286.800 151.330,286.530 151.600,286.200 151.600 C 285.870 151.600,285.600 151.870,285.600 152.200 C 285.600 152.530,285.330 152.800,285.000 152.800 C 284.670 152.800,284.400 152.986,284.400 153.213 C 284.400 153.731,282.109 156.000,281.586 156.000 C 281.374 156.000,281.200 156.270,281.200 156.600 C 281.200 156.930,280.930 157.200,280.600 157.200 C 280.270 157.200,280.000 157.470,280.000 157.800 C 280.000 158.130,279.730 158.400,279.400 158.400 C 279.070 158.400,278.800 158.566,278.800 158.769 C 278.800 159.250,276.450 161.600,275.969 161.600 C 275.766 161.600,275.600 161.870,275.600 162.200 C 275.600 162.530,275.330 162.800,275.000 162.800 C 274.670 162.800,274.400 163.070,274.400 163.400 C 274.400 163.730,274.130 164.000,273.800 164.000 C 273.470 164.000,273.200 164.270,273.200 164.600 C 273.200 164.930,272.930 165.200,272.600 165.200 C 272.270 165.200,272.000 165.386,272.000 165.613 C 272.000 166.131,269.709 168.400,269.186 168.400 C 268.974 168.400,268.800 168.670,268.800 169.000 C 268.800 169.330,268.530 169.600,268.200 169.600 C 267.870 169.600,267.600 169.870,267.600 170.200 C 267.600 170.530,267.330 170.800,267.000 170.800 C 266.670 170.800,266.400 170.966,266.400 171.169 C 266.400 171.650,264.050 174.000,263.569 174.000 C 263.366 174.000,263.200 174.270,263.200 174.600 C 263.200 174.930,262.930 175.200,262.600 175.200 C 262.270 175.200,262.000 175.470,262.000 175.800 C 262.000 176.130,261.730 176.400,261.400 176.400 C 261.070 176.400,260.800 176.670,260.800 177.000 C 260.800 177.330,260.530 177.600,260.200 177.600 C 259.870 177.600,259.600 177.793,259.600 178.029 C 259.600 178.582,258.582 179.600,258.029 179.600 C 257.793 179.600,257.600 179.870,257.600 180.200 C 257.600 180.530,257.330 180.800,257.000 180.800 C 256.670 180.800,256.400 181.070,256.400 181.400 C 256.400 181.730,256.130 182.000,255.800 182.000 C 255.470 182.000,255.200 182.270,255.200 182.600 C 255.200 182.930,254.930 183.200,254.600 183.200 C 254.270 183.200,254.000 183.366,254.000 183.569 C 254.000 184.050,251.650 186.400,251.169 186.400 C 250.966 186.400,250.800 186.670,250.800 187.000 C 250.800 187.330,250.530 187.600,250.200 187.600 C 249.870 187.600,249.600 187.870,249.600 188.200 C 249.600 188.530,249.330 188.800,249.000 188.800 C 248.670 188.800,248.400 188.974,248.400 189.186 C 248.400 189.709,246.131 192.000,245.613 192.000 C 245.386 192.000,245.200 192.270,245.200 192.600 C 245.200 192.930,244.930 193.200,244.600 193.200 C 244.270 193.200,244.000 193.470,244.000 193.800 C 244.000 194.130,243.730 194.400,243.400 194.400 C 243.070 194.400,242.800 194.670,242.800 195.000 C 242.800 195.330,242.530 195.600,242.200 195.600 C 241.870 195.600,241.600 195.766,241.600 195.969 C 241.600 196.450,239.250 198.800,238.769 198.800 C 238.566 198.800,238.400 199.070,238.400 199.400 C 238.400 199.730,238.130 200.000,237.800 200.000 C 237.470 200.000,237.200 200.270,237.200 200.600 C 237.200 200.930,236.930 201.200,236.600 201.200 C 236.270 201.200,236.000 201.374,236.000 201.586 C 236.000 202.109,233.731 204.400,233.213 204.400 C 232.986 204.400,232.800 204.670,232.800 205.000 C 232.800 205.330,232.530 205.600,232.200 205.600 C 231.870 205.600,231.600 205.870,231.600 206.200 C 231.600 206.530,231.330 206.800,231.000 206.800 C 230.670 206.800,230.400 207.070,230.400 207.400 C 230.400 207.730,230.130 208.000,229.800 208.000 C 229.470 208.000,229.200 208.186,229.200 208.413 C 229.200 208.931,226.909 211.200,226.386 211.200 C 226.174 211.200,226.000 211.470,226.000 211.800 C 226.000 212.130,225.730 212.400,225.400 212.400 C 225.070 212.400,224.800 212.670,224.800 213.000 C 224.800 213.330,224.530 213.600,224.200 213.600 C 223.870 213.600,223.600 213.774,223.600 213.986 C 223.600 214.509,221.331 216.800,220.813 216.800 C 220.586 216.800,220.400 217.070,220.400 217.400 C 220.400 217.730,220.130 218.000,219.800 218.000 C 219.470 218.000,219.200 218.270,219.200 218.600 C 219.200 218.930,218.930 219.200,218.600 219.200 C 218.270 219.200,218.000 219.470,218.000 219.800 C 218.000 220.130,217.730 220.400,217.400 220.400 C 217.070 220.400,216.800 220.586,216.800 220.813 C 216.800 221.331,214.509 223.600,213.986 223.600 C 213.774 223.600,213.600 223.870,213.600 224.200 C 213.600 224.530,213.330 224.800,213.000 224.800 C 212.670 224.800,212.400 225.070,212.400 225.400 C 212.400 225.730,212.130 226.000,211.800 226.000 C 211.470 226.000,211.200 226.174,211.200 226.386 C 211.200 226.909,208.931 229.200,208.413 229.200 C 208.186 229.200,208.000 229.470,208.000 229.800 C 208.000 230.130,207.730 230.400,207.400 230.400 C 207.070 230.400,206.800 230.670,206.800 231.000 C 206.800 231.330,206.530 231.600,206.200 231.600 C 205.870 231.600,205.600 231.870,205.600 232.200 C 205.600 232.530,205.330 232.800,205.000 232.800 C 204.670 232.800,204.400 232.986,204.400 233.213 C 204.400 233.731,202.109 236.000,201.586 236.000 C 201.374 236.000,201.200 236.270,201.200 236.600 C 201.200 236.930,200.930 237.200,200.600 237.200 C 200.270 237.200,200.000 237.470,200.000 237.800 C 200.000 238.130,199.730 238.400,199.400 238.400 C 199.070 238.400,198.800 238.130,198.800 237.800 C 198.800 237.470,198.530 237.200,198.200 237.200 C 197.870 237.200,197.600 237.006,197.600 236.769 C 197.600 236.209,195.391 234.000,194.831 234.000 C 194.594 234.000,194.400 233.730,194.400 233.400 C 194.400 233.070,194.130 232.800,193.800 232.800 C 193.470 232.800,193.200 232.530,193.200 232.200 C 193.200 231.870,192.930 231.600,192.600 231.600 C 192.270 231.600,192.000 231.330,192.000 231.000 C 192.000 230.670,191.730 230.400,191.400 230.400 C 191.070 230.400,190.800 230.206,190.800 229.969 C 190.800 229.732,190.274 229.012,189.631 228.369 C 188.988 227.726,188.268 227.200,188.031 227.200 C 187.794 227.200,187.600 226.930,187.600 226.600 C 187.600 226.270,187.330 226.000,187.000 226.000 C 186.670 226.000,186.400 225.730,186.400 225.400 C 186.400 225.070,186.130 224.800,185.800 224.800 C 185.470 224.800,185.200 224.606,185.200 224.369 C 185.200 223.809,182.991 221.600,182.431 221.600 C 182.194 221.600,182.000 221.330,182.000 221.000 C 182.000 220.670,181.730 220.400,181.400 220.400 C 181.070 220.400,180.800 220.130,180.800 219.800 C 180.800 219.470,180.530 219.200,180.200 219.200 C 179.870 219.200,179.600 218.930,179.600 218.600 C 179.600 218.270,179.330 218.000,179.000 218.000 C 178.670 218.000,178.400 217.806,178.400 217.569 C 178.400 217.009,176.191 214.800,175.631 214.800 C 175.394 214.800,175.200 214.530,175.200 214.200 C 175.200 213.870,174.930 213.600,174.600 213.600 C 174.270 213.600,174.000 213.330,174.000 213.000 C 174.000 212.670,173.730 212.400,173.400 212.400 C 173.070 212.400,172.800 212.206,172.800 211.969 C 172.800 211.409,170.591 209.200,170.031 209.200 C 169.794 209.200,169.600 208.930,169.600 208.600 C 169.600 208.270,169.330 208.000,169.000 208.000 C 168.670 208.000,168.400 207.730,168.400 207.400 C 168.400 207.070,168.130 206.800,167.800 206.800 C 167.470 206.800,167.200 206.530,167.200 206.200 C 167.200 205.870,166.930 205.600,166.600 205.600 C 166.270 205.600,166.000 205.406,166.000 205.169 C 166.000 204.932,165.474 204.212,164.831 203.569 C 164.188 202.926,163.468 202.400,163.231 202.400 C 162.994 202.400,162.800 202.130,162.800 201.800 C 162.800 201.470,162.530 201.200,162.200 201.200 C 161.870 201.200,161.600 200.930,161.600 200.600 C 161.600 200.270,161.330 200.000,161.000 200.000 C 160.670 200.000,160.400 199.806,160.400 199.569 C 160.400 199.332,159.874 198.612,159.231 197.969 C 158.588 197.326,157.868 196.800,157.631 196.800 C 157.394 196.800,157.200 196.530,157.200 196.200 C 157.200 195.870,156.930 195.600,156.600 195.600 C 156.270 195.600,156.000 195.330,156.000 195.000 C 156.000 194.670,155.730 194.400,155.400 194.400 C 155.070 194.400,154.800 194.130,154.800 193.800 C 154.800 193.470,154.530 193.200,154.200 193.200 C 153.870 193.200,153.600 193.014,153.600 192.787 C 153.600 192.269,151.309 190.000,150.786 190.000 C 150.574 190.000,150.400 189.730,150.400 189.400 C 150.400 189.070,150.130 188.800,149.800 188.800 C 149.470 188.800,149.200 188.530,149.200 188.200 C 149.200 187.870,148.930 187.600,148.600 187.600 C 148.270 187.600,148.000 187.406,148.000 187.169 C 148.000 186.932,147.474 186.212,146.831 185.569 C 146.188 184.926,145.468 184.400,145.231 184.400 C 144.994 184.400,144.800 184.130,144.800 183.800 C 144.800 183.470,144.530 183.200,144.200 183.200 C 143.870 183.200,143.600 182.930,143.600 182.600 C 143.600 182.270,143.330 182.000,143.000 182.000 C 142.670 182.000,142.400 181.730,142.400 181.400 C 142.400 181.070,142.130 180.800,141.800 180.800 C 141.470 180.800,141.200 180.607,141.200 180.371 C 141.200 180.136,140.943 179.686,140.629 179.371 C 140.314 179.057,139.864 178.800,139.629 178.800 C 139.393 178.800,139.200 178.530,139.200 178.200 C 139.200 177.870,138.930 177.600,138.600 177.600 C 138.270 177.600,138.000 177.330,138.000 177.000 C 138.000 176.670,137.730 176.400,137.400 176.400 C 137.070 176.400,136.800 176.130,136.800 175.800 C 136.800 175.470,136.530 175.200,136.200 175.200 C 135.870 175.200,135.600 175.006,135.600 174.769 C 135.600 174.532,135.074 173.812,134.431 173.169 C 133.788 172.526,133.068 172.000,132.831 172.000 C 132.594 172.000,132.400 171.730,132.400 171.400 C 132.400 171.070,132.130 170.800,131.800 170.800 C 131.470 170.800,131.200 170.530,131.200 170.200 C 131.200 169.870,130.930 169.600,130.600 169.600 C 130.270 169.600,130.000 169.426,130.000 169.214 C 130.000 168.691,127.731 166.400,127.213 166.400 C 126.986 166.400,126.800 166.130,126.800 165.800 C 126.800 165.470,126.530 165.200,126.200 165.200 C 125.870 165.200,125.600 164.930,125.600 164.600 C 125.600 164.270,125.330 164.000,125.000 164.000 C 124.670 164.000,124.400 163.730,124.400 163.400 C 124.400 163.070,124.130 162.800,123.800 162.800 C 123.470 162.800,123.200 162.606,123.200 162.369 C 123.200 162.132,122.674 161.412,122.031 160.769 C 121.388 160.126,120.668 159.600,120.431 159.600 C 120.194 159.600,120.000 159.330,120.000 159.000 C 120.000 158.670,119.730 158.400,119.400 158.400 C 119.070 158.400,118.800 158.130,118.800 157.800 C 118.800 157.470,118.530 157.200,118.200 157.200 C 117.870 157.200,117.600 157.006,117.600 156.769 C 117.600 156.532,117.074 155.812,116.431 155.169 C 115.788 154.526,115.068 154.000,114.831 154.000 C 114.594 154.000,114.400 153.730,114.400 153.400 C 114.400 153.070,114.130 152.800,113.800 152.800 C 113.470 152.800,113.200 152.530,113.200 152.200 C 113.200 151.870,112.930 151.600,112.600 151.600 C 112.270 151.600,112.000 151.330,112.000 151.000 C 112.000 150.670,111.730 150.400,111.400 150.400 C 111.070 150.400,110.800 150.206,110.800 149.969 C 110.800 149.732,110.274 149.012,109.631 148.369 C 108.988 147.726,108.268 147.200,108.031 147.200 C 107.794 147.200,107.600 146.930,107.600 146.600 C 107.600 146.270,107.330 146.000,107.000 146.000 C 106.670 146.000,106.400 145.730,106.400 145.400 C 106.400 145.070,106.130 144.800,105.800 144.800 C 105.470 144.800,105.200 144.606,105.200 144.369 C 105.200 143.809,102.991 141.600,102.431 141.600 C 102.194 141.600,102.000 141.330,102.000 141.000 C 102.000 140.670,101.730 140.400,101.400 140.400 C 101.070 140.400,100.800 140.130,100.800 139.800 C 100.800 139.470,100.530 139.200,100.200 139.200 C 99.870 139.200,99.600 138.930,99.600 138.600 C 99.600 138.270,99.330 138.000,99.000 138.000 C 98.670 138.000,98.400 137.806,98.400 137.569 C 98.400 137.009,96.191 134.800,95.631 134.800 C 95.394 134.800,95.200 134.530,95.200 134.200 C 95.200 133.870,94.930 133.600,94.600 133.600 C 94.270 133.600,94.000 133.330,94.000 133.000 C 94.000 132.670,93.730 132.400,93.400 132.400 C 93.070 132.400,92.800 132.206,92.800 131.969 C 92.800 131.409,90.591 129.200,90.031 129.200 C 89.794 129.200,89.600 128.930,89.600 128.600 C 89.600 128.270,89.330 128.000,89.000 128.000 C 88.670 128.000,88.400 127.730,88.400 127.400 C 88.400 127.070,88.130 126.800,87.800 126.800 C 87.470 126.800,87.200 126.530,87.200 126.200 C 87.200 125.870,86.930 125.600,86.600 125.600 C 86.270 125.600,86.000 125.406,86.000 125.169 C 86.000 124.609,83.791 122.400,83.231 122.400 C 82.994 122.400,82.800 122.130,82.800 121.800 C 82.800 121.470,82.530 121.200,82.200 121.200 C 81.870 121.200,81.600 120.930,81.600 120.600 C 81.600 120.270,81.330 120.000,81.000 120.000 C 80.670 120.000,80.400 119.806,80.400 119.569 C 80.400 119.009,78.191 116.800,77.631 116.800 C 77.394 116.800,77.200 116.530,77.200 116.200 C 77.200 115.870,76.930 115.600,76.600 115.600 C 76.270 115.600,76.000 115.330,76.000 115.000 C 76.000 114.670,75.730 114.400,75.400 114.400 C 75.070 114.400,74.800 114.130,74.800 113.800 C 74.800 113.470,74.530 113.200,74.200 113.200 C 73.870 113.200,73.600 113.014,73.600 112.787 C 73.600 112.269,71.309 110.000,70.786 110.000 C 70.574 110.000,70.400 109.730,70.400 109.400 C 70.400 109.070,70.130 108.800,69.800 108.800 C 69.470 108.800,69.200 108.530,69.200 108.200 C 69.200 107.870,68.930 107.600,68.600 107.600 C 68.270 107.600,68.000 107.406,68.000 107.169 C 68.000 106.609,65.791 104.400,65.231 104.400 C 64.994 104.400,64.800 104.130,64.800 103.800 C 64.800 103.470,64.530 103.200,64.200 103.200 C 63.870 103.200,63.600 102.930,63.600 102.600 C 63.600 102.270,63.330 102.000,63.000 102.000 C 62.670 102.000,62.400 101.730,62.400 101.400 C 62.400 101.070,62.130 100.800,61.800 100.800 C 61.470 100.800,61.200 100.607,61.200 100.371 C 61.200 99.818,60.182 98.800,59.629 98.800 C 59.393 98.800,59.200 98.530,59.200 98.200 C 59.200 97.870,58.930 97.600,58.600 97.600 C 58.270 97.600,58.000 97.330,58.000 97.000 C 58.000 96.670,57.730 96.400,57.400 96.400 C 57.070 96.400,56.800 96.130,56.800 95.800 C 56.800 95.470,56.530 95.200,56.200 95.200 C 55.870 95.200,55.600 95.006,55.600 94.769 C 55.600 94.532,55.074 93.812,54.431 93.169 C 53.788 92.526,53.068 92.000,52.831 92.000 C 52.594 92.000,52.400 91.730,52.400 91.400 C 52.400 91.070,52.130 90.800,51.800 90.800 C 51.470 90.800,51.200 90.530,51.200 90.200 C 51.200 89.870,50.930 89.600,50.600 89.600 C 50.270 89.600,50.000 89.426,50.000 89.214 C 50.000 88.691,47.731 86.400,47.213 86.400 C 46.986 86.400,46.800 86.130,46.800 85.800 C 46.800 85.470,46.530 85.200,46.200 85.200 C 45.870 85.200,45.600 84.930,45.600 84.600 C 45.600 84.270,45.330 84.000,45.000 84.000 C 44.670 84.000,44.400 83.730,44.400 83.400 C 44.400 83.070,44.130 82.800,43.800 82.800 C 43.470 82.800,43.200 82.606,43.200 82.369 C 43.200 81.809,40.991 79.600,40.431 79.600 C 40.194 79.600,40.000 79.330,40.000 79.000 C 40.000 78.670,39.730 78.400,39.400 78.400 C 39.070 78.400,38.800 78.130,38.800 77.800 C 38.800 77.470,38.530 77.200,38.200 77.200 C 37.870 77.200,37.600 77.006,37.600 76.769 C 37.600 76.209,35.391 74.000,34.831 74.000 C 34.594 74.000,34.400 73.730,34.400 73.400 C 34.400 73.070,34.130 72.800,33.800 72.800 C 33.470 72.800,33.200 72.530,33.200 72.200 C 33.200 71.870,32.930 71.600,32.600 71.600 C 32.270 71.600,32.000 71.330,32.000 71.000 C 32.000 70.670,31.730 70.400,31.400 70.400 C 31.070 70.400,30.800 70.206,30.800 69.969 C 30.800 69.409,28.591 67.200,28.031 67.200 C 27.794 67.200,27.600 66.930,27.600 66.600 C 27.600 66.270,27.330 66.000,27.000 66.000 C 26.670 66.000,26.400 65.730,26.400 65.400 C 26.400 65.070,26.130 64.800,25.800 64.800 C 25.470 64.800,25.200 64.530,25.200 64.200 C 25.200 63.827,24.822 63.600,24.200 63.600 C 23.578 63.600,23.200 63.827,23.200 64.200 "
              stroke="none" fill="#5c6c73" fill-rule="evenodd"></path>
        <path id="path1"
              d="M196.960 58.724 C 196.102 59.342,195.130 59.974,194.800 60.128 C 194.470 60.282,193.660 60.755,193.000 61.177 C 191.396 62.204,189.035 63.503,186.600 64.699 C 185.500 65.239,184.330 65.844,184.000 66.043 C 183.670 66.242,183.130 66.508,182.800 66.634 C 182.470 66.760,181.722 67.119,181.138 67.431 C 180.554 67.744,179.804 68.000,179.471 68.000 C 179.137 68.000,178.265 68.300,177.532 68.668 C 175.357 69.758,175.033 69.885,173.691 70.180 C 172.986 70.335,172.306 70.628,172.181 70.831 C 172.055 71.034,171.378 71.206,170.676 71.213 C 169.974 71.220,169.051 71.490,168.624 71.813 C 168.196 72.136,167.272 72.400,166.569 72.400 C 165.866 72.400,164.776 72.669,164.146 72.998 C 163.516 73.326,162.403 73.596,161.674 73.598 C 160.944 73.599,159.998 73.787,159.570 74.016 C 159.143 74.245,157.580 74.613,156.097 74.833 C 154.613 75.054,151.690 75.504,149.600 75.833 C 147.510 76.161,143.722 76.570,141.182 76.741 C 138.643 76.911,136.303 77.215,135.982 77.416 C 135.662 77.616,130.900 77.917,125.400 78.085 C 119.900 78.252,111.170 78.554,106.000 78.755 C 100.830 78.956,95.025 79.138,93.100 79.160 C 90.273 79.192,89.600 79.315,89.600 79.800 C 89.600 80.130,89.870 80.400,90.200 80.400 C 90.530 80.400,90.800 80.670,90.800 81.000 C 90.800 81.330,91.070 81.600,91.400 81.600 C 91.730 81.600,92.000 81.870,92.000 82.200 C 92.000 82.530,92.270 82.800,92.600 82.800 C 92.930 82.800,93.158 82.935,93.106 83.100 C 92.980 83.501,95.462 86.000,95.987 86.000 C 96.214 86.000,96.400 86.270,96.400 86.600 C 96.400 86.930,96.670 87.200,97.000 87.200 C 97.330 87.200,97.600 87.470,97.600 87.800 C 97.600 88.130,97.870 88.400,98.200 88.400 C 98.530 88.400,98.800 88.574,98.800 88.786 C 98.800 89.309,101.294 91.826,101.687 91.700 C 101.859 91.645,102.000 91.870,102.000 92.200 C 102.000 92.530,102.270 92.800,102.600 92.800 C 102.930 92.800,103.200 93.070,103.200 93.400 C 103.200 93.730,103.470 94.000,103.800 94.000 C 104.130 94.000,104.400 94.270,104.400 94.600 C 104.400 94.930,104.670 95.200,105.000 95.200 C 105.330 95.200,105.558 95.335,105.506 95.500 C 105.380 95.901,107.862 98.400,108.387 98.400 C 108.614 98.400,108.800 98.670,108.800 99.000 C 108.800 99.330,109.070 99.600,109.400 99.600 C 109.730 99.600,110.000 99.870,110.000 100.200 C 110.000 100.530,110.270 100.800,110.600 100.800 C 110.930 100.800,111.200 100.975,111.200 101.189 C 111.200 101.697,114.703 105.200,115.211 105.200 C 115.425 105.200,115.600 105.470,115.600 105.800 C 115.600 106.130,115.870 106.400,116.200 106.400 C 116.530 106.400,116.800 106.574,116.800 106.787 C 116.800 107.331,119.498 109.969,119.773 109.693 C 119.898 109.569,120.000 109.767,120.000 110.133 C 120.000 110.500,120.270 110.800,120.600 110.800 C 120.930 110.800,121.200 111.070,121.200 111.400 C 121.200 111.730,121.470 112.000,121.800 112.000 C 122.130 112.000,122.400 112.180,122.400 112.400 C 122.400 112.620,123.480 113.880,124.800 115.200 C 126.120 116.520,127.380 117.600,127.600 117.600 C 127.820 117.600,128.000 117.870,128.000 118.200 C 128.000 118.530,128.270 118.800,128.600 118.800 C 128.930 118.800,129.200 118.960,129.200 119.155 C 129.200 119.637,132.740 123.200,133.219 123.200 C 133.428 123.200,133.600 123.470,133.600 123.800 C 133.600 124.130,133.870 124.400,134.200 124.400 C 134.530 124.400,134.800 124.575,134.800 124.789 C 134.800 125.004,135.615 125.994,136.611 126.989 C 137.606 127.985,138.596 128.800,138.811 128.800 C 139.025 128.800,139.200 129.070,139.200 129.400 C 139.200 129.730,139.470 130.000,139.800 130.000 C 140.130 130.000,140.400 130.270,140.400 130.600 C 140.400 130.930,140.670 131.200,141.000 131.200 C 141.330 131.200,141.600 131.379,141.600 131.598 C 141.600 132.134,145.044 135.600,145.577 135.600 C 145.810 135.600,146.000 135.870,146.000 136.200 C 146.000 136.530,146.270 136.800,146.600 136.800 C 146.930 136.800,147.200 137.070,147.200 137.400 C 147.200 137.730,147.470 138.000,147.800 138.000 C 148.130 138.000,148.400 138.186,148.400 138.413 C 148.400 138.931,150.691 141.200,151.214 141.200 C 151.426 141.200,151.600 141.470,151.600 141.800 C 151.600 142.130,151.870 142.400,152.200 142.400 C 152.530 142.400,152.800 142.670,152.800 143.000 C 152.800 143.330,153.070 143.600,153.400 143.600 C 153.730 143.600,154.000 143.786,154.000 144.013 C 154.000 144.538,156.499 147.020,156.900 146.894 C 157.065 146.842,157.200 147.070,157.200 147.400 C 157.200 147.730,157.470 148.000,157.800 148.000 C 158.130 148.000,158.400 148.270,158.400 148.600 C 158.400 148.930,158.670 149.200,159.000 149.200 C 159.330 149.200,159.600 149.394,159.600 149.632 C 159.600 150.194,163.006 153.600,163.568 153.600 C 163.806 153.600,164.000 153.870,164.000 154.200 C 164.000 154.530,164.270 154.800,164.600 154.800 C 164.930 154.800,165.200 155.070,165.200 155.400 C 165.200 155.730,165.470 156.000,165.800 156.000 C 166.130 156.000,166.400 156.194,166.400 156.432 C 166.400 156.994,169.806 160.400,170.368 160.400 C 170.606 160.400,170.800 160.670,170.800 161.000 C 170.800 161.330,171.070 161.600,171.400 161.600 C 171.730 161.600,172.000 161.870,172.000 162.200 C 172.000 162.530,172.270 162.800,172.600 162.800 C 172.930 162.800,173.158 162.935,173.106 163.100 C 172.980 163.501,175.462 166.000,175.987 166.000 C 176.214 166.000,176.400 166.270,176.400 166.600 C 176.400 166.930,176.670 167.200,177.000 167.200 C 177.330 167.200,177.600 167.470,177.600 167.800 C 177.600 168.130,177.870 168.400,178.200 168.400 C 178.530 168.400,178.800 168.574,178.800 168.786 C 178.800 169.309,181.294 171.826,181.687 171.700 C 181.859 171.645,182.000 171.870,182.000 172.200 C 182.000 172.530,182.270 172.800,182.600 172.800 C 182.930 172.800,183.200 173.070,183.200 173.400 C 183.200 173.730,183.470 174.000,183.800 174.000 C 184.130 174.000,184.400 174.270,184.400 174.600 C 184.400 174.930,184.670 175.200,185.000 175.200 C 185.330 175.200,185.558 175.335,185.506 175.500 C 185.380 175.901,187.862 178.400,188.387 178.400 C 188.614 178.400,188.800 178.670,188.800 179.000 C 188.800 179.330,189.070 179.600,189.400 179.600 C 189.730 179.600,190.000 179.870,190.000 180.200 C 190.000 180.530,190.270 180.800,190.600 180.800 C 190.930 180.800,191.200 180.975,191.200 181.189 C 191.200 181.697,194.703 185.200,195.211 185.200 C 195.425 185.200,195.600 185.470,195.600 185.800 C 195.600 186.130,195.870 186.400,196.200 186.400 C 196.530 186.400,196.800 186.580,196.800 186.800 C 196.800 187.747,198.469 188.845,199.724 188.724 L 201.000 188.600 201.103 123.348 L 201.207 58.095 200.303 57.853 C 198.868 57.468,198.610 57.536,196.960 58.724 M90.405 214.100 C 90.409 238.311,90.505 243.357,91.000 245.200 C 91.325 246.410,91.593 248.334,91.595 249.476 C 91.598 250.618,91.770 251.658,91.977 251.786 C 92.184 251.914,92.463 252.869,92.597 253.909 C 92.731 254.949,92.990 256.077,93.171 256.415 C 93.353 256.754,93.629 257.788,93.785 258.713 C 93.942 259.639,94.234 260.497,94.435 260.622 C 94.636 260.746,94.800 261.342,94.800 261.947 C 94.800 262.552,95.064 263.396,95.387 263.824 C 95.710 264.251,95.980 264.932,95.987 265.338 C 95.994 265.744,96.249 266.554,96.554 267.138 C 96.858 267.722,97.384 268.830,97.722 269.600 C 99.407 273.438,102.487 279.401,104.023 281.800 C 104.445 282.460,104.916 283.270,105.068 283.600 C 105.221 283.930,106.033 285.137,106.873 286.283 C 107.713 287.429,108.400 288.452,108.400 288.558 C 108.400 288.664,108.940 289.342,109.600 290.064 C 110.260 290.787,110.800 291.517,110.800 291.686 C 110.800 291.978,111.891 293.382,113.200 294.776 C 113.530 295.127,114.430 296.221,115.200 297.207 C 116.759 299.204,120.773 303.492,123.748 306.337 C 124.819 307.362,126.744 309.220,128.024 310.467 C 129.305 311.714,130.612 312.884,130.930 313.067 C 131.247 313.250,132.473 314.243,133.653 315.274 C 137.351 318.501,137.716 318.800,137.965 318.800 C 138.099 318.800,138.669 319.227,139.232 319.750 C 139.796 320.272,140.964 321.151,141.828 321.703 C 142.693 322.254,143.788 323.042,144.263 323.453 C 144.737 323.864,145.523 324.470,146.010 324.800 C 146.496 325.130,147.592 325.895,148.444 326.500 C 149.296 327.105,150.069 327.600,150.162 327.600 C 150.256 327.600,151.756 328.559,153.497 329.731 C 155.238 330.903,156.919 331.985,157.231 332.135 C 157.544 332.286,158.340 332.765,159.000 333.200 C 159.660 333.635,160.470 334.116,160.800 334.270 C 161.130 334.423,162.490 335.212,163.823 336.023 C 165.156 336.834,166.641 337.623,167.123 337.776 C 167.605 337.929,168.000 338.222,168.000 338.427 C 168.000 338.632,168.349 338.800,168.776 338.800 C 169.203 338.800,169.651 338.959,169.771 339.153 C 170.038 339.585,182.078 345.600,182.675 345.600 C 182.910 345.600,183.326 345.870,183.600 346.200 C 183.874 346.530,184.377 346.800,184.717 346.800 C 185.058 346.800,186.521 347.356,187.968 348.035 C 189.416 348.714,191.050 349.451,191.600 349.672 C 192.150 349.893,193.110 350.327,193.732 350.637 C 194.355 350.947,195.188 351.200,195.583 351.200 C 195.979 351.200,196.526 351.470,196.800 351.800 C 197.303 352.406,199.401 352.605,200.567 352.157 C 201.136 351.939,201.200 348.979,201.200 322.789 L 201.200 293.664 200.039 293.408 C 199.197 293.224,193.150 287.430,178.088 272.377 C 166.654 260.950,157.093 251.600,156.841 251.600 C 156.590 251.600,155.671 252.050,154.800 252.600 C 153.929 253.150,153.105 253.600,152.968 253.600 C 152.832 253.600,152.154 253.845,151.460 254.144 C 147.044 256.050,136.940 256.776,133.308 255.449 C 132.479 255.146,130.765 254.568,129.500 254.166 C 128.235 253.764,127.200 253.292,127.200 253.117 C 127.200 252.943,126.946 252.800,126.635 252.800 C 125.153 252.800,118.637 247.206,116.384 244.000 C 115.843 243.230,115.310 242.510,115.200 242.400 C 114.780 241.980,112.400 236.977,112.400 236.514 C 112.400 236.246,112.147 235.436,111.838 234.714 C 109.354 228.913,110.702 218.007,114.710 211.470 L 115.648 209.939 103.278 197.570 C 96.475 190.766,90.794 185.200,90.654 185.200 C 90.514 185.200,90.402 198.205,90.405 214.100 "
              stroke="none" fill="#dbe3e3" fill-rule="evenodd"></path>
        <path id="path2"
              d="M198.000 5.800 C 198.000 6.130,197.730 6.400,197.400 6.400 C 197.070 6.400,196.800 6.670,196.800 7.000 C 196.800 7.330,196.601 7.600,196.359 7.600 C 196.116 7.600,194.493 9.040,192.752 10.800 C 191.011 12.560,189.409 14.000,189.193 14.000 C 188.977 14.000,188.800 14.270,188.800 14.600 C 188.800 14.930,188.530 15.200,188.200 15.200 C 187.870 15.200,187.600 15.470,187.600 15.800 C 187.600 16.130,187.330 16.400,187.000 16.400 C 186.670 16.400,186.400 16.670,186.400 17.000 C 186.400 17.330,186.130 17.600,185.800 17.600 C 185.470 17.600,185.200 17.793,185.200 18.029 C 185.200 18.613,184.328 19.440,183.381 19.754 C 182.367 20.090,178.800 23.353,178.800 23.945 C 178.800 24.195,178.393 24.400,177.896 24.400 C 177.399 24.400,176.530 24.828,175.967 25.351 C 175.403 25.873,174.550 26.426,174.071 26.578 C 173.592 26.730,173.200 27.022,173.200 27.227 C 173.200 27.432,172.930 27.600,172.600 27.600 C 172.270 27.600,172.000 27.870,172.000 28.200 C 172.000 28.600,171.600 28.800,170.800 28.800 C 170.000 28.800,169.600 29.000,169.600 29.400 C 169.600 29.730,169.255 30.000,168.832 30.000 C 168.010 30.000,165.488 31.203,165.267 31.700 C 165.193 31.865,164.540 32.000,163.816 32.000 C 163.091 32.000,162.274 32.270,162.000 32.600 C 161.726 32.930,160.997 33.200,160.380 33.200 C 159.762 33.200,158.987 33.470,158.657 33.800 C 158.327 34.130,157.409 34.400,156.616 34.400 C 155.704 34.400,155.090 34.620,154.945 35.000 C 154.779 35.431,154.106 35.600,152.557 35.600 C 150.906 35.600,150.400 35.741,150.400 36.200 C 150.400 36.686,149.756 36.800,147.000 36.800 C 145.000 36.800,143.600 36.965,143.600 37.200 C 143.600 37.441,141.929 37.600,139.387 37.600 C 136.012 37.600,135.129 37.719,134.945 38.200 C 134.749 38.711,133.238 38.800,124.745 38.800 C 116.252 38.800,114.741 38.889,114.545 39.400 C 114.343 39.926,110.460 40.000,82.945 40.000 C 49.574 40.000,49.293 40.016,51.735 41.802 C 52.101 42.069,52.400 42.493,52.400 42.744 C 52.400 42.995,52.670 43.200,53.000 43.200 C 53.330 43.200,53.600 43.470,53.600 43.800 C 53.600 44.130,53.870 44.400,54.200 44.400 C 54.530 44.400,54.800 44.573,54.800 44.785 C 54.800 45.323,58.233 48.800,58.764 48.800 C 59.004 48.800,59.200 49.070,59.200 49.400 C 59.200 49.730,59.470 50.000,59.800 50.000 C 60.130 50.000,60.400 50.270,60.400 50.600 C 60.400 50.930,60.670 51.200,61.000 51.200 C 61.330 51.200,61.600 51.394,61.600 51.632 C 61.600 52.194,65.006 55.600,65.568 55.600 C 65.806 55.600,66.000 55.870,66.000 56.200 C 66.000 56.530,66.270 56.800,66.600 56.800 C 66.930 56.800,67.200 56.973,67.200 57.185 C 67.200 57.723,70.633 61.200,71.164 61.200 C 71.404 61.200,71.600 61.470,71.600 61.800 C 71.600 62.130,71.870 62.400,72.200 62.400 C 72.530 62.400,72.800 62.670,72.800 63.000 C 72.800 63.330,73.070 63.600,73.400 63.600 C 73.730 63.600,74.000 63.794,74.000 64.032 C 74.000 64.594,77.406 68.000,77.968 68.000 C 78.206 68.000,78.400 68.270,78.400 68.600 C 78.400 68.930,78.670 69.200,79.000 69.200 C 79.330 69.200,79.600 69.373,79.600 69.585 C 79.600 70.123,83.033 73.600,83.564 73.600 C 83.804 73.600,84.000 73.870,84.000 74.200 C 84.000 74.530,84.270 74.800,84.600 74.800 C 84.930 74.800,85.200 75.070,85.200 75.400 C 85.200 75.730,85.470 76.000,85.800 76.000 C 86.130 76.000,86.400 76.204,86.400 76.454 C 86.400 77.442,88.405 78.826,89.211 78.394 C 89.671 78.148,97.366 77.837,108.488 77.616 C 126.159 77.264,132.313 76.943,140.800 75.931 C 142.890 75.681,145.950 75.357,147.600 75.210 C 149.250 75.063,150.885 74.812,151.233 74.654 C 151.582 74.495,153.112 74.203,154.633 74.005 C 157.527 73.628,160.949 72.902,165.000 71.806 C 166.320 71.449,168.030 71.004,168.800 70.817 C 170.658 70.367,174.786 68.904,177.460 67.746 C 178.154 67.446,178.902 67.200,179.124 67.200 C 179.345 67.200,180.398 66.772,181.463 66.249 C 182.528 65.726,184.660 64.691,186.200 63.949 C 187.740 63.207,189.238 62.375,189.529 62.100 C 189.819 61.825,190.247 61.600,190.478 61.600 C 190.710 61.600,191.977 60.880,193.295 60.000 C 194.613 59.120,195.773 58.400,195.872 58.400 C 195.972 58.400,196.663 57.935,197.408 57.367 C 199.091 56.083,200.027 56.227,200.800 57.891 C 201.130 58.602,201.606 59.187,201.857 59.191 C 202.109 59.196,202.418 59.470,202.545 59.800 C 202.671 60.130,203.141 60.400,203.587 60.400 C 204.034 60.400,204.400 60.580,204.400 60.800 C 204.400 61.020,204.651 61.200,204.957 61.200 C 205.264 61.200,205.618 61.470,205.745 61.800 C 205.871 62.130,206.431 62.400,206.987 62.400 C 207.621 62.400,208.000 62.625,208.000 63.000 C 208.000 63.366,208.373 63.600,208.957 63.600 C 209.484 63.600,210.018 63.870,210.145 64.200 C 210.271 64.530,210.831 64.800,211.387 64.800 C 212.021 64.800,212.400 65.025,212.400 65.400 C 212.400 65.795,212.795 66.000,213.557 66.000 C 214.217 66.000,214.813 66.258,214.945 66.600 C 215.071 66.930,215.530 67.200,215.964 67.200 C 216.398 67.200,216.864 67.380,217.000 67.600 C 217.136 67.820,217.667 68.000,218.181 68.000 C 218.694 68.000,219.218 68.270,219.345 68.600 C 219.490 68.978,220.102 69.200,221.000 69.200 C 221.898 69.200,222.510 69.422,222.655 69.800 C 222.805 70.191,223.428 70.400,224.443 70.400 C 225.560 70.400,226.000 70.569,226.000 71.000 C 226.000 71.421,226.425 71.600,227.429 71.600 C 228.214 71.600,229.127 71.870,229.457 72.200 C 229.828 72.571,230.810 72.800,232.029 72.800 C 233.113 72.800,234.000 72.980,234.000 73.200 C 234.000 73.420,234.990 73.600,236.200 73.600 C 237.889 73.600,238.400 73.739,238.400 74.200 C 238.400 74.676,238.978 74.800,241.200 74.800 C 243.422 74.800,244.000 74.924,244.000 75.400 C 244.000 75.886,244.640 76.000,247.357 76.000 C 249.972 76.000,250.765 76.133,250.945 76.600 C 251.133 77.092,252.141 77.200,256.545 77.200 C 260.949 77.200,261.956 77.308,262.145 77.800 C 262.341 78.311,263.853 78.400,272.354 78.400 C 279.982 78.400,282.373 78.518,282.500 78.900 C 282.778 79.735,309.928 79.853,310.248 79.020 C 310.379 78.679,310.736 78.400,311.043 78.400 C 311.349 78.400,311.600 78.130,311.600 77.800 C 311.600 77.470,311.870 77.200,312.200 77.200 C 312.530 77.200,312.800 76.930,312.800 76.600 C 312.800 76.270,312.980 76.000,313.200 76.000 C 313.420 76.000,313.600 75.730,313.600 75.400 C 313.600 75.070,313.870 74.800,314.200 74.800 C 314.530 74.800,314.800 74.530,314.800 74.200 C 314.800 73.870,315.070 73.600,315.400 73.600 C 315.730 73.600,316.000 73.420,316.000 73.200 C 316.000 72.980,316.270 72.800,316.600 72.800 C 316.930 72.800,317.200 72.530,317.200 72.200 C 317.200 71.870,317.470 71.600,317.800 71.600 C 318.130 71.600,318.400 71.411,318.400 71.181 C 318.400 70.950,318.850 70.345,319.400 69.835 C 319.950 69.325,320.400 68.704,320.400 68.454 C 320.400 68.204,320.604 68.000,320.854 68.000 C 321.104 68.000,321.725 67.550,322.235 67.000 C 322.745 66.450,323.350 66.000,323.581 66.000 C 323.811 66.000,324.000 65.730,324.000 65.400 C 324.000 65.070,324.270 64.800,324.600 64.800 C 324.930 64.800,325.200 64.530,325.200 64.200 C 325.200 63.870,325.380 63.600,325.600 63.600 C 325.820 63.600,326.000 63.330,326.000 63.000 C 326.000 62.670,326.270 62.400,326.600 62.400 C 326.930 62.400,327.200 62.130,327.200 61.800 C 327.200 61.470,327.470 61.200,327.800 61.200 C 328.130 61.200,328.400 61.020,328.400 60.800 C 328.400 60.580,328.670 60.400,329.000 60.400 C 329.330 60.400,329.600 60.130,329.600 59.800 C 329.600 59.470,329.870 59.200,330.200 59.200 C 330.530 59.200,330.800 59.011,330.800 58.781 C 330.800 58.550,331.250 57.945,331.800 57.435 C 332.350 56.925,332.800 56.304,332.800 56.054 C 332.800 55.804,333.004 55.600,333.254 55.600 C 333.504 55.600,334.125 55.150,334.635 54.600 C 335.145 54.050,335.750 53.600,335.981 53.600 C 336.211 53.600,336.400 53.330,336.400 53.000 C 336.400 52.670,336.670 52.400,337.000 52.400 C 337.330 52.400,337.600 52.130,337.600 51.800 C 337.600 51.470,337.780 51.200,338.000 51.200 C 338.220 51.200,338.400 50.930,338.400 50.600 C 338.400 50.270,338.589 50.000,338.819 50.000 C 339.050 50.000,339.655 49.550,340.165 49.000 C 340.675 48.450,341.296 48.000,341.546 48.000 C 341.796 48.000,342.000 47.730,342.000 47.400 C 342.000 47.070,342.270 46.800,342.600 46.800 C 342.930 46.800,343.200 46.611,343.200 46.381 C 343.200 46.150,343.650 45.545,344.200 45.035 C 344.750 44.525,345.200 43.904,345.200 43.654 C 345.200 43.404,345.378 43.200,345.595 43.200 C 346.377 43.200,347.600 41.804,347.600 40.911 L 347.600 40.000 316.771 40.000 C 289.902 40.000,285.866 39.923,285.343 39.400 C 284.842 38.900,283.128 38.800,275.005 38.800 C 267.570 38.800,265.227 38.682,265.101 38.300 C 264.983 37.947,263.507 37.761,260.067 37.667 C 257.390 37.593,255.200 37.368,255.200 37.167 C 255.200 36.965,253.959 36.800,252.443 36.800 C 250.361 36.800,249.629 36.653,249.455 36.200 C 249.290 35.769,248.615 35.600,247.055 35.600 C 245.496 35.600,244.821 35.431,244.655 35.000 C 244.493 34.577,243.832 34.400,242.413 34.400 C 240.890 34.400,240.400 34.254,240.400 33.800 C 240.400 33.369,239.960 33.200,238.843 33.200 C 237.828 33.200,237.205 32.991,237.055 32.600 C 236.929 32.270,236.369 32.000,235.813 32.000 C 235.256 32.000,234.800 31.843,234.800 31.651 C 234.800 31.459,234.080 31.187,233.200 31.046 C 232.320 30.906,231.600 30.613,231.600 30.395 C 231.600 30.178,231.060 30.000,230.400 30.000 C 229.600 30.000,229.200 29.800,229.200 29.400 C 229.200 29.070,228.949 28.800,228.643 28.800 C 228.336 28.800,227.982 28.530,227.855 28.200 C 227.729 27.870,227.279 27.600,226.855 27.600 C 226.432 27.600,225.982 27.330,225.855 27.000 C 225.729 26.670,225.251 26.400,224.793 26.400 C 224.336 26.400,223.545 25.950,223.035 25.400 C 222.525 24.850,221.923 24.400,221.697 24.400 C 221.471 24.400,221.182 24.130,221.055 23.800 C 220.929 23.470,220.459 23.200,220.013 23.200 C 219.557 23.200,219.200 22.936,219.200 22.600 C 219.200 22.270,218.930 22.000,218.600 22.000 C 218.270 22.000,218.000 21.730,218.000 21.400 C 218.000 21.070,217.811 20.800,217.581 20.800 C 217.350 20.800,216.745 20.350,216.235 19.800 C 215.725 19.250,215.104 18.800,214.854 18.800 C 214.604 18.800,214.400 18.530,214.400 18.200 C 214.400 17.870,214.130 17.600,213.800 17.600 C 213.470 17.600,213.200 17.330,213.200 17.000 C 213.200 16.627,212.822 16.400,212.200 16.400 C 211.578 16.400,211.200 16.173,211.200 15.800 C 211.200 15.470,210.930 15.200,210.600 15.200 C 210.270 15.200,210.000 14.930,210.000 14.600 C 210.000 14.270,209.730 14.000,209.400 14.000 C 209.070 14.000,208.800 13.807,208.800 13.571 C 208.800 13.018,207.782 12.000,207.229 12.000 C 206.993 12.000,206.800 11.730,206.800 11.400 C 206.800 11.070,206.530 10.800,206.200 10.800 C 205.870 10.800,205.600 10.530,205.600 10.200 C 205.600 9.870,205.330 9.600,205.000 9.600 C 204.670 9.600,204.400 9.330,204.400 9.000 C 204.400 8.670,204.130 8.400,203.800 8.400 C 203.470 8.400,203.200 8.130,203.200 7.800 C 203.200 7.470,203.039 7.200,202.842 7.200 C 202.645 7.200,202.060 6.753,201.542 6.207 C 200.454 5.060,198.000 4.778,198.000 5.800 M51.200 196.371 C 51.200 240.257,51.273 246.416,51.800 246.943 C 52.250 247.393,52.400 248.502,52.400 251.371 C 52.400 254.508,52.508 255.200,53.000 255.200 C 53.483 255.200,53.600 255.817,53.600 258.357 C 53.600 260.795,53.737 261.567,54.200 261.745 C 54.633 261.911,54.800 262.590,54.800 264.187 C 54.800 265.404,54.955 266.400,55.144 266.400 C 55.334 266.400,55.600 267.344,55.737 268.498 C 55.874 269.651,56.169 270.656,56.393 270.731 C 56.617 270.806,56.800 271.469,56.800 272.205 C 56.800 272.941,57.070 273.813,57.400 274.143 C 57.730 274.473,58.000 275.301,58.000 275.984 C 58.000 276.718,58.245 277.319,58.600 277.455 C 58.987 277.604,59.200 278.223,59.200 279.200 C 59.200 280.177,59.413 280.796,59.800 280.945 C 60.130 281.071,60.400 281.631,60.400 282.187 C 60.400 282.821,60.625 283.200,61.000 283.200 C 61.407 283.200,61.600 283.607,61.600 284.466 C 61.600 285.831,62.749 288.800,63.277 288.800 C 63.455 288.800,63.600 289.256,63.600 289.813 C 63.600 290.369,63.870 290.929,64.200 291.055 C 64.530 291.182,64.800 291.722,64.800 292.255 C 64.800 292.789,65.070 293.329,65.400 293.455 C 65.730 293.582,66.000 294.116,66.000 294.643 C 66.000 295.227,66.234 295.600,66.600 295.600 C 66.963 295.600,67.200 295.971,67.200 296.542 C 67.200 297.059,67.650 297.969,68.200 298.562 C 68.750 299.156,69.200 299.992,69.200 300.421 C 69.200 300.849,69.470 301.200,69.800 301.200 C 70.175 301.200,70.400 301.579,70.400 302.213 C 70.400 302.769,70.670 303.329,71.000 303.455 C 71.330 303.582,71.600 303.936,71.600 304.243 C 71.600 304.549,71.870 304.800,72.200 304.800 C 72.538 304.800,72.800 305.158,72.800 305.619 C 72.800 306.070,73.250 306.855,73.800 307.365 C 74.350 307.875,74.800 308.682,74.800 309.158 C 74.800 309.635,75.070 310.129,75.400 310.255 C 75.730 310.382,76.000 310.736,76.000 311.043 C 76.000 311.349,76.270 311.600,76.600 311.600 C 76.973 311.600,77.200 311.978,77.200 312.600 C 77.200 313.222,77.427 313.600,77.800 313.600 C 78.130 313.600,78.400 313.870,78.400 314.200 C 78.400 314.530,78.670 314.800,79.000 314.800 C 79.330 314.800,79.600 315.070,79.600 315.400 C 79.600 315.730,79.777 316.000,79.992 316.000 C 80.208 316.000,80.498 316.450,80.636 317.000 C 80.774 317.550,81.047 318.000,81.243 318.000 C 81.440 318.000,81.600 318.270,81.600 318.600 C 81.600 318.930,81.870 319.200,82.200 319.200 C 82.530 319.200,82.800 319.470,82.800 319.800 C 82.800 320.130,83.070 320.400,83.400 320.400 C 83.730 320.400,84.000 320.670,84.000 321.000 C 84.000 321.330,84.270 321.600,84.600 321.600 C 84.933 321.600,85.200 321.956,85.200 322.400 C 85.200 322.840,85.920 323.920,86.800 324.800 C 87.680 325.680,88.400 326.580,88.400 326.800 C 88.400 327.020,88.670 327.200,89.000 327.200 C 89.330 327.200,89.600 327.470,89.600 327.800 C 89.600 328.130,89.870 328.400,90.200 328.400 C 90.530 328.400,90.800 328.670,90.800 329.000 C 90.800 329.330,91.070 329.600,91.400 329.600 C 91.730 329.600,92.000 329.766,92.000 329.969 C 92.000 330.450,94.350 332.800,94.831 332.800 C 95.034 332.800,95.200 333.070,95.200 333.400 C 95.200 333.730,95.470 334.000,95.800 334.000 C 96.130 334.000,96.400 334.270,96.400 334.600 C 96.400 334.930,96.670 335.200,97.000 335.200 C 97.330 335.200,97.600 335.470,97.600 335.800 C 97.600 336.130,97.870 336.400,98.200 336.400 C 98.530 336.400,98.800 336.593,98.800 336.829 C 98.800 337.382,99.818 338.400,100.371 338.400 C 100.607 338.400,100.800 338.670,100.800 339.000 C 100.800 339.330,101.070 339.600,101.400 339.600 C 101.730 339.600,102.000 339.870,102.000 340.200 C 102.000 340.530,102.174 340.800,102.386 340.800 C 102.599 340.800,103.325 341.340,104.000 342.000 C 104.675 342.660,105.410 343.200,105.633 343.200 C 105.856 343.200,106.455 343.650,106.965 344.200 C 107.475 344.750,108.096 345.200,108.346 345.200 C 108.596 345.200,108.800 345.470,108.800 345.800 C 108.800 346.130,109.070 346.400,109.400 346.400 C 109.730 346.400,110.000 346.670,110.000 347.000 C 110.000 347.330,110.270 347.600,110.600 347.600 C 110.930 347.600,111.200 347.768,111.200 347.973 C 111.200 348.178,111.588 348.469,112.062 348.620 C 112.537 348.770,113.322 349.323,113.808 349.847 C 114.294 350.371,114.896 350.800,115.146 350.800 C 115.396 350.800,115.600 351.070,115.600 351.400 C 115.600 351.730,115.945 352.000,116.367 352.000 C 116.789 352.000,117.872 352.709,118.774 353.575 C 119.676 354.442,120.816 355.277,121.307 355.431 C 121.798 355.585,122.596 356.136,123.081 356.656 C 123.565 357.175,124.330 357.600,124.781 357.600 C 125.242 357.600,125.600 357.862,125.600 358.200 C 125.600 358.530,125.870 358.800,126.200 358.800 C 126.530 358.800,126.800 359.070,126.800 359.400 C 126.800 359.730,127.070 360.000,127.400 360.000 C 127.730 360.000,128.000 360.177,128.000 360.392 C 128.000 360.608,128.443 360.896,128.984 361.032 C 129.525 361.167,130.177 361.531,130.433 361.839 C 130.689 362.148,131.236 362.400,131.649 362.400 C 132.062 362.400,132.400 362.580,132.400 362.800 C 132.400 363.020,132.670 363.200,133.000 363.200 C 133.330 363.200,133.600 363.470,133.600 363.800 C 133.600 364.175,133.979 364.400,134.613 364.400 C 135.169 364.400,135.729 364.670,135.855 365.000 C 135.982 365.330,136.317 365.600,136.600 365.600 C 136.883 365.600,137.218 365.870,137.345 366.200 C 137.471 366.530,137.921 366.800,138.345 366.800 C 138.768 366.800,139.218 367.070,139.345 367.400 C 139.471 367.730,139.965 368.000,140.442 368.000 C 140.918 368.000,141.725 368.450,142.235 369.000 C 142.745 369.550,143.511 370.000,143.938 370.000 C 144.365 370.000,144.818 370.270,144.945 370.600 C 145.071 370.930,145.631 371.200,146.187 371.200 C 146.821 371.200,147.200 371.425,147.200 371.800 C 147.200 372.166,147.573 372.400,148.157 372.400 C 148.684 372.400,149.218 372.670,149.345 373.000 C 149.471 373.330,150.011 373.600,150.545 373.600 C 151.078 373.600,151.618 373.870,151.745 374.200 C 151.871 374.530,152.431 374.800,152.987 374.800 C 153.544 374.800,154.000 374.980,154.000 375.200 C 154.000 375.420,154.450 375.600,155.000 375.600 C 155.622 375.600,156.000 375.827,156.000 376.200 C 156.000 376.600,156.400 376.800,157.200 376.800 C 158.000 376.800,158.400 377.000,158.400 377.400 C 158.400 377.775,158.779 378.000,159.413 378.000 C 159.969 378.000,160.529 378.270,160.655 378.600 C 160.782 378.930,161.297 379.200,161.800 379.200 C 162.303 379.200,162.818 379.470,162.945 379.800 C 163.071 380.130,163.631 380.400,164.187 380.400 C 164.744 380.400,165.200 380.580,165.200 380.800 C 165.200 381.020,165.631 381.200,166.157 381.200 C 166.684 381.200,167.218 381.470,167.345 381.800 C 167.471 382.130,168.011 382.400,168.545 382.400 C 169.078 382.400,169.618 382.670,169.745 383.000 C 169.871 383.330,170.411 383.600,170.945 383.600 C 171.478 383.600,172.018 383.870,172.145 384.200 C 172.287 384.572,172.896 384.800,173.745 384.800 C 174.593 384.800,175.202 385.028,175.345 385.400 C 175.471 385.730,176.031 386.000,176.587 386.000 C 177.144 386.000,177.600 386.178,177.600 386.395 C 177.600 386.613,178.320 386.906,179.200 387.046 C 180.080 387.187,180.800 387.459,180.800 387.651 C 180.800 387.843,181.340 388.000,182.000 388.000 C 182.800 388.000,183.200 388.200,183.200 388.600 C 183.200 389.031,183.640 389.200,184.757 389.200 C 185.772 389.200,186.395 389.409,186.545 389.800 C 186.697 390.196,187.323 390.400,188.387 390.400 C 189.554 390.400,190.000 390.566,190.000 391.000 C 190.000 391.431,190.440 391.600,191.557 391.600 C 192.572 391.600,193.195 391.809,193.345 392.200 C 193.497 392.596,194.123 392.800,195.187 392.800 C 196.074 392.800,196.800 392.980,196.800 393.200 C 196.800 393.724,201.876 393.724,202.200 393.200 C 202.336 392.980,203.122 392.800,203.947 392.800 C 204.772 392.800,205.796 392.536,206.224 392.213 C 206.651 391.890,207.482 391.620,208.071 391.613 C 208.661 391.606,209.413 391.330,209.743 391.000 C 210.073 390.670,210.806 390.400,211.371 390.400 C 212.019 390.400,212.400 390.178,212.400 389.800 C 212.400 389.367,212.844 389.200,214.000 389.200 C 215.156 389.200,215.600 389.033,215.600 388.600 C 215.600 388.168,216.042 388.000,217.176 388.000 C 218.043 388.000,218.864 387.820,219.000 387.600 C 219.136 387.380,219.602 387.200,220.036 387.200 C 220.470 387.200,220.929 386.930,221.055 386.600 C 221.182 386.270,221.772 386.000,222.366 386.000 C 222.961 386.000,223.796 385.736,224.224 385.413 C 224.651 385.090,225.405 384.820,225.900 384.813 C 226.428 384.805,226.800 384.552,226.800 384.200 C 226.800 383.800,227.200 383.600,228.000 383.600 C 228.800 383.600,229.200 383.400,229.200 383.000 C 229.200 382.605,229.595 382.400,230.357 382.400 C 231.017 382.400,231.613 382.142,231.745 381.800 C 231.888 381.427,232.497 381.200,233.354 381.200 C 234.113 381.200,234.793 381.065,234.867 380.900 C 235.088 380.403,237.610 379.200,238.432 379.200 C 238.855 379.200,239.200 378.930,239.200 378.600 C 239.200 378.200,239.600 378.000,240.400 378.000 C 241.200 378.000,241.600 377.800,241.600 377.400 C 241.600 377.025,241.979 376.800,242.613 376.800 C 243.169 376.800,243.729 376.530,243.855 376.200 C 243.982 375.870,244.516 375.600,245.043 375.600 C 245.569 375.600,246.002 375.465,246.004 375.300 C 246.006 375.135,246.996 374.561,248.204 374.024 C 249.412 373.487,250.400 372.902,250.400 372.724 C 250.400 372.546,250.651 372.400,250.957 372.400 C 251.264 372.400,251.618 372.130,251.745 371.800 C 251.871 371.470,252.431 371.200,252.987 371.200 C 253.621 371.200,254.000 370.975,254.000 370.600 C 254.000 370.225,254.379 370.000,255.013 370.000 C 255.569 370.000,256.129 369.730,256.255 369.400 C 256.382 369.070,256.916 368.800,257.443 368.800 C 257.969 368.800,258.400 368.620,258.400 368.400 C 258.400 368.180,258.670 368.000,259.000 368.000 C 259.330 368.000,259.600 367.730,259.600 367.400 C 259.600 367.025,259.979 366.800,260.613 366.800 C 261.169 366.800,261.729 366.530,261.855 366.200 C 261.982 365.870,262.432 365.600,262.855 365.600 C 263.279 365.600,263.729 365.330,263.855 365.000 C 263.982 364.670,264.336 364.400,264.643 364.400 C 264.949 364.400,265.200 364.130,265.200 363.800 C 265.200 363.418,265.584 363.200,266.254 363.200 C 266.865 363.200,267.698 362.779,268.235 362.200 C 268.745 361.650,269.446 361.200,269.793 361.200 C 270.141 361.200,270.529 360.930,270.655 360.600 C 270.782 360.270,271.136 360.000,271.443 360.000 C 271.749 360.000,272.000 359.730,272.000 359.400 C 272.000 359.025,272.379 358.800,273.013 358.800 C 273.569 358.800,274.129 358.530,274.255 358.200 C 274.382 357.870,274.717 357.600,275.000 357.600 C 275.283 357.600,275.618 357.330,275.745 357.000 C 275.871 356.670,276.275 356.400,276.642 356.400 C 277.008 356.400,277.725 355.950,278.235 355.400 C 278.745 354.850,279.350 354.400,279.581 354.400 C 279.811 354.400,280.000 354.130,280.000 353.800 C 280.000 353.427,280.378 353.200,281.000 353.200 C 281.622 353.200,282.000 352.973,282.000 352.600 C 282.000 352.270,282.270 352.000,282.600 352.000 C 282.930 352.000,283.200 351.730,283.200 351.400 C 283.200 351.070,283.470 350.800,283.800 350.800 C 284.130 350.800,284.400 350.640,284.400 350.443 C 284.400 350.247,284.810 349.984,285.312 349.858 C 286.397 349.585,288.800 347.524,288.800 346.864 C 288.800 346.609,289.070 346.400,289.400 346.400 C 289.730 346.400,290.000 346.130,290.000 345.800 C 290.000 345.425,290.379 345.200,291.013 345.200 C 291.569 345.200,292.129 344.930,292.255 344.600 C 292.382 344.270,292.659 344.000,292.871 344.000 C 293.390 344.000,294.400 342.962,294.400 342.429 C 294.400 342.193,294.670 342.000,295.000 342.000 C 295.330 342.000,295.600 341.730,295.600 341.400 C 295.600 341.070,295.870 340.800,296.200 340.800 C 296.530 340.800,296.800 340.530,296.800 340.200 C 296.800 339.870,297.070 339.600,297.400 339.600 C 297.730 339.600,298.000 339.330,298.000 339.000 C 298.000 338.670,298.204 338.400,298.454 338.400 C 298.704 338.400,299.325 337.950,299.835 337.400 C 300.345 336.850,300.954 336.400,301.188 336.400 C 301.830 336.400,306.674 331.427,306.984 330.450 C 307.132 329.983,307.422 329.600,307.627 329.600 C 307.832 329.600,308.000 329.330,308.000 329.000 C 308.000 328.670,308.270 328.400,308.600 328.400 C 308.930 328.400,309.200 328.130,309.200 327.800 C 309.200 327.470,309.470 327.200,309.800 327.200 C 310.130 327.200,310.400 326.930,310.400 326.600 C 310.400 326.270,310.594 326.000,310.831 326.000 C 311.391 326.000,313.600 323.791,313.600 323.231 C 313.600 322.994,313.870 322.800,314.200 322.800 C 314.530 322.800,314.800 322.549,314.800 322.243 C 314.800 321.936,315.070 321.582,315.400 321.455 C 315.730 321.329,316.000 320.949,316.000 320.612 C 316.000 320.275,316.720 319.300,317.600 318.446 C 318.480 317.592,319.200 316.712,319.200 316.490 C 319.200 316.267,319.470 315.982,319.800 315.855 C 320.130 315.729,320.400 315.169,320.400 314.613 C 320.400 314.056,320.578 313.600,320.795 313.600 C 321.577 313.600,322.800 312.204,322.800 311.311 C 322.800 310.768,323.042 310.400,323.400 310.400 C 323.730 310.400,324.000 310.149,324.000 309.843 C 324.000 309.536,324.270 309.182,324.600 309.055 C 324.930 308.929,325.200 308.459,325.200 308.013 C 325.200 307.566,325.380 307.200,325.600 307.200 C 325.820 307.200,326.000 306.949,326.000 306.643 C 326.000 306.336,326.270 305.982,326.600 305.855 C 326.930 305.729,327.200 305.169,327.200 304.613 C 327.200 303.979,327.425 303.600,327.800 303.600 C 328.130 303.600,328.400 303.330,328.400 303.000 C 328.400 302.670,328.577 302.400,328.792 302.400 C 329.008 302.400,329.294 301.963,329.428 301.429 C 329.563 300.895,329.926 300.361,330.236 300.241 C 330.546 300.122,330.800 299.647,330.800 299.184 C 330.800 298.721,331.070 298.073,331.400 297.743 C 331.730 297.413,332.000 296.796,332.000 296.371 C 332.000 295.947,332.180 295.600,332.400 295.600 C 332.620 295.600,332.800 295.330,332.800 295.000 C 332.800 294.670,333.070 294.400,333.400 294.400 C 333.775 294.400,334.000 294.021,334.000 293.387 C 334.000 292.831,334.270 292.271,334.600 292.145 C 334.991 291.995,335.200 291.372,335.200 290.357 C 335.200 289.240,335.369 288.800,335.800 288.800 C 336.166 288.800,336.400 288.427,336.400 287.843 C 336.400 287.316,336.670 286.782,337.000 286.655 C 337.330 286.529,337.600 285.969,337.600 285.413 C 337.600 284.856,337.780 284.400,338.000 284.400 C 338.220 284.400,338.400 283.680,338.400 282.800 C 338.400 281.644,338.567 281.200,339.000 281.200 C 339.400 281.200,339.600 280.800,339.600 280.000 C 339.600 279.200,339.800 278.800,340.200 278.800 C 340.634 278.800,340.800 278.354,340.800 277.187 C 340.800 276.123,341.004 275.497,341.400 275.345 C 341.787 275.196,342.000 274.577,342.000 273.600 C 342.000 272.623,342.213 272.004,342.600 271.855 C 343.023 271.693,343.200 271.032,343.200 269.613 C 343.200 268.506,343.369 267.600,343.575 267.600 C 343.782 267.600,344.061 266.745,344.196 265.700 C 344.331 264.655,344.612 263.487,344.820 263.105 C 345.029 262.723,345.200 261.348,345.200 260.048 C 345.200 258.317,345.360 257.624,345.800 257.455 C 346.268 257.276,346.400 256.482,346.400 253.855 C 346.400 251.229,346.532 250.435,347.000 250.255 C 347.825 249.939,347.923 146.400,347.098 146.400 C 346.390 146.400,309.897 183.089,308.856 184.847 C 308.002 186.292,308.000 186.351,308.000 216.347 C 308.000 236.116,307.863 246.400,307.600 246.400 C 307.371 246.400,307.200 247.600,307.200 249.200 C 307.200 251.422,307.076 252.000,306.600 252.000 C 306.141 252.000,306.000 252.506,306.000 254.157 C 306.000 255.706,305.831 256.379,305.400 256.545 C 304.979 256.706,304.800 257.363,304.800 258.745 C 304.800 260.127,304.621 260.783,304.200 260.945 C 303.804 261.097,303.600 261.723,303.600 262.787 C 303.600 263.954,303.434 264.400,303.000 264.400 C 302.631 264.400,302.400 264.775,302.400 265.376 C 302.400 265.913,302.220 266.464,302.000 266.600 C 301.780 266.736,301.600 267.267,301.600 267.781 C 301.600 268.294,301.330 268.818,301.000 268.945 C 300.623 269.089,300.400 269.701,300.400 270.587 C 300.400 271.576,300.220 272.000,299.800 272.000 C 299.400 272.000,299.200 272.400,299.200 273.200 C 299.200 274.000,299.000 274.400,298.600 274.400 C 298.200 274.400,298.000 274.800,298.000 275.600 C 298.000 276.400,297.800 276.800,297.400 276.800 C 297.070 276.800,296.800 277.070,296.800 277.400 C 296.800 277.730,296.620 278.000,296.400 278.000 C 296.180 278.000,296.000 278.366,296.000 278.813 C 296.000 279.259,295.730 279.729,295.400 279.855 C 295.058 279.987,294.800 280.583,294.800 281.243 C 294.800 282.005,294.595 282.400,294.200 282.400 C 293.870 282.400,293.600 282.651,293.600 282.957 C 293.600 283.264,293.330 283.618,293.000 283.745 C 292.670 283.871,292.400 284.321,292.400 284.745 C 292.400 285.168,292.170 285.603,291.888 285.711 C 291.606 285.819,291.021 286.603,290.588 287.454 C 290.155 288.304,289.395 289.396,288.900 289.881 C 288.405 290.365,288.000 291.130,288.000 291.581 C 288.000 292.042,287.738 292.400,287.400 292.400 C 287.070 292.400,286.800 292.670,286.800 293.000 C 286.800 293.330,286.530 293.600,286.200 293.600 C 285.870 293.600,285.600 293.780,285.600 294.000 C 285.600 294.220,284.880 295.120,284.000 296.000 C 283.120 296.880,282.400 297.960,282.400 298.400 C 282.400 298.844,282.133 299.200,281.800 299.200 C 281.470 299.200,281.200 299.470,281.200 299.800 C 281.200 300.130,280.930 300.400,280.600 300.400 C 280.270 300.400,280.000 300.670,280.000 301.000 C 280.000 301.330,279.806 301.600,279.569 301.600 C 279.332 301.600,278.612 302.126,277.969 302.769 C 277.326 303.412,276.800 304.132,276.800 304.369 C 276.800 304.606,276.530 304.800,276.200 304.800 C 275.870 304.800,275.600 305.070,275.600 305.400 C 275.600 305.730,275.330 306.000,275.000 306.000 C 274.670 306.000,274.400 306.270,274.400 306.600 C 274.400 306.930,274.206 307.200,273.969 307.200 C 273.732 307.200,273.012 307.726,272.369 308.369 C 271.726 309.012,271.200 309.732,271.200 309.969 C 271.200 310.206,270.930 310.400,270.600 310.400 C 270.270 310.400,270.000 310.670,270.000 311.000 C 270.000 311.351,269.636 311.600,269.123 311.600 C 268.616 311.600,267.618 312.274,266.755 313.200 C 265.934 314.080,265.068 314.800,264.831 314.800 C 264.594 314.800,264.400 315.070,264.400 315.400 C 264.400 315.730,264.130 316.000,263.800 316.000 C 263.470 316.000,263.200 316.270,263.200 316.600 C 263.200 316.937,262.843 317.200,262.384 317.200 C 261.935 317.200,260.893 317.875,260.068 318.700 C 259.243 319.525,257.880 320.555,257.038 320.988 C 256.196 321.421,255.419 322.006,255.311 322.288 C 255.203 322.570,254.864 322.800,254.557 322.800 C 254.251 322.800,254.000 323.070,254.000 323.400 C 254.000 323.773,253.622 324.000,253.000 324.000 C 252.378 324.000,252.000 324.227,252.000 324.600 C 252.000 324.930,251.730 325.200,251.400 325.200 C 251.070 325.200,250.800 325.470,250.800 325.800 C 250.800 326.173,250.422 326.400,249.800 326.400 C 249.250 326.400,248.800 326.580,248.800 326.800 C 248.800 327.020,248.524 327.200,248.187 327.200 C 247.851 327.200,247.478 327.454,247.359 327.764 C 247.239 328.074,246.705 328.437,246.171 328.572 C 245.637 328.706,245.200 328.992,245.200 329.208 C 245.200 329.423,244.930 329.600,244.600 329.600 C 244.270 329.600,244.000 329.870,244.000 330.200 C 244.000 330.575,243.621 330.800,242.987 330.800 C 242.431 330.800,241.871 331.070,241.745 331.400 C 241.618 331.730,241.149 332.000,240.703 332.000 C 240.257 332.000,239.475 332.450,238.965 333.000 C 238.455 333.550,237.664 334.000,237.207 334.000 C 236.749 334.000,236.271 334.270,236.145 334.600 C 236.018 334.930,235.568 335.200,235.145 335.200 C 234.721 335.200,234.271 335.470,234.145 335.800 C 234.018 336.130,233.664 336.400,233.357 336.400 C 233.051 336.400,232.800 336.670,232.800 337.000 C 232.800 337.400,232.400 337.600,231.600 337.600 C 230.800 337.600,230.400 337.800,230.400 338.200 C 230.400 338.573,230.022 338.800,229.400 338.800 C 228.850 338.800,228.400 338.980,228.400 339.200 C 228.400 339.420,227.944 339.600,227.387 339.600 C 226.831 339.600,226.271 339.870,226.145 340.200 C 226.018 340.530,225.478 340.800,224.945 340.800 C 224.411 340.800,223.871 341.070,223.745 341.400 C 223.618 341.730,223.084 342.000,222.557 342.000 C 221.973 342.000,221.600 342.234,221.600 342.600 C 221.600 343.000,221.200 343.200,220.400 343.200 C 219.600 343.200,219.200 343.400,219.200 343.800 C 219.200 344.200,218.800 344.400,218.000 344.400 C 217.340 344.400,216.800 344.580,216.800 344.800 C 216.800 345.020,216.434 345.200,215.987 345.200 C 215.541 345.200,215.071 345.470,214.945 345.800 C 214.818 346.130,214.228 346.400,213.634 346.400 C 213.039 346.400,212.204 346.664,211.776 346.987 C 211.349 347.310,210.595 347.580,210.100 347.587 C 209.572 347.595,209.200 347.848,209.200 348.200 C 209.200 348.600,208.800 348.800,208.000 348.800 C 207.200 348.800,206.800 349.000,206.800 349.400 C 206.800 349.831,206.360 350.000,205.243 350.000 C 204.228 350.000,203.605 350.209,203.455 350.600 C 203.329 350.930,202.790 351.200,202.259 351.200 C 201.630 351.200,201.220 351.479,201.084 351.999 C 200.655 353.641,198.888 353.681,195.200 352.133 C 194.430 351.810,193.350 351.359,192.800 351.131 C 189.449 349.740,188.747 349.436,184.600 347.583 C 182.630 346.703,174.370 342.697,173.200 342.054 C 172.870 341.873,172.240 341.544,171.800 341.323 C 170.620 340.732,166.041 338.246,164.200 337.197 C 163.320 336.696,161.846 335.882,160.925 335.388 C 160.003 334.894,158.715 334.109,158.063 333.645 C 157.410 333.180,156.771 332.800,156.642 332.800 C 156.513 332.800,155.225 331.990,153.779 331.000 C 152.333 330.010,151.063 329.200,150.958 329.200 C 150.852 329.200,149.791 328.480,148.600 327.600 C 147.409 326.720,146.241 326.000,146.005 326.000 C 145.768 326.000,145.471 325.730,145.345 325.400 C 145.218 325.070,144.940 324.800,144.727 324.800 C 144.375 324.800,139.675 321.385,139.200 320.784 C 139.090 320.645,138.706 320.367,138.347 320.166 C 136.784 319.289,129.422 313.004,125.738 309.400 C 124.163 307.860,122.543 306.316,122.138 305.968 C 120.782 304.806,114.083 297.425,112.545 295.400 C 111.710 294.300,110.614 292.950,110.109 292.400 C 109.604 291.850,109.091 291.085,108.969 290.700 C 108.846 290.315,108.578 290.000,108.373 290.000 C 108.168 290.000,108.000 289.730,108.000 289.400 C 108.000 289.070,107.842 288.800,107.650 288.800 C 107.354 288.800,104.454 284.263,101.258 278.800 C 99.389 275.605,95.600 267.468,95.600 266.649 C 95.600 266.376,95.336 265.804,95.013 265.376 C 94.690 264.949,94.414 264.150,94.400 263.600 C 94.386 263.050,94.110 262.251,93.787 261.824 C 93.464 261.396,93.200 260.653,93.200 260.172 C 93.200 259.691,92.930 258.651,92.600 257.862 C 92.270 257.072,92.000 255.967,92.000 255.407 C 92.000 254.847,91.825 254.077,91.610 253.695 C 89.940 250.717,89.248 237.755,89.223 208.994 L 89.200 182.988 70.890 164.694 C 60.819 154.632,52.269 146.400,51.890 146.400 C 51.240 146.400,51.200 149.326,51.200 196.371 "
              stroke="none" fill="#3cac34" fill-rule="evenodd"></path>
        <path id="path3"
              d="M198.200 57.278 C 197.760 57.527,197.310 57.849,197.200 57.991 C 196.880 58.407,189.223 62.917,186.659 64.201 C 185.371 64.845,184.482 65.427,184.684 65.495 C 185.107 65.636,190.021 63.085,193.000 61.177 C 193.660 60.755,194.470 60.282,194.800 60.128 C 195.130 59.974,196.119 59.329,196.998 58.696 C 197.963 58.001,198.940 57.610,199.462 57.710 C 200.063 57.825,200.264 57.711,200.121 57.338 C 199.872 56.689,199.272 56.670,198.200 57.278 M181.600 66.619 C 180.610 67.133,179.519 67.563,179.176 67.576 C 178.834 67.589,178.204 67.864,177.776 68.187 C 177.349 68.510,176.683 68.780,176.295 68.787 C 175.907 68.794,175.277 68.983,174.895 69.208 C 174.513 69.432,173.120 69.961,171.800 70.383 C 169.779 71.028,169.602 71.154,170.676 71.175 C 171.378 71.189,172.055 71.034,172.181 70.831 C 172.306 70.628,172.986 70.335,173.691 70.180 C 175.033 69.885,175.357 69.758,177.532 68.668 C 178.265 68.300,179.176 68.000,179.556 68.000 C 179.936 68.000,180.596 67.736,181.024 67.413 C 181.451 67.090,182.093 66.820,182.451 66.813 C 182.809 66.806,183.326 66.530,183.600 66.200 C 184.269 65.394,183.752 65.502,181.600 66.619 M166.800 71.820 L 165.000 72.336 166.424 72.368 C 167.206 72.386,168.196 72.136,168.624 71.813 C 169.536 71.123,169.230 71.124,166.800 71.820 M163.000 72.803 C 161.022 73.334,156.395 74.306,153.200 74.862 C 150.981 75.248,150.534 75.418,151.482 75.516 C 152.186 75.588,153.120 75.457,153.555 75.224 C 153.991 74.991,154.983 74.800,155.760 74.800 C 156.536 74.800,157.943 74.549,158.886 74.243 C 159.829 73.937,161.387 73.591,162.348 73.475 C 163.310 73.358,164.291 73.069,164.528 72.832 C 165.015 72.345,164.728 72.340,163.000 72.803 M145.495 75.839 C 145.364 75.970,143.939 76.226,142.328 76.408 L 139.400 76.738 142.600 76.581 C 144.360 76.494,146.790 76.263,148.000 76.068 L 150.200 75.713 147.967 75.656 C 146.738 75.625,145.626 75.707,145.495 75.839 M133.074 77.059 C 132.932 77.201,129.077 77.451,124.508 77.615 L 116.200 77.912 125.800 77.807 C 131.117 77.749,135.935 77.516,136.600 77.285 C 137.711 76.900,137.635 76.866,135.567 76.834 C 134.338 76.815,133.217 76.916,133.074 77.059 M95.133 78.370 C 92.565 78.497,90.322 78.743,90.147 78.919 C 89.753 79.314,113.821 78.788,115.200 78.371 C 116.343 78.026,102.140 78.025,95.133 78.370 M90.090 184.870 C 89.546 185.414,89.458 230.119,89.983 238.800 C 90.136 241.330,90.293 230.305,90.331 214.300 C 90.369 198.295,90.514 185.200,90.654 185.200 C 90.794 185.200,96.475 190.766,103.278 197.570 L 115.648 209.939 114.710 211.470 C 110.702 218.007,109.354 228.913,111.838 234.714 C 112.147 235.436,112.400 236.246,112.400 236.514 C 112.400 236.977,114.780 241.980,115.200 242.400 C 115.310 242.510,115.843 243.230,116.384 244.000 C 118.637 247.206,125.153 252.800,126.635 252.800 C 126.946 252.800,127.200 252.938,127.200 253.106 C 127.200 253.457,130.830 254.814,131.654 254.772 C 131.954 254.756,131.210 254.347,130.000 253.861 C 113.369 247.192,106.434 228.826,114.499 212.804 L 116.007 209.809 103.293 197.095 C 93.266 187.067,90.476 184.484,90.090 184.870 M90.634 245.400 C 90.759 246.500,91.002 248.300,91.174 249.400 L 91.487 251.400 91.536 249.400 C 91.563 248.300,91.320 246.500,90.996 245.400 L 90.407 243.400 90.634 245.400 M154.000 252.384 C 151.032 253.920,150.111 254.302,148.000 254.873 C 146.079 255.393,135.449 255.537,133.400 255.070 L 132.200 254.797 133.400 255.380 C 136.318 256.799,147.002 256.068,151.460 254.144 C 152.154 253.845,152.832 253.600,152.968 253.600 C 153.105 253.600,153.929 253.150,154.800 252.600 C 155.671 252.050,156.590 251.600,156.841 251.600 C 157.093 251.600,166.664 260.960,178.111 272.400 C 189.558 283.840,199.035 293.200,199.171 293.200 C 199.307 293.200,189.961 283.750,178.404 272.200 C 166.846 260.650,157.122 251.211,156.795 251.223 C 156.468 251.236,155.210 251.759,154.000 252.384 M91.794 252.640 C 91.965 253.278,92.240 254.430,92.406 255.200 C 92.852 257.277,93.870 260.861,94.338 262.000 L 94.749 263.000 94.775 261.924 C 94.789 261.332,94.636 260.746,94.435 260.622 C 94.234 260.497,93.942 259.639,93.785 258.713 C 93.629 257.788,93.353 256.754,93.171 256.415 C 92.990 256.077,92.731 254.949,92.597 253.909 C 92.463 252.869,92.158 251.898,91.919 251.750 C 91.618 251.564,91.580 251.840,91.794 252.640 M94.800 263.478 C 94.800 263.715,95.069 264.424,95.398 265.054 C 95.875 265.971,95.993 266.040,95.985 265.400 C 95.979 264.960,95.710 264.251,95.387 263.824 C 95.064 263.396,94.800 263.241,94.800 263.478 M96.000 266.844 C 96.000 267.172,96.149 267.611,96.331 267.820 C 96.514 268.029,97.266 269.640,98.003 271.400 C 98.740 273.160,99.472 274.780,99.629 275.000 C 99.787 275.220,100.590 276.660,101.414 278.200 C 107.459 289.490,120.034 304.467,131.600 314.151 C 133.470 315.716,135.090 317.102,135.200 317.230 C 136.881 319.189,161.001 335.600,162.199 335.600 C 162.297 335.600,163.760 336.418,165.451 337.418 C 171.489 340.987,184.499 347.283,183.600 346.200 C 183.326 345.870,182.910 345.600,182.675 345.600 C 182.078 345.600,170.038 339.585,169.771 339.153 C 169.651 338.959,169.203 338.800,168.776 338.800 C 168.349 338.800,168.000 338.632,168.000 338.427 C 168.000 338.222,167.605 337.929,167.123 337.776 C 166.641 337.623,165.156 336.834,163.823 336.023 C 162.490 335.212,161.130 334.423,160.800 334.270 C 160.470 334.116,159.660 333.635,159.000 333.200 C 158.340 332.765,157.544 332.286,157.231 332.135 C 156.919 331.985,155.238 330.903,153.497 329.731 C 151.756 328.559,150.256 327.600,150.162 327.600 C 150.069 327.600,149.296 327.105,148.444 326.500 C 147.592 325.895,146.496 325.130,146.010 324.800 C 145.523 324.470,144.737 323.864,144.263 323.453 C 143.788 323.042,142.693 322.254,141.828 321.703 C 140.964 321.151,139.796 320.272,139.232 319.750 C 138.669 319.227,138.099 318.800,137.965 318.800 C 137.716 318.800,137.351 318.501,133.653 315.274 C 132.473 314.243,131.247 313.250,130.930 313.067 C 130.612 312.884,129.305 311.714,128.024 310.467 C 126.744 309.220,124.819 307.362,123.748 306.337 C 120.773 303.492,116.759 299.204,115.200 297.207 C 114.430 296.221,113.530 295.127,113.200 294.776 C 111.891 293.382,110.800 291.978,110.800 291.686 C 110.800 291.517,110.260 290.787,109.600 290.064 C 108.940 289.342,108.400 288.664,108.400 288.558 C 108.400 288.452,107.713 287.429,106.873 286.283 C 106.033 285.137,105.221 283.930,105.068 283.600 C 104.916 283.270,104.445 282.460,104.023 281.800 C 102.856 279.977,101.640 277.728,99.913 274.200 C 99.052 272.440,98.089 270.490,97.774 269.868 C 97.458 269.245,97.194 268.525,97.187 268.268 C 97.167 267.518,96.000 266.118,96.000 266.844 M185.200 347.317 C 185.750 347.599,188.270 348.694,190.800 349.750 C 193.330 350.806,195.713 351.835,196.095 352.035 C 197.109 352.568,197.366 352.482,196.800 351.800 C 196.526 351.470,195.979 351.200,195.583 351.200 C 195.188 351.200,194.355 350.947,193.732 350.637 C 193.110 350.327,192.150 349.893,191.600 349.672 C 191.050 349.451,189.416 348.714,187.968 348.035 C 185.455 346.856,183.115 346.249,185.200 347.317 M198.100 352.676 C 198.485 352.776,199.115 352.776,199.500 352.676 C 199.885 352.575,199.570 352.493,198.800 352.493 C 198.030 352.493,197.715 352.575,198.100 352.676 "
              stroke="none" fill="#a1cca6" fill-rule="evenodd"></path>
        <path id="path4"
              d="M197.400 57.388 C 196.740 57.929,196.086 58.378,195.946 58.386 C 195.806 58.394,194.613 59.120,193.295 60.000 C 191.977 60.880,190.710 61.600,190.478 61.600 C 190.247 61.600,189.819 61.825,189.529 62.100 C 189.238 62.375,187.740 63.207,186.200 63.949 C 184.660 64.691,182.528 65.726,181.463 66.249 C 180.398 66.772,179.345 67.200,179.124 67.200 C 178.902 67.200,178.064 67.485,177.260 67.833 C 176.457 68.182,175.209 68.722,174.486 69.033 C 173.764 69.345,172.864 69.606,172.486 69.614 C 171.797 69.628,169.517 70.759,170.125 70.786 C 170.702 70.811,174.588 69.495,174.980 69.142 C 175.189 68.954,175.729 68.794,176.180 68.787 C 176.631 68.780,177.349 68.510,177.776 68.187 C 178.204 67.864,178.802 67.600,179.105 67.600 C 180.533 67.600,195.782 59.431,197.502 57.745 C 198.459 56.807,199.628 56.686,200.217 57.464 C 200.524 57.869,200.780 58.011,200.787 57.780 C 200.833 56.267,199.023 56.057,197.400 57.388 M167.485 71.048 C 166.978 71.556,158.411 73.514,154.473 74.023 C 152.863 74.231,151.209 74.581,150.799 74.801 C 150.388 75.020,149.006 75.214,147.726 75.232 C 146.447 75.249,144.140 75.514,142.600 75.821 L 139.800 76.379 142.200 76.205 C 143.520 76.110,146.040 75.861,147.800 75.654 C 155.716 74.719,172.167 70.936,168.767 70.832 C 168.198 70.814,167.622 70.912,167.485 71.048 M132.200 76.662 C 131.760 76.746,129.510 76.981,127.200 77.185 L 123.000 77.555 127.800 77.333 C 130.440 77.210,134.220 76.979,136.200 76.820 L 139.800 76.529 136.400 76.519 C 134.530 76.514,132.640 76.578,132.200 76.662 M94.118 77.976 C 91.021 78.118,89.054 78.383,88.738 78.700 C 88.102 79.338,88.960 79.381,90.640 78.796 C 91.278 78.574,97.380 78.242,104.200 78.059 C 116.053 77.740,116.212 77.726,107.800 77.738 C 102.960 77.746,96.803 77.852,94.118 77.976 M89.252 209.700 C 89.281 224.055,89.416 237.150,89.552 238.800 C 89.689 240.450,89.738 229.101,89.662 213.580 C 89.546 189.813,89.612 185.288,90.082 184.898 C 90.533 184.524,93.065 186.861,103.323 197.123 L 116.006 209.811 114.403 212.945 C 113.521 214.669,112.804 216.287,112.809 216.540 C 112.814 216.793,113.619 215.403,114.597 213.450 C 115.874 210.901,116.274 209.718,116.015 209.250 C 115.245 207.860,90.532 183.600,89.885 183.600 C 89.245 183.600,89.203 185.302,89.252 209.700 M112.057 218.626 C 111.764 219.515,111.606 220.683,111.707 221.221 C 111.846 221.962,111.904 221.854,111.946 220.780 C 111.975 219.999,112.197 219.163,112.438 218.922 C 112.678 218.682,112.811 218.153,112.733 217.747 C 112.638 217.254,112.414 217.546,112.057 218.626 M111.111 224.500 C 111.000 225.655,111.041 227.500,111.201 228.600 C 111.444 230.266,111.502 229.915,111.547 226.500 C 111.605 222.026,111.426 221.206,111.111 224.500 M111.664 231.854 C 111.629 232.544,111.863 233.714,112.184 234.454 C 112.613 235.441,112.773 235.581,112.784 234.980 C 112.793 234.529,112.633 233.989,112.429 233.780 C 112.224 233.571,111.983 232.770,111.893 232.000 C 111.729 230.606,111.728 230.605,111.664 231.854 M112.800 236.296 C 112.800 240.218,126.401 254.932,128.285 253.048 C 128.435 252.898,125.734 251.200,125.347 251.200 C 124.814 251.200,120.417 247.500,118.875 245.753 C 116.409 242.961,116.490 243.081,114.560 239.299 C 113.592 237.402,112.800 236.051,112.800 236.296 M90.183 245.200 C 90.345 248.199,91.218 253.315,91.649 253.780 C 91.842 253.989,92.000 254.670,92.000 255.293 C 92.000 255.916,92.270 257.072,92.600 257.862 C 92.930 258.651,93.200 259.691,93.200 260.172 C 93.200 260.653,93.485 261.396,93.833 261.824 C 94.456 262.589,94.462 262.589,94.195 261.800 C 93.684 260.283,92.707 256.596,92.361 254.873 C 92.170 253.924,91.918 252.990,91.799 252.799 C 91.681 252.608,91.393 251.135,91.158 249.526 C 90.924 247.917,90.582 245.790,90.398 244.800 L 90.064 243.000 90.183 245.200 M154.000 251.972 C 152.790 252.590,151.282 253.306,150.648 253.563 C 150.015 253.820,149.592 254.126,149.709 254.243 C 149.826 254.360,150.255 254.291,150.661 254.090 C 151.067 253.889,152.525 253.157,153.899 252.462 C 155.274 251.768,156.621 251.200,156.894 251.200 C 157.167 251.200,166.846 260.650,178.404 272.200 C 192.490 286.277,199.678 293.191,200.209 293.172 C 200.912 293.147,200.922 293.113,200.302 292.867 C 199.918 292.715,190.192 283.188,178.688 271.696 C 164.819 257.840,157.507 250.808,156.986 250.825 C 156.554 250.838,155.210 251.355,154.000 251.972 M129.946 253.816 C 131.642 254.552,132.021 254.542,131.024 253.787 C 130.596 253.464,129.876 253.207,129.424 253.216 C 128.816 253.227,128.953 253.385,129.946 253.816 M133.200 254.845 C 133.970 255.075,135.230 255.333,136.000 255.419 L 137.400 255.574 136.000 255.155 C 135.230 254.925,133.970 254.667,133.200 254.581 L 131.800 254.426 133.200 254.845 M145.200 255.048 C 143.603 255.530,143.558 255.573,144.800 255.428 C 146.868 255.185,149.288 254.479,148.000 254.493 C 147.450 254.499,146.190 254.749,145.200 255.048 M94.444 263.600 C 94.434 264.150,94.690 264.949,95.013 265.376 C 95.336 265.804,95.600 266.376,95.600 266.649 C 95.600 267.468,99.389 275.605,101.258 278.800 C 104.594 284.502,107.362 288.800,107.699 288.800 C 107.960 288.800,107.963 288.627,107.707 288.300 C 106.668 286.970,102.759 280.689,101.421 278.200 C 100.593 276.660,99.787 275.220,99.629 275.000 C 99.472 274.780,98.740 273.160,98.003 271.400 C 97.266 269.640,96.514 268.029,96.331 267.820 C 96.149 267.611,96.000 267.188,96.000 266.880 C 96.000 266.573,95.746 265.754,95.436 265.060 C 95.126 264.367,94.780 263.530,94.667 263.200 C 94.553 262.862,94.455 263.037,94.444 263.600 M108.019 289.500 C 108.008 289.775,108.168 290.000,108.373 290.000 C 108.578 290.000,108.846 290.315,108.969 290.700 C 109.091 291.085,109.604 291.850,110.109 292.400 C 110.614 292.950,111.710 294.300,112.545 295.400 C 114.083 297.425,120.782 304.806,122.138 305.968 C 122.543 306.316,124.163 307.860,125.738 309.400 C 129.422 313.004,136.784 319.289,138.347 320.166 C 138.706 320.367,139.090 320.645,139.200 320.784 C 139.707 321.426,144.387 324.800,144.770 324.800 C 145.006 324.800,145.200 324.986,145.200 325.213 C 145.200 325.439,145.515 325.742,145.900 325.885 C 146.285 326.028,147.537 326.833,148.683 327.673 C 149.829 328.513,150.852 329.200,150.958 329.200 C 151.063 329.200,152.333 330.010,153.779 331.000 C 155.225 331.990,156.513 332.800,156.642 332.800 C 156.771 332.800,157.410 333.180,158.063 333.645 C 158.715 334.109,160.003 334.894,160.925 335.388 C 161.846 335.882,163.320 336.696,164.200 337.197 C 165.080 337.699,166.970 338.737,168.400 339.505 C 169.830 340.273,171.219 341.075,171.487 341.288 C 171.754 341.501,172.158 341.614,172.383 341.538 C 172.608 341.462,171.759 340.864,170.496 340.210 C 169.233 339.555,166.890 338.250,165.288 337.310 C 163.687 336.369,162.297 335.600,162.199 335.600 C 161.001 335.600,136.881 319.189,135.200 317.230 C 135.090 317.102,133.470 315.716,131.600 314.151 C 129.730 312.585,125.372 308.446,121.916 304.952 C 116.441 299.417,114.072 296.720,109.119 290.383 C 108.524 289.622,108.029 289.225,108.019 289.500 M173.379 341.967 C 173.797 342.643,185.491 348.151,193.400 351.397 C 194.280 351.759,195.360 352.207,195.800 352.394 C 198.535 353.557,200.286 353.555,201.007 352.388 C 201.225 352.036,201.093 352.029,200.475 352.360 C 199.373 352.950,198.181 352.914,196.660 352.247 C 195.967 351.943,193.780 351.019,191.800 350.193 C 186.459 347.967,179.739 344.880,174.658 342.318 C 173.810 341.891,173.235 341.733,173.379 341.967 "
              stroke="none" fill="#82b48a" fill-rule="evenodd"></path>
    </g>
</svg>